solid sumo
facet normal 3.1328687298750387e-29 0.005235963831472863 -0.9999862922474265
  outer loop
    vertex 1455.8527720782924 1238.2923718473853 28.7480339041073
    vertex 1413.8527720782906 1237.96118456484 28.746299795703717
    vertex 1413.8527720782906 1238.2923718473853 28.7480339041073
  endloop
endfacet
facet normal 3.1328687298750387e-29 0.005235963831472863 -0.9999862922474265
  outer loop
    vertex 1413.8527720782906 1237.96118456484 28.746299795703717
    vertex 1455.8527720782924 1238.2923718473853 28.7480339041073
    vertex 1455.8527720782924 1237.96118456484 28.746299795703717
  endloop
endfacet
facet normal -3.082424922252068e-29 -0.17880221511636385 0.9838850379335392
  outer loop
    vertex 1455.8527720782924 1237.6155089363026 32.472569925727825
    vertex 1413.8527720782906 1237.9413636150884 32.531787757208726
    vertex 1413.8527720782906 1237.6155089363026 32.472569925727825
  endloop
endfacet
facet normal -3.082424922252068e-29 -0.17880221511636385 0.9838850379335392
  outer loop
    vertex 1413.8527720782906 1237.9413636150884 32.531787757208726
    vertex 1455.8527720782924 1237.6155089363026 32.472569925727825
    vertex 1455.8527720782924 1237.9413636150884 32.531787757208726
  endloop
endfacet
facet normal -2.9383231931486343e-29 -0.3469356515733591 0.9378889346118595
  outer loop
    vertex 1455.8527720782924 1237.304887790801 32.357667675013474
    vertex 1413.8527720782906 1237.6155089363026 32.472569925727825
    vertex 1413.8527720782906 1237.304887790801 32.357667675013474
  endloop
endfacet
facet normal -2.9383231931486343e-29 -0.3469356515733591 0.9378889346118595
  outer loop
    vertex 1413.8527720782906 1237.6155089363026 32.472569925727825
    vertex 1455.8527720782924 1237.304887790801 32.357667675013474
    vertex 1455.8527720782924 1237.6155089363026 32.472569925727825
  endloop
endfacet
facet normal -1.6403812217743858e-31 0.9999862922474265 0.005235963831473131
  outer loop
    vertex 1413.8527720782906 1240.0087446577877 30.815414946806573
    vertex 1455.8527720782924 1240.0104787661912 30.484227664261024
    vertex 1413.8527720782906 1240.0104787661912 30.484227664261024
  endloop
endfacet
facet normal -1.6403812217743858e-31 0.9999862922474265 0.005235963831473131
  outer loop
    vertex 1455.8527720782924 1240.0104787661912 30.484227664261024
    vertex 1413.8527720782906 1240.0087446577877 30.815414946806573
    vertex 1455.8527720782924 1240.0087446577877 30.815414946806573
  endloop
endfacet
facet normal 5.601715472634845e-30 -0.9838850379335331 -0.17880221511639677
  outer loop
    vertex 1455.8527720782924 1236.224990804686 30.46440671450945
    vertex 1413.8527720782906 1236.2842086361673 30.138552035723713
    vertex 1455.8527720782924 1236.2842086361673 30.138552035723713
  endloop
endfacet
facet normal 5.601715472634845e-30 -0.9838850379335331 -0.17880221511639677
  outer loop
    vertex 1413.8527720782906 1236.2842086361673 30.138552035723713
    vertex 1455.8527720782924 1236.224990804686 30.46440671450945
    vertex 1413.8527720782906 1236.224990804686 30.46440671450945
  endloop
endfacet
facet normal -2.410460848787121e-29 0.6387678175155772 0.769399555046912
  outer loop
    vertex 1455.8527720782924 1239.1984988257555 32.20198450861648
    vertex 1413.8527720782906 1239.4533176665768 31.990429831016773
    vertex 1413.8527720782906 1239.1984988257555 32.20198450861648
  endloop
endfacet
facet normal -2.410460848787121e-29 0.6387678175155772 0.769399555046912
  outer loop
    vertex 1413.8527720782906 1239.4533176665768 31.990429831016773
    vertex 1455.8527720782924 1239.1984988257555 32.20198450861648
    vertex 1455.8527720782924 1239.4533176665768 31.990429831016773
  endloop
endfacet
facet normal -2.0263352515332215e-29 0.7626683296957157 0.6467897795104273
  outer loop
    vertex 1413.8527720782906 1239.4533176665768 31.990429831016773
    vertex 1455.8527720782924 1239.667529152389 31.73784031698676
    vertex 1413.8527720782906 1239.667529152389 31.73784031698676
  endloop
endfacet
facet normal -2.0263352515332215e-29 0.7626683296957157 0.6467897795104273
  outer loop
    vertex 1455.8527720782924 1239.667529152389 31.73784031698676
    vertex 1413.8527720782906 1239.4533176665768 31.990429831016773
    vertex 1455.8527720782924 1239.4533176665768 31.990429831016773
  endloop
endfacet
facet normal -5.278623443618634e-30 -0.9857034690888439 0.1684893795650592
  outer loop
    vertex 1455.8527720782924 1236.279059000963 31.122050925369056
    vertex 1413.8527720782906 1236.2232566962828 30.795593997055
    vertex 1455.8527720782924 1236.2232566962828 30.795593997055
  endloop
endfacet
facet normal -5.278623443618634e-30 -0.9857034690888439 0.1684893795650592
  outer loop
    vertex 1413.8527720782906 1236.2232566962828 30.795593997055
    vertex 1455.8527720782924 1236.279059000963 31.122050925369056
    vertex 1413.8527720782906 1236.279059000963 31.122050925369056
  endloop
endfacet
facet normal 5.2786234436185465e-30 0.9857034690888445 -0.16848937956505639
  outer loop
    vertex 1413.8527720782906 1240.0104787661912 30.484227664261024
    vertex 1455.8527720782924 1239.954676461511 30.157770735946965
    vertex 1413.8527720782906 1239.954676461511 30.157770735946965
  endloop
endfacet
facet normal 5.2786234436185465e-30 0.9857034690888445 -0.16848937956505639
  outer loop
    vertex 1455.8527720782924 1239.954676461511 30.157770735946965
    vertex 1413.8527720782906 1240.0104787661912 30.484227664261024
    vertex 1455.8527720782924 1240.0104787661912 30.484227664261024
  endloop
endfacet
facet normal -1.5522282468386116e-29 -0.8686315144381144 0.4954586684325424
  outer loop
    vertex 1455.8527720782924 1236.5547940532786 31.72154192517655
    vertex 1413.8527720782906 1236.390702193936 31.43385827087998
    vertex 1455.8527720782924 1236.390702193936 31.43385827087998
  endloop
endfacet
facet normal -1.5522282468386116e-29 -0.8686315144381144 0.4954586684325424
  outer loop
    vertex 1413.8527720782906 1236.390702193936 31.43385827087998
    vertex 1455.8527720782924 1236.5547940532786 31.72154192517655
    vertex 1413.8527720782906 1236.5547940532786 31.72154192517655
  endloop
endfacet
facet normal -1.0869187533060665e-29 0.9378889346118876 0.3469356515732832
  outer loop
    vertex 1413.8527720782906 1239.8346245755924 31.45189077109377
    vertex 1455.8527720782924 1239.9495268263067 31.141269625592315
    vertex 1413.8527720782906 1239.9495268263067 31.141269625592315
  endloop
endfacet
facet normal -1.0869187533060665e-29 0.9378889346118876 0.3469356515732832
  outer loop
    vertex 1455.8527720782924 1239.9495268263067 31.141269625592315
    vertex 1413.8527720782906 1239.8346245755924 31.45189077109377
    vertex 1455.8527720782924 1239.8346245755924 31.45189077109377
  endloop
endfacet
facet normal -1.5806404830371905e-29 0.8633955506067084 0.5045276238151278
  outer loop
    vertex 1413.8527720782906 1239.667529152389 31.73784031698676
    vertex 1455.8527720782924 1239.8346245755924 31.45189077109377
    vertex 1413.8527720782906 1239.8346245755924 31.45189077109377
  endloop
endfacet
facet normal -1.5806404830371905e-29 0.8633955506067084 0.5045276238151278
  outer loop
    vertex 1455.8527720782924 1239.8346245755924 31.45189077109377
    vertex 1413.8527720782906 1239.667529152389 31.73784031698676
    vertex 1455.8527720782924 1239.667529152389 31.73784031698676
  endloop
endfacet
facet normal -2.3893725142968715e-29 -0.6467897795104713 0.7626683296956784
  outer loop
    vertex 1455.8527720782924 1236.7663487308782 31.97636076599792
    vertex 1413.8527720782906 1237.0189382449082 32.19057225181028
    vertex 1413.8527720782906 1236.7663487308782 31.97636076599792
  endloop
endfacet
facet normal -2.3893725142968715e-29 -0.6467897795104713 0.7626683296956784
  outer loop
    vertex 1413.8527720782906 1237.0189382449082 32.19057225181028
    vertex 1455.8527720782924 1236.7663487308782 31.97636076599792
    vertex 1455.8527720782924 1237.0189382449082 32.19057225181028
  endloop
endfacet
facet normal -5.601715472634845e-30 0.9838850379335331 0.17880221511639677
  outer loop
    vertex 1413.8527720782906 1239.9495268263067 31.141269625592315
    vertex 1455.8527720782924 1240.0087446577877 30.815414946806573
    vertex 1413.8527720782906 1240.0087446577877 30.815414946806573
  endloop
endfacet
facet normal -5.601715472634845e-30 0.9838850379335331 0.17880221511639677
  outer loop
    vertex 1455.8527720782924 1240.0087446577877 30.815414946806573
    vertex 1413.8527720782906 1239.9495268263067 31.141269625592315
    vertex 1455.8527720782924 1239.9495268263067 31.141269625592315
  endloop
endfacet
facet normal 1.6403812217743858e-31 -0.9999862922474265 -0.005235963831473131
  outer loop
    vertex 1455.8527720782924 1236.2232566962828 30.795593997055
    vertex 1413.8527720782906 1236.224990804686 30.46440671450945
    vertex 1455.8527720782924 1236.224990804686 30.46440671450945
  endloop
endfacet
facet normal 1.6403812217743858e-31 -0.9999862922474265 -0.005235963831473131
  outer loop
    vertex 1413.8527720782906 1236.224990804686 30.46440671450945
    vertex 1455.8527720782924 1236.2232566962828 30.795593997055
    vertex 1413.8527720782906 1236.2232566962828 30.795593997055
  endloop
endfacet
facet normal -3.1328687298750387e-29 -0.005235963831472863 0.9999862922474265
  outer loop
    vertex 1455.8527720782924 1237.9413636150884 32.531787757208726
    vertex 1413.8527720782906 1238.272550897634 32.53352186561231
    vertex 1413.8527720782906 1237.9413636150884 32.531787757208726
  endloop
endfacet
facet normal -3.1328687298750387e-29 -0.005235963831472863 0.9999862922474265
  outer loop
    vertex 1413.8527720782906 1238.272550897634 32.53352186561231
    vertex 1455.8527720782924 1237.9413636150884 32.531787757208726
    vertex 1455.8527720782924 1238.272550897634 32.53352186561231
  endloop
endfacet
facet normal 1.0869187533060665e-29 -0.9378889346118876 -0.3469356515732832
  outer loop
    vertex 1455.8527720782924 1236.2842086361673 30.138552035723713
    vertex 1413.8527720782906 1236.3991108868815 29.82793089022226
    vertex 1455.8527720782924 1236.3991108868815 29.82793089022226
  endloop
endfacet
facet normal 1.0869187533060665e-29 -0.9378889346118876 -0.3469356515732832
  outer loop
    vertex 1413.8527720782906 1236.3991108868815 29.82793089022226
    vertex 1455.8527720782924 1236.2842086361673 30.138552035723713
    vertex 1413.8527720782906 1236.2842086361673 30.138552035723713
  endloop
endfacet
facet normal 2.0263352515332215e-29 -0.7626683296957157 -0.6467897795104273
  outer loop
    vertex 1455.8527720782924 1236.566206310085 29.541981344329265
    vertex 1413.8527720782906 1236.7804177958972 29.28939183029925
    vertex 1455.8527720782924 1236.7804177958972 29.28939183029925
  endloop
endfacet
facet normal 2.0263352515332215e-29 -0.7626683296957157 -0.6467897795104273
  outer loop
    vertex 1413.8527720782906 1236.7804177958972 29.28939183029925
    vertex 1455.8527720782924 1236.566206310085 29.541981344329265
    vertex 1413.8527720782906 1236.566206310085 29.541981344329265
  endloop
endfacet
facet normal -2.7049420006847615e-29 -0.5045276238150866 0.8633955506067325
  outer loop
    vertex 1455.8527720782924 1237.0189382449082 32.19057225181028
    vertex 1413.8527720782906 1237.304887790801 32.357667675013474
    vertex 1413.8527720782906 1237.0189382449082 32.19057225181028
  endloop
endfacet
facet normal -2.7049420006847615e-29 -0.5045276238150866 0.8633955506067325
  outer loop
    vertex 1413.8527720782906 1237.304887790801 32.357667675013474
    vertex 1455.8527720782924 1237.0189382449082 32.19057225181028
    vertex 1455.8527720782924 1237.304887790801 32.357667675013474
  endloop
endfacet
facet normal -2.9495440615603007e-29 0.33709525842302723 0.9414705448120575
  outer loop
    vertex 1455.8527720782924 1238.599007825948 32.47771956093222
    vertex 1413.8527720782906 1238.910815171459 32.36607636795884
    vertex 1413.8527720782906 1238.599007825948 32.47771956093222
  endloop
endfacet
facet normal -2.9495440615603007e-29 0.33709525842302723 0.9414705448120575
  outer loop
    vertex 1413.8527720782906 1238.910815171459 32.36607636795884
    vertex 1455.8527720782924 1238.599007825948 32.47771956093222
    vertex 1455.8527720782924 1238.910815171459 32.36607636795884
  endloop
endfacet
facet normal -3.088121906448841e-29 0.16848937956496557 0.9857034690888599
  outer loop
    vertex 1455.8527720782924 1238.272550897634 32.53352186561231
    vertex 1413.8527720782906 1238.599007825948 32.47771956093222
    vertex 1413.8527720782906 1238.272550897634 32.53352186561231
  endloop
endfacet
facet normal -3.088121906448841e-29 0.16848937956496557 0.9857034690888599
  outer loop
    vertex 1413.8527720782906 1238.599007825948 32.47771956093222
    vertex 1455.8527720782924 1238.272550897634 32.53352186561231
    vertex 1455.8527720782924 1238.599007825948 32.47771956093222
  endloop
endfacet
facet normal -2.00120315314266e-29 -0.7693995550469427 0.6387678175155403
  outer loop
    vertex 1455.8527720782924 1236.7663487308782 31.97636076599792
    vertex 1413.8527720782906 1236.5547940532786 31.72154192517655
    vertex 1455.8527720782924 1236.5547940532786 31.72154192517655
  endloop
endfacet
facet normal -2.00120315314266e-29 -0.7693995550469427 0.6387678175155403
  outer loop
    vertex 1413.8527720782906 1236.5547940532786 31.72154192517655
    vertex 1455.8527720782924 1236.7663487308782 31.97636076599792
    vertex 1413.8527720782906 1236.7663487308782 31.97636076599792
  endloop
endfacet
facet normal 2.7213458129025155e-29 -0.4954586684323771 -0.8686315144382086
  outer loop
    vertex 1455.8527720782924 1237.322920291015 28.913745293357188
    vertex 1413.8527720782906 1237.0352366367185 29.077837152699544
    vertex 1413.8527720782906 1237.322920291015 28.913745293357188
  endloop
endfacet
facet normal 2.7213458129025155e-29 -0.4954586684323771 -0.8686315144382086
  outer loop
    vertex 1413.8527720782906 1237.0352366367185 29.077837152699544
    vertex 1455.8527720782924 1237.322920291015 28.913745293357188
    vertex 1455.8527720782924 1237.0352366367185 29.077837152699544
  endloop
endfacet
facet normal 1.5806404830371905e-29 -0.8633955506067084 -0.5045276238151278
  outer loop
    vertex 1455.8527720782924 1236.3991108868815 29.82793089022226
    vertex 1413.8527720782906 1236.566206310085 29.541981344329265
    vertex 1455.8527720782924 1236.566206310085 29.541981344329265
  endloop
endfacet
facet normal 1.5806404830371905e-29 -0.8633955506067084 -0.5045276238151278
  outer loop
    vertex 1413.8527720782906 1236.566206310085 29.541981344329265
    vertex 1455.8527720782924 1236.3991108868815 29.82793089022226
    vertex 1413.8527720782906 1236.3991108868815 29.82793089022226
  endloop
endfacet
facet normal -2.7213458129025155e-29 0.4954586684323771 0.8686315144382086
  outer loop
    vertex 1455.8527720782924 1238.910815171459 32.36607636795884
    vertex 1413.8527720782906 1239.1984988257555 32.20198450861648
    vertex 1413.8527720782906 1238.910815171459 32.36607636795884
  endloop
endfacet
facet normal -2.7213458129025155e-29 0.4954586684323771 0.8686315144382086
  outer loop
    vertex 1413.8527720782906 1239.1984988257555 32.20198450861648
    vertex 1455.8527720782924 1238.910815171459 32.36607636795884
    vertex 1455.8527720782924 1239.1984988257555 32.20198450861648
  endloop
endfacet
facet normal 2.9495440615603007e-29 -0.33709525842302723 -0.9414705448120575
  outer loop
    vertex 1455.8527720782924 1237.634727636526 28.802102100383806
    vertex 1413.8527720782906 1237.322920291015 28.913745293357188
    vertex 1413.8527720782906 1237.634727636526 28.802102100383806
  endloop
endfacet
facet normal 2.9495440615603007e-29 -0.33709525842302723 -0.9414705448120575
  outer loop
    vertex 1413.8527720782906 1237.322920291015 28.913745293357188
    vertex 1455.8527720782924 1237.634727636526 28.802102100383806
    vertex 1455.8527720782924 1237.322920291015 28.913745293357188
  endloop
endfacet
facet normal 3.088121906448841e-29 -0.16848937956496557 -0.9857034690888599
  outer loop
    vertex 1455.8527720782924 1237.96118456484 28.746299795703717
    vertex 1413.8527720782906 1237.634727636526 28.802102100383806
    vertex 1413.8527720782906 1237.96118456484 28.746299795703717
  endloop
endfacet
facet normal 3.088121906448841e-29 -0.16848937956496557 -0.9857034690888599
  outer loop
    vertex 1413.8527720782906 1237.634727636526 28.802102100383806
    vertex 1455.8527720782924 1237.96118456484 28.746299795703717
    vertex 1455.8527720782924 1237.634727636526 28.802102100383806
  endloop
endfacet
facet normal 3.082424922252068e-29 0.17880221511636385 -0.9838850379335392
  outer loop
    vertex 1455.8527720782924 1238.6182265261714 28.807251735588206
    vertex 1413.8527720782906 1238.2923718473853 28.7480339041073
    vertex 1413.8527720782906 1238.6182265261714 28.807251735588206
  endloop
endfacet
facet normal 3.082424922252068e-29 0.17880221511636385 -0.9838850379335392
  outer loop
    vertex 1413.8527720782906 1238.2923718473853 28.7480339041073
    vertex 1455.8527720782924 1238.6182265261714 28.807251735588206
    vertex 1455.8527720782924 1238.2923718473853 28.7480339041073
  endloop
endfacet
facet normal -1.056089670717953e-29 -0.9414705448121293 0.3370952584228267
  outer loop
    vertex 1455.8527720782924 1236.390702193936 31.43385827087998
    vertex 1413.8527720782906 1236.279059000963 31.122050925369056
    vertex 1455.8527720782924 1236.279059000963 31.122050925369056
  endloop
endfacet
facet normal -1.056089670717953e-29 -0.9414705448121293 0.3370952584228267
  outer loop
    vertex 1413.8527720782906 1236.279059000963 31.122050925369056
    vertex 1455.8527720782924 1236.390702193936 31.43385827087998
    vertex 1413.8527720782906 1236.390702193936 31.43385827087998
  endloop
endfacet
facet normal 2.410460848787121e-29 -0.6387678175155772 -0.769399555046912
  outer loop
    vertex 1455.8527720782924 1237.0352366367185 29.077837152699544
    vertex 1413.8527720782906 1236.7804177958972 29.28939183029925
    vertex 1413.8527720782906 1237.0352366367185 29.077837152699544
  endloop
endfacet
facet normal 2.410460848787121e-29 -0.6387678175155772 -0.769399555046912
  outer loop
    vertex 1413.8527720782906 1236.7804177958972 29.28939183029925
    vertex 1455.8527720782924 1237.0352366367185 29.077837152699544
    vertex 1455.8527720782924 1236.7804177958972 29.28939183029925
  endloop
endfacet
facet normal 2.9383231931486343e-29 0.3469356515733591 -0.9378889346118595
  outer loop
    vertex 1455.8527720782924 1238.9288476716729 28.922153986302558
    vertex 1413.8527720782906 1238.6182265261714 28.807251735588206
    vertex 1413.8527720782906 1238.9288476716729 28.922153986302558
  endloop
endfacet
facet normal 2.9383231931486343e-29 0.3469356515733591 -0.9378889346118595
  outer loop
    vertex 1413.8527720782906 1238.6182265261714 28.807251735588206
    vertex 1455.8527720782924 1238.9288476716729 28.922153986302558
    vertex 1455.8527720782924 1238.6182265261714 28.807251735588206
  endloop
endfacet
facet normal 2.7049420006847615e-29 0.5045276238150866 -0.8633955506067325
  outer loop
    vertex 1455.8527720782924 1239.2147972175658 29.08924940950575
    vertex 1413.8527720782906 1238.9288476716729 28.922153986302558
    vertex 1413.8527720782906 1239.2147972175658 29.08924940950575
  endloop
endfacet
facet normal 2.7049420006847615e-29 0.5045276238150866 -0.8633955506067325
  outer loop
    vertex 1413.8527720782906 1238.9288476716729 28.922153986302558
    vertex 1455.8527720782924 1239.2147972175658 29.08924940950575
    vertex 1455.8527720782924 1238.9288476716729 28.922153986302558
  endloop
endfacet
facet normal 2.3893725142968715e-29 0.6467897795104713 -0.7626683296956784
  outer loop
    vertex 1455.8527720782924 1239.4673867315955 29.303460895318107
    vertex 1413.8527720782906 1239.2147972175658 29.08924940950575
    vertex 1413.8527720782906 1239.4673867315955 29.303460895318107
  endloop
endfacet
facet normal 2.3893725142968715e-29 0.6467897795104713 -0.7626683296956784
  outer loop
    vertex 1413.8527720782906 1239.2147972175658 29.08924940950575
    vertex 1455.8527720782924 1239.4673867315955 29.303460895318107
    vertex 1455.8527720782924 1239.2147972175658 29.08924940950575
  endloop
endfacet
facet normal 2.00120315314266e-29 0.7693995550469427 -0.6387678175155403
  outer loop
    vertex 1413.8527720782906 1239.6789414091954 29.55827973613948
    vertex 1455.8527720782924 1239.4673867315955 29.303460895318107
    vertex 1413.8527720782906 1239.4673867315955 29.303460895318107
  endloop
endfacet
facet normal 2.00120315314266e-29 0.7693995550469427 -0.6387678175155403
  outer loop
    vertex 1455.8527720782924 1239.4673867315955 29.303460895318107
    vertex 1413.8527720782906 1239.6789414091954 29.55827973613948
    vertex 1455.8527720782924 1239.6789414091954 29.55827973613948
  endloop
endfacet
facet normal 1.05608967071797e-29 0.9414705448121274 -0.33709525842283217
  outer loop
    vertex 1413.8527720782906 1239.954676461511 30.157770735946965
    vertex 1455.8527720782924 1239.843033268538 29.845963390436047
    vertex 1413.8527720782906 1239.843033268538 29.845963390436047
  endloop
endfacet
facet normal 1.05608967071797e-29 0.9414705448121274 -0.33709525842283217
  outer loop
    vertex 1455.8527720782924 1239.843033268538 29.845963390436047
    vertex 1413.8527720782906 1239.954676461511 30.157770735946965
    vertex 1455.8527720782924 1239.954676461511 30.157770735946965
  endloop
endfacet
facet normal -1.0 3.415622322868272e-43 -3.132911675053115e-29
  outer loop
    vertex 1413.8527720782906 1236.279059000963 31.122050925369056
    vertex 1413.8527720782906 1236.224990804686 30.46440671450945
    vertex 1413.8527720782906 1236.2232566962828 30.795593997055
  endloop
endfacet
facet normal -1.0 3.415622322868272e-43 -3.132911675053115e-29
  outer loop
    vertex 1413.8527720782906 1236.224990804686 30.46440671450945
    vertex 1413.8527720782906 1236.279059000963 31.122050925369056
    vertex 1413.8527720782906 1236.2842086361673 30.138552035723713
  endloop
endfacet
facet normal -1.0 3.415622322868272e-43 -3.132911675053115e-29
  outer loop
    vertex 1413.8527720782906 1236.2842086361673 30.138552035723713
    vertex 1413.8527720782906 1236.279059000963 31.122050925369056
    vertex 1413.8527720782906 1236.390702193936 31.43385827087998
  endloop
endfacet
facet normal -1.0 3.415622322868272e-43 -3.132911675053115e-29
  outer loop
    vertex 1413.8527720782906 1236.2842086361673 30.138552035723713
    vertex 1413.8527720782906 1236.390702193936 31.43385827087998
    vertex 1413.8527720782906 1236.3991108868815 29.82793089022226
  endloop
endfacet
facet normal -1.0 3.415622322868272e-43 -3.132911675053115e-29
  outer loop
    vertex 1413.8527720782906 1236.3991108868815 29.82793089022226
    vertex 1413.8527720782906 1236.390702193936 31.43385827087998
    vertex 1413.8527720782906 1236.5547940532786 31.72154192517655
  endloop
endfacet
facet normal -1.0 3.415622322868272e-43 -3.132911675053115e-29
  outer loop
    vertex 1413.8527720782906 1236.3991108868815 29.82793089022226
    vertex 1413.8527720782906 1236.5547940532786 31.72154192517655
    vertex 1413.8527720782906 1236.566206310085 29.541981344329265
  endloop
endfacet
facet normal -1.0 3.415622322868272e-43 -3.132911675053115e-29
  outer loop
    vertex 1413.8527720782906 1236.566206310085 29.541981344329265
    vertex 1413.8527720782906 1236.5547940532786 31.72154192517655
    vertex 1413.8527720782906 1236.7663487308782 31.97636076599792
  endloop
endfacet
facet normal -1.0 3.415622322868272e-43 -3.132911675053115e-29
  outer loop
    vertex 1413.8527720782906 1236.566206310085 29.541981344329265
    vertex 1413.8527720782906 1236.7663487308782 31.97636076599792
    vertex 1413.8527720782906 1236.7804177958972 29.28939183029925
  endloop
endfacet
facet normal -1.0 3.415622322868272e-43 -3.132911675053115e-29
  outer loop
    vertex 1413.8527720782906 1236.7804177958972 29.28939183029925
    vertex 1413.8527720782906 1236.7663487308782 31.97636076599792
    vertex 1413.8527720782906 1237.0189382449082 32.19057225181028
  endloop
endfacet
facet normal -1.0 3.415622322868272e-43 -3.132911675053115e-29
  outer loop
    vertex 1413.8527720782906 1236.7804177958972 29.28939183029925
    vertex 1413.8527720782906 1237.0189382449082 32.19057225181028
    vertex 1413.8527720782906 1237.0352366367185 29.077837152699544
  endloop
endfacet
facet normal -1.0 3.415622322868272e-43 -3.132911675053115e-29
  outer loop
    vertex 1413.8527720782906 1237.0352366367185 29.077837152699544
    vertex 1413.8527720782906 1237.0189382449082 32.19057225181028
    vertex 1413.8527720782906 1237.304887790801 32.357667675013474
  endloop
endfacet
facet normal -1.0 3.415622322868272e-43 -3.132911675053115e-29
  outer loop
    vertex 1413.8527720782906 1237.0352366367185 29.077837152699544
    vertex 1413.8527720782906 1237.304887790801 32.357667675013474
    vertex 1413.8527720782906 1237.322920291015 28.913745293357188
  endloop
endfacet
facet normal -1.0 3.415622322868272e-43 -3.132911675053115e-29
  outer loop
    vertex 1413.8527720782906 1237.322920291015 28.913745293357188
    vertex 1413.8527720782906 1237.304887790801 32.357667675013474
    vertex 1413.8527720782906 1237.6155089363026 32.472569925727825
  endloop
endfacet
facet normal -1.0 3.415622322868272e-43 -3.132911675053115e-29
  outer loop
    vertex 1413.8527720782906 1237.322920291015 28.913745293357188
    vertex 1413.8527720782906 1237.6155089363026 32.472569925727825
    vertex 1413.8527720782906 1237.634727636526 28.802102100383806
  endloop
endfacet
facet normal -1.0 3.415622322868272e-43 -3.132911675053115e-29
  outer loop
    vertex 1413.8527720782906 1237.634727636526 28.802102100383806
    vertex 1413.8527720782906 1237.6155089363026 32.472569925727825
    vertex 1413.8527720782906 1237.9413636150884 32.531787757208726
  endloop
endfacet
facet normal -1.0 3.415622322868272e-43 -3.132911675053115e-29
  outer loop
    vertex 1413.8527720782906 1237.634727636526 28.802102100383806
    vertex 1413.8527720782906 1237.9413636150884 32.531787757208726
    vertex 1413.8527720782906 1237.96118456484 28.746299795703717
  endloop
endfacet
facet normal -1.0 3.415622322868272e-43 -3.132911675053115e-29
  outer loop
    vertex 1413.8527720782906 1237.96118456484 28.746299795703717
    vertex 1413.8527720782906 1237.9413636150884 32.531787757208726
    vertex 1413.8527720782906 1238.272550897634 32.53352186561231
  endloop
endfacet
facet normal -1.0 3.415622322868272e-43 -3.132911675053115e-29
  outer loop
    vertex 1413.8527720782906 1237.96118456484 28.746299795703717
    vertex 1413.8527720782906 1238.272550897634 32.53352186561231
    vertex 1413.8527720782906 1238.2923718473853 28.7480339041073
  endloop
endfacet
facet normal -1.0 3.415622322868272e-43 -3.132911675053115e-29
  outer loop
    vertex 1413.8527720782906 1238.2923718473853 28.7480339041073
    vertex 1413.8527720782906 1238.272550897634 32.53352186561231
    vertex 1413.8527720782906 1238.599007825948 32.47771956093222
  endloop
endfacet
facet normal -1.0 3.415622322868272e-43 -3.132911675053115e-29
  outer loop
    vertex 1413.8527720782906 1238.2923718473853 28.7480339041073
    vertex 1413.8527720782906 1238.599007825948 32.47771956093222
    vertex 1413.8527720782906 1238.6182265261714 28.807251735588206
  endloop
endfacet
facet normal -1.0 3.415622322868272e-43 -3.132911675053115e-29
  outer loop
    vertex 1413.8527720782906 1238.6182265261714 28.807251735588206
    vertex 1413.8527720782906 1238.599007825948 32.47771956093222
    vertex 1413.8527720782906 1238.910815171459 32.36607636795884
  endloop
endfacet
facet normal -1.0 3.415622322868272e-43 -3.132911675053115e-29
  outer loop
    vertex 1413.8527720782906 1238.6182265261714 28.807251735588206
    vertex 1413.8527720782906 1238.910815171459 32.36607636795884
    vertex 1413.8527720782906 1238.9288476716729 28.922153986302558
  endloop
endfacet
facet normal -1.0 3.415622322868272e-43 -3.132911675053115e-29
  outer loop
    vertex 1413.8527720782906 1238.9288476716729 28.922153986302558
    vertex 1413.8527720782906 1238.910815171459 32.36607636795884
    vertex 1413.8527720782906 1239.1984988257555 32.20198450861648
  endloop
endfacet
facet normal -1.0 3.415622322868272e-43 -3.132911675053115e-29
  outer loop
    vertex 1413.8527720782906 1238.9288476716729 28.922153986302558
    vertex 1413.8527720782906 1239.1984988257555 32.20198450861648
    vertex 1413.8527720782906 1239.2147972175658 29.08924940950575
  endloop
endfacet
facet normal -1.0 3.415622322868272e-43 -3.132911675053115e-29
  outer loop
    vertex 1413.8527720782906 1239.2147972175658 29.08924940950575
    vertex 1413.8527720782906 1239.1984988257555 32.20198450861648
    vertex 1413.8527720782906 1239.4533176665768 31.990429831016773
  endloop
endfacet
facet normal -1.0 3.415622322868272e-43 -3.132911675053115e-29
  outer loop
    vertex 1413.8527720782906 1239.2147972175658 29.08924940950575
    vertex 1413.8527720782906 1239.4533176665768 31.990429831016773
    vertex 1413.8527720782906 1239.4673867315955 29.303460895318107
  endloop
endfacet
facet normal -1.0 3.415622322868272e-43 -3.132911675053115e-29
  outer loop
    vertex 1413.8527720782906 1239.4673867315955 29.303460895318107
    vertex 1413.8527720782906 1239.4533176665768 31.990429831016773
    vertex 1413.8527720782906 1239.667529152389 31.73784031698676
  endloop
endfacet
facet normal -1.0 3.415622322868272e-43 -3.132911675053115e-29
  outer loop
    vertex 1413.8527720782906 1239.4673867315955 29.303460895318107
    vertex 1413.8527720782906 1239.667529152389 31.73784031698676
    vertex 1413.8527720782906 1239.6789414091954 29.55827973613948
  endloop
endfacet
facet normal -1.0 3.415622322868272e-43 -3.132911675053115e-29
  outer loop
    vertex 1413.8527720782906 1239.6789414091954 29.55827973613948
    vertex 1413.8527720782906 1239.667529152389 31.73784031698676
    vertex 1413.8527720782906 1239.8346245755924 31.45189077109377
  endloop
endfacet
facet normal -1.0 3.415622322868272e-43 -3.132911675053115e-29
  outer loop
    vertex 1413.8527720782906 1239.6789414091954 29.55827973613948
    vertex 1413.8527720782906 1239.8346245755924 31.45189077109377
    vertex 1413.8527720782906 1239.843033268538 29.845963390436047
  endloop
endfacet
facet normal -1.0 3.415622322868272e-43 -3.132911675053115e-29
  outer loop
    vertex 1413.8527720782906 1239.843033268538 29.845963390436047
    vertex 1413.8527720782906 1239.8346245755924 31.45189077109377
    vertex 1413.8527720782906 1239.9495268263067 31.141269625592315
  endloop
endfacet
facet normal -1.0 3.415622322868272e-43 -3.132911675053115e-29
  outer loop
    vertex 1413.8527720782906 1239.843033268538 29.845963390436047
    vertex 1413.8527720782906 1239.9495268263067 31.141269625592315
    vertex 1413.8527720782906 1239.954676461511 30.157770735946965
  endloop
endfacet
facet normal -1.0 3.415622322868272e-43 -3.132911675053115e-29
  outer loop
    vertex 1413.8527720782906 1239.954676461511 30.157770735946965
    vertex 1413.8527720782906 1239.9495268263067 31.141269625592315
    vertex 1413.8527720782906 1240.0087446577877 30.815414946806573
  endloop
endfacet
facet normal -1.0 3.415622322868272e-43 -3.132911675053115e-29
  outer loop
    vertex 1413.8527720782906 1239.954676461511 30.157770735946965
    vertex 1413.8527720782906 1240.0087446577877 30.815414946806573
    vertex 1413.8527720782906 1240.0104787661912 30.484227664261024
  endloop
endfacet
facet normal 1.0 -3.415622322868272e-43 3.132911675053115e-29
  outer loop
    vertex 1455.8527720782924 1236.224990804686 30.46440671450945
    vertex 1455.8527720782924 1236.279059000963 31.122050925369056
    vertex 1455.8527720782924 1236.2232566962828 30.795593997055
  endloop
endfacet
facet normal 1.0 -3.415622322868272e-43 3.132911675053115e-29
  outer loop
    vertex 1455.8527720782924 1236.279059000963 31.122050925369056
    vertex 1455.8527720782924 1236.224990804686 30.46440671450945
    vertex 1455.8527720782924 1236.2842086361673 30.138552035723713
  endloop
endfacet
facet normal 1.0 -3.415622322868272e-43 3.132911675053115e-29
  outer loop
    vertex 1455.8527720782924 1236.279059000963 31.122050925369056
    vertex 1455.8527720782924 1236.2842086361673 30.138552035723713
    vertex 1455.8527720782924 1236.390702193936 31.43385827087998
  endloop
endfacet
facet normal 1.0 -3.415622322868272e-43 3.132911675053115e-29
  outer loop
    vertex 1455.8527720782924 1236.390702193936 31.43385827087998
    vertex 1455.8527720782924 1236.2842086361673 30.138552035723713
    vertex 1455.8527720782924 1236.3991108868815 29.82793089022226
  endloop
endfacet
facet normal 1.0 -3.415622322868272e-43 3.132911675053115e-29
  outer loop
    vertex 1455.8527720782924 1236.390702193936 31.43385827087998
    vertex 1455.8527720782924 1236.3991108868815 29.82793089022226
    vertex 1455.8527720782924 1236.5547940532786 31.72154192517655
  endloop
endfacet
facet normal 1.0 -3.415622322868272e-43 3.132911675053115e-29
  outer loop
    vertex 1455.8527720782924 1236.5547940532786 31.72154192517655
    vertex 1455.8527720782924 1236.3991108868815 29.82793089022226
    vertex 1455.8527720782924 1236.566206310085 29.541981344329265
  endloop
endfacet
facet normal 1.0 -3.415622322868272e-43 3.132911675053115e-29
  outer loop
    vertex 1455.8527720782924 1236.5547940532786 31.72154192517655
    vertex 1455.8527720782924 1236.566206310085 29.541981344329265
    vertex 1455.8527720782924 1236.7663487308782 31.97636076599792
  endloop
endfacet
facet normal 1.0 -3.415622322868272e-43 3.132911675053115e-29
  outer loop
    vertex 1455.8527720782924 1236.7663487308782 31.97636076599792
    vertex 1455.8527720782924 1236.566206310085 29.541981344329265
    vertex 1455.8527720782924 1236.7804177958972 29.28939183029925
  endloop
endfacet
facet normal 1.0 -3.415622322868272e-43 3.132911675053115e-29
  outer loop
    vertex 1455.8527720782924 1236.7663487308782 31.97636076599792
    vertex 1455.8527720782924 1236.7804177958972 29.28939183029925
    vertex 1455.8527720782924 1237.0189382449082 32.19057225181028
  endloop
endfacet
facet normal 1.0 -3.415622322868272e-43 3.132911675053115e-29
  outer loop
    vertex 1455.8527720782924 1237.0189382449082 32.19057225181028
    vertex 1455.8527720782924 1236.7804177958972 29.28939183029925
    vertex 1455.8527720782924 1237.0352366367185 29.077837152699544
  endloop
endfacet
facet normal 1.0 -3.415622322868272e-43 3.132911675053115e-29
  outer loop
    vertex 1455.8527720782924 1237.0189382449082 32.19057225181028
    vertex 1455.8527720782924 1237.0352366367185 29.077837152699544
    vertex 1455.8527720782924 1237.304887790801 32.357667675013474
  endloop
endfacet
facet normal 1.0 -3.415622322868272e-43 3.132911675053115e-29
  outer loop
    vertex 1455.8527720782924 1237.304887790801 32.357667675013474
    vertex 1455.8527720782924 1237.0352366367185 29.077837152699544
    vertex 1455.8527720782924 1237.322920291015 28.913745293357188
  endloop
endfacet
facet normal 1.0 -3.415622322868272e-43 3.132911675053115e-29
  outer loop
    vertex 1455.8527720782924 1237.304887790801 32.357667675013474
    vertex 1455.8527720782924 1237.322920291015 28.913745293357188
    vertex 1455.8527720782924 1237.6155089363026 32.472569925727825
  endloop
endfacet
facet normal 1.0 -3.415622322868272e-43 3.132911675053115e-29
  outer loop
    vertex 1455.8527720782924 1237.6155089363026 32.472569925727825
    vertex 1455.8527720782924 1237.322920291015 28.913745293357188
    vertex 1455.8527720782924 1237.634727636526 28.802102100383806
  endloop
endfacet
facet normal 1.0 -3.415622322868272e-43 3.132911675053115e-29
  outer loop
    vertex 1455.8527720782924 1237.6155089363026 32.472569925727825
    vertex 1455.8527720782924 1237.634727636526 28.802102100383806
    vertex 1455.8527720782924 1237.9413636150884 32.531787757208726
  endloop
endfacet
facet normal 1.0 -3.415622322868272e-43 3.132911675053115e-29
  outer loop
    vertex 1455.8527720782924 1237.9413636150884 32.531787757208726
    vertex 1455.8527720782924 1237.634727636526 28.802102100383806
    vertex 1455.8527720782924 1237.96118456484 28.746299795703717
  endloop
endfacet
facet normal 1.0 -3.415622322868272e-43 3.132911675053115e-29
  outer loop
    vertex 1455.8527720782924 1237.9413636150884 32.531787757208726
    vertex 1455.8527720782924 1237.96118456484 28.746299795703717
    vertex 1455.8527720782924 1238.272550897634 32.53352186561231
  endloop
endfacet
facet normal 1.0 -3.415622322868272e-43 3.132911675053115e-29
  outer loop
    vertex 1455.8527720782924 1238.272550897634 32.53352186561231
    vertex 1455.8527720782924 1237.96118456484 28.746299795703717
    vertex 1455.8527720782924 1238.2923718473853 28.7480339041073
  endloop
endfacet
facet normal 1.0 -3.415622322868272e-43 3.132911675053115e-29
  outer loop
    vertex 1455.8527720782924 1238.272550897634 32.53352186561231
    vertex 1455.8527720782924 1238.2923718473853 28.7480339041073
    vertex 1455.8527720782924 1238.599007825948 32.47771956093222
  endloop
endfacet
facet normal 1.0 -3.415622322868272e-43 3.132911675053115e-29
  outer loop
    vertex 1455.8527720782924 1238.599007825948 32.47771956093222
    vertex 1455.8527720782924 1238.2923718473853 28.7480339041073
    vertex 1455.8527720782924 1238.6182265261714 28.807251735588206
  endloop
endfacet
facet normal 1.0 -3.415622322868272e-43 3.132911675053115e-29
  outer loop
    vertex 1455.8527720782924 1238.599007825948 32.47771956093222
    vertex 1455.8527720782924 1238.6182265261714 28.807251735588206
    vertex 1455.8527720782924 1238.910815171459 32.36607636795884
  endloop
endfacet
facet normal 1.0 -3.415622322868272e-43 3.132911675053115e-29
  outer loop
    vertex 1455.8527720782924 1238.910815171459 32.36607636795884
    vertex 1455.8527720782924 1238.6182265261714 28.807251735588206
    vertex 1455.8527720782924 1238.9288476716729 28.922153986302558
  endloop
endfacet
facet normal 1.0 -3.415622322868272e-43 3.132911675053115e-29
  outer loop
    vertex 1455.8527720782924 1238.910815171459 32.36607636795884
    vertex 1455.8527720782924 1238.9288476716729 28.922153986302558
    vertex 1455.8527720782924 1239.1984988257555 32.20198450861648
  endloop
endfacet
facet normal 1.0 -3.415622322868272e-43 3.132911675053115e-29
  outer loop
    vertex 1455.8527720782924 1239.1984988257555 32.20198450861648
    vertex 1455.8527720782924 1238.9288476716729 28.922153986302558
    vertex 1455.8527720782924 1239.2147972175658 29.08924940950575
  endloop
endfacet
facet normal 1.0 -3.415622322868272e-43 3.132911675053115e-29
  outer loop
    vertex 1455.8527720782924 1239.1984988257555 32.20198450861648
    vertex 1455.8527720782924 1239.2147972175658 29.08924940950575
    vertex 1455.8527720782924 1239.4533176665768 31.990429831016773
  endloop
endfacet
facet normal 1.0 -3.415622322868272e-43 3.132911675053115e-29
  outer loop
    vertex 1455.8527720782924 1239.4533176665768 31.990429831016773
    vertex 1455.8527720782924 1239.2147972175658 29.08924940950575
    vertex 1455.8527720782924 1239.4673867315955 29.303460895318107
  endloop
endfacet
facet normal 1.0 -3.415622322868272e-43 3.132911675053115e-29
  outer loop
    vertex 1455.8527720782924 1239.4533176665768 31.990429831016773
    vertex 1455.8527720782924 1239.4673867315955 29.303460895318107
    vertex 1455.8527720782924 1239.667529152389 31.73784031698676
  endloop
endfacet
facet normal 1.0 -3.415622322868272e-43 3.132911675053115e-29
  outer loop
    vertex 1455.8527720782924 1239.667529152389 31.73784031698676
    vertex 1455.8527720782924 1239.4673867315955 29.303460895318107
    vertex 1455.8527720782924 1239.6789414091954 29.55827973613948
  endloop
endfacet
facet normal 1.0 -3.415622322868272e-43 3.132911675053115e-29
  outer loop
    vertex 1455.8527720782924 1239.667529152389 31.73784031698676
    vertex 1455.8527720782924 1239.6789414091954 29.55827973613948
    vertex 1455.8527720782924 1239.8346245755924 31.45189077109377
  endloop
endfacet
facet normal 1.0 -3.415622322868272e-43 3.132911675053115e-29
  outer loop
    vertex 1455.8527720782924 1239.8346245755924 31.45189077109377
    vertex 1455.8527720782924 1239.6789414091954 29.55827973613948
    vertex 1455.8527720782924 1239.843033268538 29.845963390436047
  endloop
endfacet
facet normal 1.0 -3.415622322868272e-43 3.132911675053115e-29
  outer loop
    vertex 1455.8527720782924 1239.8346245755924 31.45189077109377
    vertex 1455.8527720782924 1239.843033268538 29.845963390436047
    vertex 1455.8527720782924 1239.9495268263067 31.141269625592315
  endloop
endfacet
facet normal 1.0 -3.415622322868272e-43 3.132911675053115e-29
  outer loop
    vertex 1455.8527720782924 1239.9495268263067 31.141269625592315
    vertex 1455.8527720782924 1239.843033268538 29.845963390436047
    vertex 1455.8527720782924 1239.954676461511 30.157770735946965
  endloop
endfacet
facet normal 1.0 -3.415622322868272e-43 3.132911675053115e-29
  outer loop
    vertex 1455.8527720782924 1239.9495268263067 31.141269625592315
    vertex 1455.8527720782924 1239.954676461511 30.157770735946965
    vertex 1455.8527720782924 1240.0087446577877 30.815414946806573
  endloop
endfacet
facet normal 1.0 -3.415622322868272e-43 3.132911675053115e-29
  outer loop
    vertex 1455.8527720782924 1240.0087446577877 30.815414946806573
    vertex 1455.8527720782924 1239.954676461511 30.157770735946965
    vertex 1455.8527720782924 1240.0104787661912 30.484227664261024
  endloop
endfacet
facet normal 1.5522282468386116e-29 0.8686315144381144 -0.4954586684325424
  outer loop
    vertex 1413.8527720782906 1239.843033268538 29.845963390436047
    vertex 1455.8527720782924 1239.6789414091954 29.55827973613948
    vertex 1413.8527720782906 1239.6789414091954 29.55827973613948
  endloop
endfacet
facet normal 1.5522282468386116e-29 0.8686315144381144 -0.4954586684325424
  outer loop
    vertex 1455.8527720782924 1239.6789414091954 29.55827973613948
    vertex 1413.8527720782906 1239.843033268538 29.845963390436047
    vertex 1455.8527720782924 1239.843033268538 29.845963390436047
  endloop
endfacet
endsolid sumo
