solid sumo
facet normal 1.603935459340878e-30 -0.23344536385586073 -0.9723699203976874
  outer loop
    vertex 1452.6700720782922 1238.8894102171744 33.017552121395866
    vertex 1451.8700720782922 1238.5079538938376 33.1091316821458
    vertex 1451.8700720782922 1238.8894102171744 33.017552121395866
  endloop
endfacet
facet normal 1.603935459340878e-30 -0.23344536385586073 -0.9723699203976874
  outer loop
    vertex 1451.8700720782922 1238.5079538938376 33.1091316821458
    vertex 1452.6700720782922 1238.8894102171744 33.017552121395866
    vertex 1452.6700720782922 1238.5079538938376 33.1091316821458
  endloop
endfacet
facet normal -1.0 -6.870710271767136e-30 9.381216420874821e-46
  outer loop
    vertex 1451.8700720782922 1233.1784260282614 31.42208315585919
    vertex 1451.8700720782922 1233.1784260282614 29.857738505456837
    vertex 1451.8700720782922 1233.116867731237 30.639910830658014
  endloop
endfacet
facet normal -1.0 -6.870710271767136e-30 9.381216420874821e-46
  outer loop
    vertex 1451.8700720782922 1233.1784260282614 29.857738505456837
    vertex 1451.8700720782922 1233.1784260282614 31.42208315585919
    vertex 1451.8700720782922 1233.3615851497614 32.184995802532775
  endloop
endfacet
facet normal -1.0 -6.870710271767136e-30 9.381216420874821e-46
  outer loop
    vertex 1451.8700720782922 1233.1784260282614 29.857738505456837
    vertex 1451.8700720782922 1233.3615851497614 32.184995802532775
    vertex 1451.8700720782922 1233.3615851497614 29.09482585878325
  endloop
endfacet
facet normal -1.0 -6.870710271767136e-30 9.381216420874821e-46
  outer loop
    vertex 1451.8700720782922 1233.3615851497614 29.09482585878325
    vertex 1451.8700720782922 1233.3615851497614 32.184995802532775
    vertex 1451.8700720782922 1233.6618351102952 28.369958331960294
  endloop
endfacet
facet normal -1.0 -6.870710271767136e-30 9.381216420874821e-46
  outer loop
    vertex 1451.8700720782922 1233.6618351102952 28.369958331960294
    vertex 1451.8700720782922 1233.3615851497614 32.184995802532775
    vertex 1451.8700720782922 1233.6618351102952 32.90986332935573
  endloop
endfacet
facet normal -1.0 -6.870710271767136e-30 9.381216420874821e-46
  outer loop
    vertex 1451.8700720782922 1233.6618351102952 28.369958331960294
    vertex 1451.8700720782922 1233.6618351102952 32.90986332935573
    vertex 1451.8700720782922 1234.0717827593623 27.70098456919563
  endloop
endfacet
facet normal -1.0 -6.870710271767136e-30 9.381216420874821e-46
  outer loop
    vertex 1451.8700720782922 1234.0717827593623 27.70098456919563
    vertex 1451.8700720782922 1233.6618351102952 32.90986332935573
    vertex 1451.8700720782922 1234.0717827593623 33.578837092120395
  endloop
endfacet
facet normal -1.0 -6.870710271767136e-30 9.381216420874821e-46
  outer loop
    vertex 1451.8700720782922 1234.0717827593623 27.70098456919563
    vertex 1451.8700720782922 1234.0717827593623 33.578837092120395
    vertex 1451.8700720782922 1234.5813338253045 34.175444736590805
  endloop
endfacet
facet normal -1.0 -6.870710271767136e-30 9.381216420874821e-46
  outer loop
    vertex 1451.8700720782922 1234.0717827593623 27.70098456919563
    vertex 1451.8700720782922 1234.5813338253045 34.175444736590805
    vertex 1451.8700720782922 1234.5813338253045 27.104376924725223
  endloop
endfacet
facet normal -1.0 -6.870710271767136e-30 9.381216420874821e-46
  outer loop
    vertex 1451.8700720782922 1234.5813338253045 27.104376924725223
    vertex 1451.8700720782922 1234.5813338253045 34.175444736590805
    vertex 1451.8700720782922 1235.1779414697746 34.684995802532754
  endloop
endfacet
facet normal -1.0 -6.870710271767136e-30 9.381216420874821e-46
  outer loop
    vertex 1451.8700720782922 1234.5813338253045 27.104376924725223
    vertex 1451.8700720782922 1235.1779414697746 34.684995802532754
    vertex 1451.8700720782922 1235.1779414697746 26.594825858783278
  endloop
endfacet
facet normal -1.0 -6.870710271767136e-30 9.381216420874821e-46
  outer loop
    vertex 1451.8700720782922 1235.1779414697746 26.594825858783278
    vertex 1451.8700720782922 1235.1779414697746 34.684995802532754
    vertex 1451.8700720782922 1235.8469152325392 35.094943451599875
  endloop
endfacet
facet normal -1.0 -6.870710271767136e-30 9.381216420874821e-46
  outer loop
    vertex 1451.8700720782922 1235.1779414697746 26.594825858783278
    vertex 1451.8700720782922 1235.8469152325392 35.094943451599875
    vertex 1451.8700720782922 1235.616867731237 30.639910830658014
  endloop
endfacet
facet normal -1.0 -6.870710271767136e-30 9.381216420874821e-46
  outer loop
    vertex 1451.8700720782922 1235.616867731237 30.639910830658014
    vertex 1451.8700720782922 1235.8469152325392 35.094943451599875
    vertex 1451.8700720782922 1235.6476468797491 31.0309969932586
  endloop
endfacet
facet normal -1.0 -6.870710271767136e-30 9.381216420874821e-46
  outer loop
    vertex 1451.8700720782922 1235.6476468797491 31.0309969932586
    vertex 1451.8700720782922 1235.8469152325392 35.094943451599875
    vertex 1451.8700720782922 1235.7392264404991 31.412453316595396
  endloop
endfacet
facet normal -1.0 -6.870710271767136e-30 9.381216420874821e-46
  outer loop
    vertex 1451.8700720782922 1235.7392264404991 31.412453316595396
    vertex 1451.8700720782922 1235.8469152325392 35.094943451599875
    vertex 1451.8700720782922 1235.8893514207662 31.774887080006874
  endloop
endfacet
facet normal -1.0 -6.870710271767136e-30 9.381216420874821e-46
  outer loop
    vertex 1451.8700720782922 1235.8893514207662 31.774887080006874
    vertex 1451.8700720782922 1235.8469152325392 35.094943451599875
    vertex 1451.8700720782922 1236.5717827593623 35.39519341213381
  endloop
endfacet
facet normal -1.0 -6.870710271767136e-30 9.381216420874821e-46
  outer loop
    vertex 1451.8700720782922 1235.8893514207662 31.774887080006874
    vertex 1451.8700720782922 1236.5717827593623 35.39519341213381
    vertex 1451.8700720782922 1236.0943252452998 32.1093739613892
  endloop
endfacet
facet normal -1.0 -6.870710271767136e-30 9.381216420874821e-46
  outer loop
    vertex 1451.8700720782922 1236.0943252452998 32.1093739613892
    vertex 1451.8700720782922 1236.5717827593623 35.39519341213381
    vertex 1451.8700720782922 1236.3491007782707 32.40767778362432
  endloop
endfacet
facet normal -1.0 -6.870710271767136e-30 9.381216420874821e-46
  outer loop
    vertex 1451.8700720782922 1236.3491007782707 32.40767778362432
    vertex 1451.8700720782922 1236.5717827593623 35.39519341213381
    vertex 1451.8700720782922 1236.647404600506 32.66245331659538
  endloop
endfacet
facet normal -1.0 -6.870710271767136e-30 9.381216420874821e-46
  outer loop
    vertex 1451.8700720782922 1236.647404600506 32.66245331659538
    vertex 1451.8700720782922 1236.5717827593623 35.39519341213381
    vertex 1451.8700720782922 1237.334695406036 35.578352533633776
  endloop
endfacet
facet normal -1.0 -6.870710271767136e-30 9.381216420874821e-46
  outer loop
    vertex 1451.8700720782922 1236.647404600506 32.66245331659538
    vertex 1451.8700720782922 1237.334695406036 35.578352533633776
    vertex 1451.8700720782922 1236.9818914818882 32.86742714112894
  endloop
endfacet
facet normal -1.0 -6.870710271767136e-30 9.381216420874821e-46
  outer loop
    vertex 1451.8700720782922 1236.9818914818882 32.86742714112894
    vertex 1451.8700720782922 1237.334695406036 35.578352533633776
    vertex 1451.8700720782922 1237.3443252452996 33.017552121395866
  endloop
endfacet
facet normal -1.0 -6.870710271767136e-30 9.381216420874821e-46
  outer loop
    vertex 1451.8700720782922 1237.3443252452996 33.017552121395866
    vertex 1451.8700720782922 1237.334695406036 35.578352533633776
    vertex 1451.8700720782922 1238.1168677312369 35.63991083065805
  endloop
endfacet
facet normal -1.0 -6.870710271767136e-30 9.381216420874821e-46
  outer loop
    vertex 1451.8700720782922 1237.3443252452996 33.017552121395866
    vertex 1451.8700720782922 1238.1168677312369 35.63991083065805
    vertex 1451.8700720782922 1237.7257815686366 33.1091316821458
  endloop
endfacet
facet normal -1.0 -6.870710271767136e-30 9.381216420874821e-46
  outer loop
    vertex 1451.8700720782922 1237.7257815686366 33.1091316821458
    vertex 1451.8700720782922 1238.1168677312369 35.63991083065805
    vertex 1451.8700720782922 1238.1168677312369 33.13991083065799
  endloop
endfacet
facet normal -1.0 -6.870710271767136e-30 9.381216420874821e-46
  outer loop
    vertex 1451.8700720782922 1238.1168677312369 33.13991083065799
    vertex 1451.8700720782922 1238.1168677312369 35.63991083065805
    vertex 1451.8700720782922 1238.8990400564383 35.578352533633776
  endloop
endfacet
facet normal -1.0 -6.870710271767136e-30 9.381216420874821e-46
  outer loop
    vertex 1451.8700720782922 1238.1168677312369 33.13991083065799
    vertex 1451.8700720782922 1238.8990400564383 35.578352533633776
    vertex 1451.8700720782922 1238.5079538938376 33.1091316821458
  endloop
endfacet
facet normal -1.0 -6.870710271767136e-30 9.381216420874821e-46
  outer loop
    vertex 1451.8700720782922 1238.5079538938376 33.1091316821458
    vertex 1451.8700720782922 1238.8990400564383 35.578352533633776
    vertex 1451.8700720782922 1238.8894102171744 33.017552121395866
  endloop
endfacet
facet normal -1.0 -6.870710271767136e-30 9.381216420874821e-46
  outer loop
    vertex 1451.8700720782922 1238.8894102171744 33.017552121395866
    vertex 1451.8700720782922 1238.8990400564383 35.578352533633776
    vertex 1451.8700720782922 1239.2518439805858 32.86742714112894
  endloop
endfacet
facet normal -1.0 -6.870710271767136e-30 9.381216420874821e-46
  outer loop
    vertex 1451.8700720782922 1239.2518439805858 32.86742714112894
    vertex 1451.8700720782922 1238.8990400564383 35.578352533633776
    vertex 1451.8700720782922 1239.6619527031116 35.39519341213381
  endloop
endfacet
facet normal -1.0 -6.870710271767136e-30 9.381216420874821e-46
  outer loop
    vertex 1451.8700720782922 1239.2518439805858 32.86742714112894
    vertex 1451.8700720782922 1239.6619527031116 35.39519341213381
    vertex 1451.8700720782922 1239.5863308619682 32.66245331659538
  endloop
endfacet
facet normal -1.0 -6.870710271767136e-30 9.381216420874821e-46
  outer loop
    vertex 1451.8700720782922 1239.5863308619682 32.66245331659538
    vertex 1451.8700720782922 1239.6619527031116 35.39519341213381
    vertex 1451.8700720782922 1239.8846346842033 32.40767778362432
  endloop
endfacet
facet normal -1.0 -6.870710271767136e-30 9.381216420874821e-46
  outer loop
    vertex 1451.8700720782922 1239.8846346842033 32.40767778362432
    vertex 1451.8700720782922 1239.6619527031116 35.39519341213381
    vertex 1451.8700720782922 1240.386820229935 35.094943451599875
  endloop
endfacet
facet normal -1.0 -6.870710271767136e-30 9.381216420874821e-46
  outer loop
    vertex 1451.8700720782922 1239.8846346842033 32.40767778362432
    vertex 1451.8700720782922 1240.386820229935 35.094943451599875
    vertex 1451.8700720782922 1240.1394102171744 32.1093739613892
  endloop
endfacet
facet normal -1.0 -6.870710271767136e-30 9.381216420874821e-46
  outer loop
    vertex 1451.8700720782922 1240.1394102171744 32.1093739613892
    vertex 1451.8700720782922 1240.386820229935 35.094943451599875
    vertex 1451.8700720782922 1240.3443840417078 31.774887080006874
  endloop
endfacet
facet normal -1.0 -6.870710271767136e-30 9.381216420874821e-46
  outer loop
    vertex 1451.8700720782922 1240.3443840417078 31.774887080006874
    vertex 1451.8700720782922 1240.386820229935 35.094943451599875
    vertex 1451.8700720782922 1240.494509021975 31.412453316595396
  endloop
endfacet
facet normal -1.0 -6.870710271767136e-30 9.381216420874821e-46
  outer loop
    vertex 1451.8700720782922 1240.494509021975 31.412453316595396
    vertex 1451.8700720782922 1240.386820229935 35.094943451599875
    vertex 1451.8700720782922 1241.0557939926996 34.684995802532754
  endloop
endfacet
facet normal -1.0 -6.870710271767136e-30 9.381216420874821e-46
  outer loop
    vertex 1451.8700720782922 1240.494509021975 31.412453316595396
    vertex 1451.8700720782922 1241.0557939926996 34.684995802532754
    vertex 1451.8700720782922 1240.5860885827249 31.0309969932586
  endloop
endfacet
facet normal -1.0 -6.870710271767136e-30 9.381216420874821e-46
  outer loop
    vertex 1451.8700720782922 1240.5860885827249 31.0309969932586
    vertex 1451.8700720782922 1241.0557939926996 34.684995802532754
    vertex 1451.8700720782922 1240.616867731237 30.639910830658014
  endloop
endfacet
facet normal -1.0 -6.870710271767136e-30 9.381216420874821e-46
  outer loop
    vertex 1451.8700720782922 1235.616867731237 30.639910830658014
    vertex 1451.8700720782922 1235.8469152325392 26.18487820971615
    vertex 1451.8700720782922 1235.1779414697746 26.594825858783278
  endloop
endfacet
facet normal -1.0 -6.870710271767136e-30 9.381216420874821e-46
  outer loop
    vertex 1451.8700720782922 1235.8469152325392 26.18487820971615
    vertex 1451.8700720782922 1235.616867731237 30.639910830658014
    vertex 1451.8700720782922 1235.6476468797491 30.248824668057427
  endloop
endfacet
facet normal -1.0 -6.870710271767136e-30 9.381216420874821e-46
  outer loop
    vertex 1451.8700720782922 1235.8469152325392 26.18487820971615
    vertex 1451.8700720782922 1235.6476468797491 30.248824668057427
    vertex 1451.8700720782922 1235.7392264404991 29.86736834472063
  endloop
endfacet
facet normal -1.0 -6.870710271767136e-30 9.381216420874821e-46
  outer loop
    vertex 1451.8700720782922 1235.8469152325392 26.18487820971615
    vertex 1451.8700720782922 1235.7392264404991 29.86736834472063
    vertex 1451.8700720782922 1235.8893514207662 29.504934581309154
  endloop
endfacet
facet normal -1.0 -6.870710271767136e-30 9.381216420874821e-46
  outer loop
    vertex 1451.8700720782922 1235.8469152325392 26.18487820971615
    vertex 1451.8700720782922 1235.8893514207662 29.504934581309154
    vertex 1451.8700720782922 1236.5717827593623 25.884628249182224
  endloop
endfacet
facet normal -1.0 -6.870710271767136e-30 9.381216420874821e-46
  outer loop
    vertex 1451.8700720782922 1236.5717827593623 25.884628249182224
    vertex 1451.8700720782922 1235.8893514207662 29.504934581309154
    vertex 1451.8700720782922 1236.0943252452998 29.17044769992682
  endloop
endfacet
facet normal -1.0 -6.870710271767136e-30 9.381216420874821e-46
  outer loop
    vertex 1451.8700720782922 1236.5717827593623 25.884628249182224
    vertex 1451.8700720782922 1236.0943252452998 29.17044769992682
    vertex 1451.8700720782922 1236.3491007782707 28.87214387769171
  endloop
endfacet
facet normal -1.0 -6.870710271767136e-30 9.381216420874821e-46
  outer loop
    vertex 1451.8700720782922 1236.5717827593623 25.884628249182224
    vertex 1451.8700720782922 1236.3491007782707 28.87214387769171
    vertex 1451.8700720782922 1236.647404600506 28.617368344720646
  endloop
endfacet
facet normal -1.0 -6.870710271767136e-30 9.381216420874821e-46
  outer loop
    vertex 1451.8700720782922 1236.5717827593623 25.884628249182224
    vertex 1451.8700720782922 1236.647404600506 28.617368344720646
    vertex 1451.8700720782922 1237.334695406036 25.701469127682252
  endloop
endfacet
facet normal -1.0 -6.870710271767136e-30 9.381216420874821e-46
  outer loop
    vertex 1451.8700720782922 1237.334695406036 25.701469127682252
    vertex 1451.8700720782922 1236.647404600506 28.617368344720646
    vertex 1451.8700720782922 1236.9818914818882 28.412394520187082
  endloop
endfacet
facet normal -1.0 -6.870710271767136e-30 9.381216420874821e-46
  outer loop
    vertex 1451.8700720782922 1237.334695406036 25.701469127682252
    vertex 1451.8700720782922 1236.9818914818882 28.412394520187082
    vertex 1451.8700720782922 1237.3443252452996 28.262269539920165
  endloop
endfacet
facet normal -1.0 -6.870710271767136e-30 9.381216420874821e-46
  outer loop
    vertex 1451.8700720782922 1237.334695406036 25.701469127682252
    vertex 1451.8700720782922 1237.3443252452996 28.262269539920165
    vertex 1451.8700720782922 1238.1168677312369 25.63991083065798
  endloop
endfacet
facet normal -1.0 -6.870710271767136e-30 9.381216420874821e-46
  outer loop
    vertex 1451.8700720782922 1238.1168677312369 25.63991083065798
    vertex 1451.8700720782922 1237.3443252452996 28.262269539920165
    vertex 1451.8700720782922 1237.7257815686366 28.170689979170223
  endloop
endfacet
facet normal -1.0 -6.870710271767136e-30 9.381216420874821e-46
  outer loop
    vertex 1451.8700720782922 1238.1168677312369 25.63991083065798
    vertex 1451.8700720782922 1237.7257815686366 28.170689979170223
    vertex 1451.8700720782922 1238.1168677312369 28.139910830658042
  endloop
endfacet
facet normal -1.0 -6.870710271767136e-30 9.381216420874821e-46
  outer loop
    vertex 1451.8700720782922 1238.1168677312369 25.63991083065798
    vertex 1451.8700720782922 1238.1168677312369 28.139910830658042
    vertex 1451.8700720782922 1238.5079538938376 28.170689979170223
  endloop
endfacet
facet normal -1.0 -6.870710271767136e-30 9.381216420874821e-46
  outer loop
    vertex 1451.8700720782922 1238.1168677312369 25.63991083065798
    vertex 1451.8700720782922 1238.5079538938376 28.170689979170223
    vertex 1451.8700720782922 1238.8990400564383 25.701469127682252
  endloop
endfacet
facet normal -1.0 -6.870710271767136e-30 9.381216420874821e-46
  outer loop
    vertex 1451.8700720782922 1238.8990400564383 25.701469127682252
    vertex 1451.8700720782922 1238.5079538938376 28.170689979170223
    vertex 1451.8700720782922 1238.8894102171744 28.262269539920165
  endloop
endfacet
facet normal -1.0 -6.870710271767136e-30 9.381216420874821e-46
  outer loop
    vertex 1451.8700720782922 1238.8990400564383 25.701469127682252
    vertex 1451.8700720782922 1238.8894102171744 28.262269539920165
    vertex 1451.8700720782922 1239.2518439805858 28.412394520187082
  endloop
endfacet
facet normal -1.0 -6.870710271767136e-30 9.381216420874821e-46
  outer loop
    vertex 1451.8700720782922 1238.8990400564383 25.701469127682252
    vertex 1451.8700720782922 1239.2518439805858 28.412394520187082
    vertex 1451.8700720782922 1239.6619527031116 25.884628249182224
  endloop
endfacet
facet normal -1.0 -6.870710271767136e-30 9.381216420874821e-46
  outer loop
    vertex 1451.8700720782922 1239.6619527031116 25.884628249182224
    vertex 1451.8700720782922 1239.2518439805858 28.412394520187082
    vertex 1451.8700720782922 1239.5863308619682 28.617368344720646
  endloop
endfacet
facet normal -1.0 -6.870710271767136e-30 9.381216420874821e-46
  outer loop
    vertex 1451.8700720782922 1239.6619527031116 25.884628249182224
    vertex 1451.8700720782922 1239.5863308619682 28.617368344720646
    vertex 1451.8700720782922 1239.8846346842033 28.87214387769171
  endloop
endfacet
facet normal -1.0 -6.870710271767136e-30 9.381216420874821e-46
  outer loop
    vertex 1451.8700720782922 1239.6619527031116 25.884628249182224
    vertex 1451.8700720782922 1239.8846346842033 28.87214387769171
    vertex 1451.8700720782922 1240.386820229935 26.18487820971615
  endloop
endfacet
facet normal -1.0 -6.870710271767136e-30 9.381216420874821e-46
  outer loop
    vertex 1451.8700720782922 1240.386820229935 26.18487820971615
    vertex 1451.8700720782922 1239.8846346842033 28.87214387769171
    vertex 1451.8700720782922 1240.1394102171744 29.17044769992682
  endloop
endfacet
facet normal -1.0 -6.870710271767136e-30 9.381216420874821e-46
  outer loop
    vertex 1451.8700720782922 1240.386820229935 26.18487820971615
    vertex 1451.8700720782922 1240.1394102171744 29.17044769992682
    vertex 1451.8700720782922 1240.3443840417078 29.504934581309154
  endloop
endfacet
facet normal -1.0 -6.870710271767136e-30 9.381216420874821e-46
  outer loop
    vertex 1451.8700720782922 1240.386820229935 26.18487820971615
    vertex 1451.8700720782922 1240.3443840417078 29.504934581309154
    vertex 1451.8700720782922 1240.494509021975 29.86736834472063
  endloop
endfacet
facet normal -1.0 -6.870710271767136e-30 9.381216420874821e-46
  outer loop
    vertex 1451.8700720782922 1240.386820229935 26.18487820971615
    vertex 1451.8700720782922 1240.494509021975 29.86736834472063
    vertex 1451.8700720782922 1241.0557939926996 26.594825858783278
  endloop
endfacet
facet normal -1.0 -6.870710271767136e-30 9.381216420874821e-46
  outer loop
    vertex 1451.8700720782922 1241.0557939926996 26.594825858783278
    vertex 1451.8700720782922 1240.494509021975 29.86736834472063
    vertex 1451.8700720782922 1240.5860885827249 30.248824668057427
  endloop
endfacet
facet normal -1.0 -6.870710271767136e-30 9.381216420874821e-46
  outer loop
    vertex 1451.8700720782922 1241.0557939926996 26.594825858783278
    vertex 1451.8700720782922 1240.5860885827249 30.248824668057427
    vertex 1451.8700720782922 1240.616867731237 30.639910830658014
  endloop
endfacet
facet normal -1.0 -6.870710271767136e-30 9.381216420874821e-46
  outer loop
    vertex 1451.8700720782922 1241.0557939926996 26.594825858783278
    vertex 1451.8700720782922 1240.616867731237 30.639910830658014
    vertex 1451.8700720782922 1241.0557939926996 34.684995802532754
  endloop
endfacet
facet normal -1.0 -6.870710271767136e-30 9.381216420874821e-46
  outer loop
    vertex 1451.8700720782922 1241.0557939926996 26.594825858783278
    vertex 1451.8700720782922 1241.0557939926996 34.684995802532754
    vertex 1451.8700720782922 1241.6524016371698 34.175444736590805
  endloop
endfacet
facet normal -1.0 -6.870710271767136e-30 9.381216420874821e-46
  outer loop
    vertex 1451.8700720782922 1241.0557939926996 26.594825858783278
    vertex 1451.8700720782922 1241.6524016371698 34.175444736590805
    vertex 1451.8700720782922 1241.6524016371698 27.104376924725223
  endloop
endfacet
facet normal -1.0 -6.870710271767136e-30 9.381216420874821e-46
  outer loop
    vertex 1451.8700720782922 1241.6524016371698 27.104376924725223
    vertex 1451.8700720782922 1241.6524016371698 34.175444736590805
    vertex 1451.8700720782922 1242.1619527031119 33.578837092120395
  endloop
endfacet
facet normal -1.0 -6.870710271767136e-30 9.381216420874821e-46
  outer loop
    vertex 1451.8700720782922 1241.6524016371698 27.104376924725223
    vertex 1451.8700720782922 1242.1619527031119 33.578837092120395
    vertex 1451.8700720782922 1242.1619527031119 27.70098456919563
  endloop
endfacet
facet normal -1.0 -6.870710271767136e-30 9.381216420874821e-46
  outer loop
    vertex 1451.8700720782922 1242.1619527031119 27.70098456919563
    vertex 1451.8700720782922 1242.1619527031119 33.578837092120395
    vertex 1451.8700720782922 1242.571900352179 32.90986332935573
  endloop
endfacet
facet normal -1.0 -6.870710271767136e-30 9.381216420874821e-46
  outer loop
    vertex 1451.8700720782922 1242.1619527031119 27.70098456919563
    vertex 1451.8700720782922 1242.571900352179 32.90986332935573
    vertex 1451.8700720782922 1242.571900352179 28.369958331960294
  endloop
endfacet
facet normal -1.0 -6.870710271767136e-30 9.381216420874821e-46
  outer loop
    vertex 1451.8700720782922 1242.571900352179 28.369958331960294
    vertex 1451.8700720782922 1242.571900352179 32.90986332935573
    vertex 1451.8700720782922 1242.8721503127128 29.09482585878325
  endloop
endfacet
facet normal -1.0 -6.870710271767136e-30 9.381216420874821e-46
  outer loop
    vertex 1451.8700720782922 1242.8721503127128 29.09482585878325
    vertex 1451.8700720782922 1242.571900352179 32.90986332935573
    vertex 1451.8700720782922 1242.8721503127128 32.184995802532775
  endloop
endfacet
facet normal -1.0 -6.870710271767136e-30 9.381216420874821e-46
  outer loop
    vertex 1451.8700720782922 1242.8721503127128 29.09482585878325
    vertex 1451.8700720782922 1242.8721503127128 32.184995802532775
    vertex 1451.8700720782922 1243.0553094342126 31.42208315585919
  endloop
endfacet
facet normal -1.0 -6.870710271767136e-30 9.381216420874821e-46
  outer loop
    vertex 1451.8700720782922 1242.8721503127128 29.09482585878325
    vertex 1451.8700720782922 1243.0553094342126 31.42208315585919
    vertex 1451.8700720782922 1243.0553094342126 29.857738505456837
  endloop
endfacet
facet normal -1.0 -6.870710271767136e-30 9.381216420874821e-46
  outer loop
    vertex 1451.8700720782922 1243.0553094342126 29.857738505456837
    vertex 1451.8700720782922 1243.0553094342126 31.42208315585919
    vertex 1451.8700720782922 1243.116867731237 30.639910830658014
  endloop
endfacet
facet normal 2.629306989585262e-30 -0.38268343236499314 -0.9238795325113267
  outer loop
    vertex 1452.6700720782922 1239.2518439805858 32.86742714112894
    vertex 1451.8700720782922 1238.8894102171744 33.017552121395866
    vertex 1451.8700720782922 1239.2518439805858 32.86742714112894
  endloop
endfacet
facet normal 2.629306989585262e-30 -0.38268343236499314 -0.9238795325113267
  outer loop
    vertex 1451.8700720782922 1238.8894102171744 33.017552121395866
    vertex 1452.6700720782922 1239.2518439805858 32.86742714112894
    vertex 1452.6700720782922 1238.8894102171744 33.017552121395866
  endloop
endfacet
facet normal 3.589936255577628e-30 -0.522498564715974 -0.8526401643540769
  outer loop
    vertex 1452.6700720782922 1239.5863308619682 32.66245331659538
    vertex 1451.8700720782922 1239.2518439805858 32.86742714112894
    vertex 1451.8700720782922 1239.5863308619682 32.66245331659538
  endloop
endfacet
facet normal 3.589936255577628e-30 -0.522498564715974 -0.8526401643540769
  outer loop
    vertex 1451.8700720782922 1239.2518439805858 32.86742714112894
    vertex 1452.6700720782922 1239.5863308619682 32.66245331659538
    vertex 1452.6700720782922 1239.2518439805858 32.86742714112894
  endloop
endfacet
facet normal 4.462169376641973e-30 -0.6494480483302799 -0.7604059655999488
  outer loop
    vertex 1452.6700720782922 1239.8846346842033 32.40767778362432
    vertex 1451.8700720782922 1239.5863308619682 32.66245331659538
    vertex 1451.8700720782922 1239.8846346842033 32.40767778362432
  endloop
endfacet
facet normal 4.462169376641973e-30 -0.6494480483302799 -0.7604059655999488
  outer loop
    vertex 1451.8700720782922 1239.5863308619682 32.66245331659538
    vertex 1452.6700720782922 1239.8846346842033 32.40767778362432
    vertex 1452.6700720782922 1239.5863308619682 32.66245331659538
  endloop
endfacet
facet normal 6.34770859390067e-30 -0.9238795325112797 0.38268343236510655
  outer loop
    vertex 1452.6700720782922 1240.494509021975 29.86736834472063
    vertex 1451.8700720782922 1240.3443840417078 29.504934581309154
    vertex 1452.6700720782922 1240.3443840417078 29.504934581309154
  endloop
endfacet
facet normal 6.34770859390067e-30 -0.9238795325112797 0.38268343236510655
  outer loop
    vertex 1451.8700720782922 1240.3443840417078 29.504934581309154
    vertex 1452.6700720782922 1240.494509021975 29.86736834472063
    vertex 1451.8700720782922 1240.494509021975 29.86736834472063
  endloop
endfacet
facet normal 6.680872000033714e-30 -0.9723699203976772 0.23344536385590342
  outer loop
    vertex 1452.6700720782922 1240.5860885827249 30.248824668057427
    vertex 1451.8700720782922 1240.494509021975 29.86736834472063
    vertex 1452.6700720782922 1240.494509021975 29.86736834472063
  endloop
endfacet
facet normal 6.680872000033714e-30 -0.9723699203976772 0.23344536385590342
  outer loop
    vertex 1451.8700720782922 1240.494509021975 29.86736834472063
    vertex 1452.6700720782922 1240.5860885827249 30.248824668057427
    vertex 1451.8700720782922 1240.5860885827249 30.248824668057427
  endloop
endfacet
facet normal 4.462169376641974e-30 -0.6494480483302799 0.7604059655999488
  outer loop
    vertex 1452.6700720782922 1239.5863308619682 28.617368344720646
    vertex 1451.8700720782922 1239.8846346842033 28.87214387769171
    vertex 1451.8700720782922 1239.5863308619682 28.617368344720646
  endloop
endfacet
facet normal 4.462169376641974e-30 -0.6494480483302799 0.7604059655999488
  outer loop
    vertex 1451.8700720782922 1239.8846346842033 28.87214387769171
    vertex 1452.6700720782922 1239.5863308619682 28.617368344720646
    vertex 1452.6700720782922 1239.8846346842033 28.87214387769171
  endloop
endfacet
facet normal 2.6293069895852634e-30 -0.38268343236499314 0.9238795325113267
  outer loop
    vertex 1452.6700720782922 1238.8894102171744 28.262269539920165
    vertex 1451.8700720782922 1239.2518439805858 28.412394520187082
    vertex 1451.8700720782922 1238.8894102171744 28.262269539920165
  endloop
endfacet
facet normal 2.6293069895852634e-30 -0.38268343236499314 0.9238795325113267
  outer loop
    vertex 1451.8700720782922 1239.2518439805858 28.412394520187082
    vertex 1452.6700720782922 1238.8894102171744 28.262269539920165
    vertex 1452.6700720782922 1239.2518439805858 28.412394520187082
  endloop
endfacet
facet normal 5.390697149313378e-31 -0.07845909572791357 0.9969173337331226
  outer loop
    vertex 1452.6700720782922 1238.1168677312369 28.139910830658042
    vertex 1451.8700720782922 1238.5079538938376 28.170689979170223
    vertex 1451.8700720782922 1238.1168677312369 28.139910830658042
  endloop
endfacet
facet normal 5.390697149313378e-31 -0.07845909572791357 0.9969173337331226
  outer loop
    vertex 1451.8700720782922 1238.5079538938376 28.170689979170223
    vertex 1452.6700720782922 1238.1168677312369 28.139910830658042
    vertex 1452.6700720782922 1238.5079538938376 28.170689979170223
  endloop
endfacet
facet normal -5.224529078560639e-30 0.7604059655999581 0.6494480483302689
  outer loop
    vertex 1451.8700720782922 1236.0943252452998 29.17044769992682
    vertex 1452.6700720782922 1236.3491007782707 28.87214387769171
    vertex 1451.8700720782922 1236.3491007782707 28.87214387769171
  endloop
endfacet
facet normal -5.224529078560639e-30 0.7604059655999581 0.6494480483302689
  outer loop
    vertex 1452.6700720782922 1236.3491007782707 28.87214387769171
    vertex 1451.8700720782922 1236.0943252452998 29.17044769992682
    vertex 1452.6700720782922 1236.0943252452998 29.17044769992682
  endloop
endfacet
facet normal 3.5899362555776296e-30 -0.522498564715974 0.8526401643540769
  outer loop
    vertex 1452.6700720782922 1239.2518439805858 28.412394520187082
    vertex 1451.8700720782922 1239.5863308619682 28.617368344720646
    vertex 1451.8700720782922 1239.2518439805858 28.412394520187082
  endloop
endfacet
facet normal 3.5899362555776296e-30 -0.522498564715974 0.8526401643540769
  outer loop
    vertex 1451.8700720782922 1239.5863308619682 28.617368344720646
    vertex 1452.6700720782922 1239.2518439805858 28.412394520187082
    vertex 1452.6700720782922 1239.5863308619682 28.617368344720646
  endloop
endfacet
facet normal -6.347708593900669e-30 0.9238795325112797 0.38268343236510655
  outer loop
    vertex 1451.8700720782922 1235.7392264404991 29.86736834472063
    vertex 1452.6700720782922 1235.8893514207662 29.504934581309154
    vertex 1451.8700720782922 1235.8893514207662 29.504934581309154
  endloop
endfacet
facet normal -6.347708593900669e-30 0.9238795325112797 0.38268343236510655
  outer loop
    vertex 1452.6700720782922 1235.8893514207662 29.504934581309154
    vertex 1451.8700720782922 1235.7392264404991 29.86736834472063
    vertex 1452.6700720782922 1235.7392264404991 29.86736834472063
  endloop
endfacet
facet normal 5.224529078560641e-30 -0.7604059655999581 0.6494480483302689
  outer loop
    vertex 1452.6700720782922 1240.1394102171744 29.17044769992682
    vertex 1451.8700720782922 1239.8846346842033 28.87214387769171
    vertex 1452.6700720782922 1239.8846346842033 28.87214387769171
  endloop
endfacet
facet normal 5.224529078560641e-30 -0.7604059655999581 0.6494480483302689
  outer loop
    vertex 1451.8700720782922 1239.8846346842033 28.87214387769171
    vertex 1452.6700720782922 1240.1394102171744 29.17044769992682
    vertex 1451.8700720782922 1240.1394102171744 29.17044769992682
  endloop
endfacet
facet normal -3.589936255577628e-30 0.522498564715974 0.8526401643540769
  outer loop
    vertex 1452.6700720782922 1236.647404600506 28.617368344720646
    vertex 1451.8700720782922 1236.9818914818882 28.412394520187082
    vertex 1451.8700720782922 1236.647404600506 28.617368344720646
  endloop
endfacet
facet normal -3.589936255577628e-30 0.522498564715974 0.8526401643540769
  outer loop
    vertex 1451.8700720782922 1236.9818914818882 28.412394520187082
    vertex 1452.6700720782922 1236.647404600506 28.617368344720646
    vertex 1452.6700720782922 1236.9818914818882 28.412394520187082
  endloop
endfacet
facet normal -2.629306989585262e-30 0.38268343236499314 0.9238795325113267
  outer loop
    vertex 1452.6700720782922 1236.9818914818882 28.412394520187082
    vertex 1451.8700720782922 1237.3443252452996 28.262269539920165
    vertex 1451.8700720782922 1236.9818914818882 28.412394520187082
  endloop
endfacet
facet normal -2.629306989585262e-30 0.38268343236499314 0.9238795325113267
  outer loop
    vertex 1451.8700720782922 1237.3443252452996 28.262269539920165
    vertex 1452.6700720782922 1236.9818914818882 28.412394520187082
    vertex 1452.6700720782922 1237.3443252452996 28.262269539920165
  endloop
endfacet
facet normal 5.85824353534898e-30 -0.8526401643541066 0.5224985647159255
  outer loop
    vertex 1452.6700720782922 1240.3443840417078 29.504934581309154
    vertex 1451.8700720782922 1240.1394102171744 29.17044769992682
    vertex 1452.6700720782922 1240.1394102171744 29.17044769992682
  endloop
endfacet
facet normal 5.85824353534898e-30 -0.8526401643541066 0.5224985647159255
  outer loop
    vertex 1451.8700720782922 1240.1394102171744 29.17044769992682
    vertex 1452.6700720782922 1240.3443840417078 29.504934581309154
    vertex 1451.8700720782922 1240.3443840417078 29.504934581309154
  endloop
endfacet
facet normal -4.462169376641973e-30 0.6494480483302799 0.7604059655999488
  outer loop
    vertex 1452.6700720782922 1236.3491007782707 28.87214387769171
    vertex 1451.8700720782922 1236.647404600506 28.617368344720646
    vertex 1451.8700720782922 1236.3491007782707 28.87214387769171
  endloop
endfacet
facet normal -4.462169376641973e-30 0.6494480483302799 0.7604059655999488
  outer loop
    vertex 1451.8700720782922 1236.647404600506 28.617368344720646
    vertex 1452.6700720782922 1236.3491007782707 28.87214387769171
    vertex 1452.6700720782922 1236.647404600506 28.617368344720646
  endloop
endfacet
facet normal -6.680872000033714e-30 0.9723699203976772 -0.23344536385590342
  outer loop
    vertex 1451.8700720782922 1235.7392264404991 31.412453316595396
    vertex 1452.6700720782922 1235.6476468797491 31.0309969932586
    vertex 1451.8700720782922 1235.6476468797491 31.0309969932586
  endloop
endfacet
facet normal -6.680872000033714e-30 0.9723699203976772 -0.23344536385590342
  outer loop
    vertex 1452.6700720782922 1235.6476468797491 31.0309969932586
    vertex 1451.8700720782922 1235.7392264404991 31.412453316595396
    vertex 1452.6700720782922 1235.7392264404991 31.412453316595396
  endloop
endfacet
facet normal -6.849530164982912e-30 0.9969173337331284 0.07845909572783931
  outer loop
    vertex 1451.8700720782922 1235.616867731237 30.639910830658014
    vertex 1452.6700720782922 1235.6476468797491 30.248824668057427
    vertex 1451.8700720782922 1235.6476468797491 30.248824668057427
  endloop
endfacet
facet normal -6.849530164982912e-30 0.9969173337331284 0.07845909572783931
  outer loop
    vertex 1452.6700720782922 1235.6476468797491 30.248824668057427
    vertex 1451.8700720782922 1235.616867731237 30.639910830658014
    vertex 1452.6700720782922 1235.616867731237 30.639910830658014
  endloop
endfacet
facet normal 6.849530164982912e-30 -0.9969173337331284 0.07845909572783931
  outer loop
    vertex 1452.6700720782922 1240.616867731237 30.639910830658014
    vertex 1451.8700720782922 1240.5860885827249 30.248824668057427
    vertex 1452.6700720782922 1240.5860885827249 30.248824668057427
  endloop
endfacet
facet normal 6.849530164982912e-30 -0.9969173337331284 0.07845909572783931
  outer loop
    vertex 1451.8700720782922 1240.5860885827249 30.248824668057427
    vertex 1452.6700720782922 1240.616867731237 30.639910830658014
    vertex 1451.8700720782922 1240.616867731237 30.639910830658014
  endloop
endfacet
facet normal -5.390697149313397e-31 0.07845909572791412 0.9969173337331226
  outer loop
    vertex 1452.6700720782922 1237.7257815686366 28.170689979170223
    vertex 1451.8700720782922 1238.1168677312369 28.139910830658042
    vertex 1451.8700720782922 1237.7257815686366 28.170689979170223
  endloop
endfacet
facet normal -5.390697149313397e-31 0.07845909572791412 0.9969173337331226
  outer loop
    vertex 1451.8700720782922 1238.1168677312369 28.139910830658042
    vertex 1452.6700720782922 1237.7257815686366 28.170689979170223
    vertex 1452.6700720782922 1238.1168677312369 28.139910830658042
  endloop
endfacet
facet normal -1.6039354593408664e-30 0.2334453638558591 0.9723699203976879
  outer loop
    vertex 1452.6700720782922 1237.3443252452996 28.262269539920165
    vertex 1451.8700720782922 1237.7257815686366 28.170689979170223
    vertex 1451.8700720782922 1237.3443252452996 28.262269539920165
  endloop
endfacet
facet normal -1.6039354593408664e-30 0.2334453638558591 0.9723699203976879
  outer loop
    vertex 1451.8700720782922 1237.7257815686366 28.170689979170223
    vertex 1452.6700720782922 1237.3443252452996 28.262269539920165
    vertex 1452.6700720782922 1237.7257815686366 28.170689979170223
  endloop
endfacet
facet normal 6.849530164982912e-30 -0.9969173337331284 -0.07845909572783931
  outer loop
    vertex 1452.6700720782922 1240.5860885827249 31.0309969932586
    vertex 1451.8700720782922 1240.616867731237 30.639910830658014
    vertex 1452.6700720782922 1240.616867731237 30.639910830658014
  endloop
endfacet
facet normal 6.849530164982912e-30 -0.9969173337331284 -0.07845909572783931
  outer loop
    vertex 1451.8700720782922 1240.616867731237 30.639910830658014
    vertex 1452.6700720782922 1240.5860885827249 31.0309969932586
    vertex 1451.8700720782922 1240.5860885827249 31.0309969932586
  endloop
endfacet
facet normal 1.60393545934088e-30 -0.23344536385586073 0.9723699203976874
  outer loop
    vertex 1452.6700720782922 1238.5079538938376 28.170689979170223
    vertex 1451.8700720782922 1238.8894102171744 28.262269539920165
    vertex 1451.8700720782922 1238.5079538938376 28.170689979170223
  endloop
endfacet
facet normal 1.60393545934088e-30 -0.23344536385586073 0.9723699203976874
  outer loop
    vertex 1451.8700720782922 1238.8894102171744 28.262269539920165
    vertex 1452.6700720782922 1238.5079538938376 28.170689979170223
    vertex 1452.6700720782922 1238.8894102171744 28.262269539920165
  endloop
endfacet
facet normal -6.34770859390067e-30 0.9238795325112797 -0.38268343236510655
  outer loop
    vertex 1451.8700720782922 1235.8893514207662 31.774887080006874
    vertex 1452.6700720782922 1235.7392264404991 31.412453316595396
    vertex 1451.8700720782922 1235.7392264404991 31.412453316595396
  endloop
endfacet
facet normal -6.34770859390067e-30 0.9238795325112797 -0.38268343236510655
  outer loop
    vertex 1452.6700720782922 1235.7392264404991 31.412453316595396
    vertex 1451.8700720782922 1235.8893514207662 31.774887080006874
    vertex 1452.6700720782922 1235.8893514207662 31.774887080006874
  endloop
endfacet
facet normal -5.85824353534898e-30 0.8526401643541066 -0.5224985647159255
  outer loop
    vertex 1451.8700720782922 1236.0943252452998 32.1093739613892
    vertex 1452.6700720782922 1235.8893514207662 31.774887080006874
    vertex 1451.8700720782922 1235.8893514207662 31.774887080006874
  endloop
endfacet
facet normal -5.85824353534898e-30 0.8526401643541066 -0.5224985647159255
  outer loop
    vertex 1452.6700720782922 1235.8893514207662 31.774887080006874
    vertex 1451.8700720782922 1236.0943252452998 32.1093739613892
    vertex 1452.6700720782922 1236.0943252452998 32.1093739613892
  endloop
endfacet
facet normal -6.849530164982912e-30 0.9969173337331284 -0.07845909572783931
  outer loop
    vertex 1451.8700720782922 1235.6476468797491 31.0309969932586
    vertex 1452.6700720782922 1235.616867731237 30.639910830658014
    vertex 1451.8700720782922 1235.616867731237 30.639910830658014
  endloop
endfacet
facet normal -6.849530164982912e-30 0.9969173337331284 -0.07845909572783931
  outer loop
    vertex 1452.6700720782922 1235.616867731237 30.639910830658014
    vertex 1451.8700720782922 1235.6476468797491 31.0309969932586
    vertex 1452.6700720782922 1235.6476468797491 31.0309969932586
  endloop
endfacet
facet normal -5.224529078560641e-30 0.7604059655999581 -0.6494480483302689
  outer loop
    vertex 1451.8700720782922 1236.3491007782707 32.40767778362432
    vertex 1452.6700720782922 1236.0943252452998 32.1093739613892
    vertex 1451.8700720782922 1236.0943252452998 32.1093739613892
  endloop
endfacet
facet normal -5.224529078560641e-30 0.7604059655999581 -0.6494480483302689
  outer loop
    vertex 1452.6700720782922 1236.0943252452998 32.1093739613892
    vertex 1451.8700720782922 1236.3491007782707 32.40767778362432
    vertex 1452.6700720782922 1236.3491007782707 32.40767778362432
  endloop
endfacet
facet normal -4.462169376641974e-30 0.6494480483302799 -0.7604059655999488
  outer loop
    vertex 1452.6700720782922 1236.647404600506 32.66245331659538
    vertex 1451.8700720782922 1236.3491007782707 32.40767778362432
    vertex 1451.8700720782922 1236.647404600506 32.66245331659538
  endloop
endfacet
facet normal -4.462169376641974e-30 0.6494480483302799 -0.7604059655999488
  outer loop
    vertex 1451.8700720782922 1236.3491007782707 32.40767778362432
    vertex 1452.6700720782922 1236.647404600506 32.66245331659538
    vertex 1452.6700720782922 1236.3491007782707 32.40767778362432
  endloop
endfacet
facet normal -3.5899362555776514e-30 0.5224985647159772 -0.8526401643540749
  outer loop
    vertex 1452.6700720782922 1236.9818914818882 32.86742714112894
    vertex 1451.8700720782922 1236.647404600506 32.66245331659538
    vertex 1451.8700720782922 1236.9818914818882 32.86742714112894
  endloop
endfacet
facet normal -3.5899362555776514e-30 0.5224985647159772 -0.8526401643540749
  outer loop
    vertex 1451.8700720782922 1236.647404600506 32.66245331659538
    vertex 1452.6700720782922 1236.9818914818882 32.86742714112894
    vertex 1452.6700720782922 1236.647404600506 32.66245331659538
  endloop
endfacet
facet normal -2.6293069895852463e-30 0.38268343236499064 -0.9238795325113278
  outer loop
    vertex 1452.6700720782922 1237.3443252452996 33.017552121395866
    vertex 1451.8700720782922 1236.9818914818882 32.86742714112894
    vertex 1451.8700720782922 1237.3443252452996 33.017552121395866
  endloop
endfacet
facet normal -2.6293069895852463e-30 0.38268343236499064 -0.9238795325113278
  outer loop
    vertex 1451.8700720782922 1236.9818914818882 32.86742714112894
    vertex 1452.6700720782922 1237.3443252452996 33.017552121395866
    vertex 1452.6700720782922 1236.9818914818882 32.86742714112894
  endloop
endfacet
facet normal -5.390697149313378e-31 0.07845909572791357 -0.9969173337331226
  outer loop
    vertex 1452.6700720782922 1238.1168677312369 33.13991083065799
    vertex 1451.8700720782922 1237.7257815686366 33.1091316821458
    vertex 1451.8700720782922 1238.1168677312369 33.13991083065799
  endloop
endfacet
facet normal -5.390697149313378e-31 0.07845909572791357 -0.9969173337331226
  outer loop
    vertex 1451.8700720782922 1237.7257815686366 33.1091316821458
    vertex 1452.6700720782922 1238.1168677312369 33.13991083065799
    vertex 1452.6700720782922 1237.7257815686366 33.1091316821458
  endloop
endfacet
facet normal -5.8582435353489786e-30 0.8526401643541066 0.5224985647159255
  outer loop
    vertex 1451.8700720782922 1235.8893514207662 29.504934581309154
    vertex 1452.6700720782922 1236.0943252452998 29.17044769992682
    vertex 1451.8700720782922 1236.0943252452998 29.17044769992682
  endloop
endfacet
facet normal -5.8582435353489786e-30 0.8526401643541066 0.5224985647159255
  outer loop
    vertex 1452.6700720782922 1236.0943252452998 29.17044769992682
    vertex 1451.8700720782922 1235.8893514207662 29.504934581309154
    vertex 1452.6700720782922 1235.8893514207662 29.504934581309154
  endloop
endfacet
facet normal -1.60393545934088e-30 0.23344536385586073 -0.9723699203976874
  outer loop
    vertex 1452.6700720782922 1237.7257815686366 33.1091316821458
    vertex 1451.8700720782922 1237.3443252452996 33.017552121395866
    vertex 1451.8700720782922 1237.7257815686366 33.1091316821458
  endloop
endfacet
facet normal -1.60393545934088e-30 0.23344536385586073 -0.9723699203976874
  outer loop
    vertex 1451.8700720782922 1237.3443252452996 33.017552121395866
    vertex 1452.6700720782922 1237.7257815686366 33.1091316821458
    vertex 1452.6700720782922 1237.3443252452996 33.017552121395866
  endloop
endfacet
facet normal 5.390697149313358e-31 -0.07845909572791357 -0.9969173337331226
  outer loop
    vertex 1452.6700720782922 1238.5079538938376 33.1091316821458
    vertex 1451.8700720782922 1238.1168677312369 33.13991083065799
    vertex 1451.8700720782922 1238.5079538938376 33.1091316821458
  endloop
endfacet
facet normal 5.390697149313358e-31 -0.07845909572791357 -0.9969173337331226
  outer loop
    vertex 1451.8700720782922 1238.1168677312369 33.13991083065799
    vertex 1452.6700720782922 1238.5079538938376 33.1091316821458
    vertex 1452.6700720782922 1238.1168677312369 33.13991083065799
  endloop
endfacet
facet normal -6.680872000033714e-30 0.9723699203976772 0.23344536385590342
  outer loop
    vertex 1451.8700720782922 1235.6476468797491 30.248824668057427
    vertex 1452.6700720782922 1235.7392264404991 29.86736834472063
    vertex 1451.8700720782922 1235.7392264404991 29.86736834472063
  endloop
endfacet
facet normal -6.680872000033714e-30 0.9723699203976772 0.23344536385590342
  outer loop
    vertex 1452.6700720782922 1235.7392264404991 29.86736834472063
    vertex 1451.8700720782922 1235.6476468797491 30.248824668057427
    vertex 1452.6700720782922 1235.6476468797491 30.248824668057427
  endloop
endfacet
facet normal -5.390697149305408e-31 0.07845909572779786 0.9969173337331318
  outer loop
    vertex 1452.6700720782922 1238.1168677312369 35.63991083065805
    vertex 1451.8700720782922 1238.8990400564383 35.578352533633776
    vertex 1451.8700720782922 1238.1168677312369 35.63991083065805
  endloop
endfacet
facet normal -5.390697149305408e-31 0.07845909572779786 0.9969173337331318
  outer loop
    vertex 1451.8700720782922 1238.8990400564383 35.578352533633776
    vertex 1452.6700720782922 1238.1168677312369 35.63991083065805
    vertex 1452.6700720782922 1238.8990400564383 35.578352533633776
  endloop
endfacet
facet normal -5.858243535348958e-30 0.8526401643541034 -0.5224985647159307
  outer loop
    vertex 1451.8700720782922 1242.571900352179 28.369958331960294
    vertex 1452.6700720782922 1242.1619527031119 27.70098456919563
    vertex 1451.8700720782922 1242.1619527031119 27.70098456919563
  endloop
endfacet
facet normal -5.858243535348958e-30 0.8526401643541034 -0.5224985647159307
  outer loop
    vertex 1452.6700720782922 1242.1619527031119 27.70098456919563
    vertex 1451.8700720782922 1242.571900352179 28.369958331960294
    vertex 1452.6700720782922 1242.571900352179 28.369958331960294
  endloop
endfacet
facet normal 1.0 6.870710271767136e-30 -9.381216420874821e-46
  outer loop
    vertex 1452.6700720782922 1233.1784260282614 29.857738505456837
    vertex 1452.6700720782922 1233.1784260282614 31.42208315585919
    vertex 1452.6700720782922 1233.116867731237 30.639910830658014
  endloop
endfacet
facet normal 1.0 6.870710271767136e-30 -9.381216420874821e-46
  outer loop
    vertex 1452.6700720782922 1233.1784260282614 31.42208315585919
    vertex 1452.6700720782922 1233.1784260282614 29.857738505456837
    vertex 1452.6700720782922 1233.3615851497614 29.09482585878325
  endloop
endfacet
facet normal 1.0 6.870710271767136e-30 -9.381216420874821e-46
  outer loop
    vertex 1452.6700720782922 1233.1784260282614 31.42208315585919
    vertex 1452.6700720782922 1233.3615851497614 29.09482585878325
    vertex 1452.6700720782922 1233.3615851497614 32.184995802532775
  endloop
endfacet
facet normal 1.0 6.870710271767136e-30 -9.381216420874821e-46
  outer loop
    vertex 1452.6700720782922 1233.3615851497614 32.184995802532775
    vertex 1452.6700720782922 1233.3615851497614 29.09482585878325
    vertex 1452.6700720782922 1233.6618351102952 28.369958331960294
  endloop
endfacet
facet normal 1.0 6.870710271767136e-30 -9.381216420874821e-46
  outer loop
    vertex 1452.6700720782922 1233.3615851497614 32.184995802532775
    vertex 1452.6700720782922 1233.6618351102952 28.369958331960294
    vertex 1452.6700720782922 1233.6618351102952 32.90986332935573
  endloop
endfacet
facet normal 1.0 6.870710271767136e-30 -9.381216420874821e-46
  outer loop
    vertex 1452.6700720782922 1233.6618351102952 32.90986332935573
    vertex 1452.6700720782922 1233.6618351102952 28.369958331960294
    vertex 1452.6700720782922 1234.0717827593623 27.70098456919563
  endloop
endfacet
facet normal 1.0 6.870710271767136e-30 -9.381216420874821e-46
  outer loop
    vertex 1452.6700720782922 1233.6618351102952 32.90986332935573
    vertex 1452.6700720782922 1234.0717827593623 27.70098456919563
    vertex 1452.6700720782922 1234.0717827593623 33.578837092120395
  endloop
endfacet
facet normal 1.0 6.870710271767136e-30 -9.381216420874821e-46
  outer loop
    vertex 1452.6700720782922 1234.0717827593623 33.578837092120395
    vertex 1452.6700720782922 1234.0717827593623 27.70098456919563
    vertex 1452.6700720782922 1234.5813338253045 27.104376924725223
  endloop
endfacet
facet normal 1.0 6.870710271767136e-30 -9.381216420874821e-46
  outer loop
    vertex 1452.6700720782922 1234.0717827593623 33.578837092120395
    vertex 1452.6700720782922 1234.5813338253045 27.104376924725223
    vertex 1452.6700720782922 1234.5813338253045 34.175444736590805
  endloop
endfacet
facet normal 1.0 6.870710271767136e-30 -9.381216420874821e-46
  outer loop
    vertex 1452.6700720782922 1234.5813338253045 34.175444736590805
    vertex 1452.6700720782922 1234.5813338253045 27.104376924725223
    vertex 1452.6700720782922 1235.1779414697746 26.594825858783278
  endloop
endfacet
facet normal 1.0 6.870710271767136e-30 -9.381216420874821e-46
  outer loop
    vertex 1452.6700720782922 1234.5813338253045 34.175444736590805
    vertex 1452.6700720782922 1235.1779414697746 26.594825858783278
    vertex 1452.6700720782922 1235.1779414697746 34.684995802532754
  endloop
endfacet
facet normal 1.0 6.870710271767136e-30 -9.381216420874821e-46
  outer loop
    vertex 1452.6700720782922 1235.1779414697746 34.684995802532754
    vertex 1452.6700720782922 1235.1779414697746 26.594825858783278
    vertex 1452.6700720782922 1235.8469152325392 26.18487820971615
  endloop
endfacet
facet normal 1.0 6.870710271767136e-30 -9.381216420874821e-46
  outer loop
    vertex 1452.6700720782922 1235.1779414697746 34.684995802532754
    vertex 1452.6700720782922 1235.8469152325392 26.18487820971615
    vertex 1452.6700720782922 1235.616867731237 30.639910830658014
  endloop
endfacet
facet normal 1.0 6.870710271767136e-30 -9.381216420874821e-46
  outer loop
    vertex 1452.6700720782922 1235.616867731237 30.639910830658014
    vertex 1452.6700720782922 1235.8469152325392 26.18487820971615
    vertex 1452.6700720782922 1235.6476468797491 30.248824668057427
  endloop
endfacet
facet normal 1.0 6.870710271767136e-30 -9.381216420874821e-46
  outer loop
    vertex 1452.6700720782922 1235.6476468797491 30.248824668057427
    vertex 1452.6700720782922 1235.8469152325392 26.18487820971615
    vertex 1452.6700720782922 1235.7392264404991 29.86736834472063
  endloop
endfacet
facet normal 1.0 6.870710271767136e-30 -9.381216420874821e-46
  outer loop
    vertex 1452.6700720782922 1235.7392264404991 29.86736834472063
    vertex 1452.6700720782922 1235.8469152325392 26.18487820971615
    vertex 1452.6700720782922 1235.8893514207662 29.504934581309154
  endloop
endfacet
facet normal 1.0 6.870710271767136e-30 -9.381216420874821e-46
  outer loop
    vertex 1452.6700720782922 1235.8893514207662 29.504934581309154
    vertex 1452.6700720782922 1235.8469152325392 26.18487820971615
    vertex 1452.6700720782922 1236.5717827593623 25.884628249182224
  endloop
endfacet
facet normal 1.0 6.870710271767136e-30 -9.381216420874821e-46
  outer loop
    vertex 1452.6700720782922 1235.8893514207662 29.504934581309154
    vertex 1452.6700720782922 1236.5717827593623 25.884628249182224
    vertex 1452.6700720782922 1236.0943252452998 29.17044769992682
  endloop
endfacet
facet normal 1.0 6.870710271767136e-30 -9.381216420874821e-46
  outer loop
    vertex 1452.6700720782922 1236.0943252452998 29.17044769992682
    vertex 1452.6700720782922 1236.5717827593623 25.884628249182224
    vertex 1452.6700720782922 1236.3491007782707 28.87214387769171
  endloop
endfacet
facet normal 1.0 6.870710271767136e-30 -9.381216420874821e-46
  outer loop
    vertex 1452.6700720782922 1236.3491007782707 28.87214387769171
    vertex 1452.6700720782922 1236.5717827593623 25.884628249182224
    vertex 1452.6700720782922 1236.647404600506 28.617368344720646
  endloop
endfacet
facet normal 1.0 6.870710271767136e-30 -9.381216420874821e-46
  outer loop
    vertex 1452.6700720782922 1236.647404600506 28.617368344720646
    vertex 1452.6700720782922 1236.5717827593623 25.884628249182224
    vertex 1452.6700720782922 1237.334695406036 25.701469127682252
  endloop
endfacet
facet normal 1.0 6.870710271767136e-30 -9.381216420874821e-46
  outer loop
    vertex 1452.6700720782922 1236.647404600506 28.617368344720646
    vertex 1452.6700720782922 1237.334695406036 25.701469127682252
    vertex 1452.6700720782922 1236.9818914818882 28.412394520187082
  endloop
endfacet
facet normal 1.0 6.870710271767136e-30 -9.381216420874821e-46
  outer loop
    vertex 1452.6700720782922 1236.9818914818882 28.412394520187082
    vertex 1452.6700720782922 1237.334695406036 25.701469127682252
    vertex 1452.6700720782922 1237.3443252452996 28.262269539920165
  endloop
endfacet
facet normal 1.0 6.870710271767136e-30 -9.381216420874821e-46
  outer loop
    vertex 1452.6700720782922 1237.3443252452996 28.262269539920165
    vertex 1452.6700720782922 1237.334695406036 25.701469127682252
    vertex 1452.6700720782922 1238.1168677312369 25.63991083065798
  endloop
endfacet
facet normal 1.0 6.870710271767136e-30 -9.381216420874821e-46
  outer loop
    vertex 1452.6700720782922 1237.3443252452996 28.262269539920165
    vertex 1452.6700720782922 1238.1168677312369 25.63991083065798
    vertex 1452.6700720782922 1237.7257815686366 28.170689979170223
  endloop
endfacet
facet normal 1.0 6.870710271767136e-30 -9.381216420874821e-46
  outer loop
    vertex 1452.6700720782922 1237.7257815686366 28.170689979170223
    vertex 1452.6700720782922 1238.1168677312369 25.63991083065798
    vertex 1452.6700720782922 1238.1168677312369 28.139910830658042
  endloop
endfacet
facet normal 1.0 6.870710271767136e-30 -9.381216420874821e-46
  outer loop
    vertex 1452.6700720782922 1238.1168677312369 28.139910830658042
    vertex 1452.6700720782922 1238.1168677312369 25.63991083065798
    vertex 1452.6700720782922 1238.8990400564383 25.701469127682252
  endloop
endfacet
facet normal 1.0 6.870710271767136e-30 -9.381216420874821e-46
  outer loop
    vertex 1452.6700720782922 1238.1168677312369 28.139910830658042
    vertex 1452.6700720782922 1238.8990400564383 25.701469127682252
    vertex 1452.6700720782922 1238.5079538938376 28.170689979170223
  endloop
endfacet
facet normal 1.0 6.870710271767136e-30 -9.381216420874821e-46
  outer loop
    vertex 1452.6700720782922 1238.5079538938376 28.170689979170223
    vertex 1452.6700720782922 1238.8990400564383 25.701469127682252
    vertex 1452.6700720782922 1238.8894102171744 28.262269539920165
  endloop
endfacet
facet normal 1.0 6.870710271767136e-30 -9.381216420874821e-46
  outer loop
    vertex 1452.6700720782922 1238.8894102171744 28.262269539920165
    vertex 1452.6700720782922 1238.8990400564383 25.701469127682252
    vertex 1452.6700720782922 1239.2518439805858 28.412394520187082
  endloop
endfacet
facet normal 1.0 6.870710271767136e-30 -9.381216420874821e-46
  outer loop
    vertex 1452.6700720782922 1239.2518439805858 28.412394520187082
    vertex 1452.6700720782922 1238.8990400564383 25.701469127682252
    vertex 1452.6700720782922 1239.6619527031116 25.884628249182224
  endloop
endfacet
facet normal 1.0 6.870710271767136e-30 -9.381216420874821e-46
  outer loop
    vertex 1452.6700720782922 1239.2518439805858 28.412394520187082
    vertex 1452.6700720782922 1239.6619527031116 25.884628249182224
    vertex 1452.6700720782922 1239.5863308619682 28.617368344720646
  endloop
endfacet
facet normal 1.0 6.870710271767136e-30 -9.381216420874821e-46
  outer loop
    vertex 1452.6700720782922 1239.5863308619682 28.617368344720646
    vertex 1452.6700720782922 1239.6619527031116 25.884628249182224
    vertex 1452.6700720782922 1239.8846346842033 28.87214387769171
  endloop
endfacet
facet normal 1.0 6.870710271767136e-30 -9.381216420874821e-46
  outer loop
    vertex 1452.6700720782922 1239.8846346842033 28.87214387769171
    vertex 1452.6700720782922 1239.6619527031116 25.884628249182224
    vertex 1452.6700720782922 1240.386820229935 26.18487820971615
  endloop
endfacet
facet normal 1.0 6.870710271767136e-30 -9.381216420874821e-46
  outer loop
    vertex 1452.6700720782922 1239.8846346842033 28.87214387769171
    vertex 1452.6700720782922 1240.386820229935 26.18487820971615
    vertex 1452.6700720782922 1240.1394102171744 29.17044769992682
  endloop
endfacet
facet normal 1.0 6.870710271767136e-30 -9.381216420874821e-46
  outer loop
    vertex 1452.6700720782922 1240.1394102171744 29.17044769992682
    vertex 1452.6700720782922 1240.386820229935 26.18487820971615
    vertex 1452.6700720782922 1240.3443840417078 29.504934581309154
  endloop
endfacet
facet normal 1.0 6.870710271767136e-30 -9.381216420874821e-46
  outer loop
    vertex 1452.6700720782922 1240.3443840417078 29.504934581309154
    vertex 1452.6700720782922 1240.386820229935 26.18487820971615
    vertex 1452.6700720782922 1240.494509021975 29.86736834472063
  endloop
endfacet
facet normal 1.0 6.870710271767136e-30 -9.381216420874821e-46
  outer loop
    vertex 1452.6700720782922 1240.494509021975 29.86736834472063
    vertex 1452.6700720782922 1240.386820229935 26.18487820971615
    vertex 1452.6700720782922 1241.0557939926996 26.594825858783278
  endloop
endfacet
facet normal 1.0 6.870710271767136e-30 -9.381216420874821e-46
  outer loop
    vertex 1452.6700720782922 1240.494509021975 29.86736834472063
    vertex 1452.6700720782922 1241.0557939926996 26.594825858783278
    vertex 1452.6700720782922 1240.5860885827249 30.248824668057427
  endloop
endfacet
facet normal 1.0 6.870710271767136e-30 -9.381216420874821e-46
  outer loop
    vertex 1452.6700720782922 1240.5860885827249 30.248824668057427
    vertex 1452.6700720782922 1241.0557939926996 26.594825858783278
    vertex 1452.6700720782922 1240.616867731237 30.639910830658014
  endloop
endfacet
facet normal 1.0 6.870710271767136e-30 -9.381216420874821e-46
  outer loop
    vertex 1452.6700720782922 1235.616867731237 30.639910830658014
    vertex 1452.6700720782922 1235.8469152325392 35.094943451599875
    vertex 1452.6700720782922 1235.1779414697746 34.684995802532754
  endloop
endfacet
facet normal 1.0 6.870710271767136e-30 -9.381216420874821e-46
  outer loop
    vertex 1452.6700720782922 1235.8469152325392 35.094943451599875
    vertex 1452.6700720782922 1235.616867731237 30.639910830658014
    vertex 1452.6700720782922 1235.6476468797491 31.0309969932586
  endloop
endfacet
facet normal 1.0 6.870710271767136e-30 -9.381216420874821e-46
  outer loop
    vertex 1452.6700720782922 1235.8469152325392 35.094943451599875
    vertex 1452.6700720782922 1235.6476468797491 31.0309969932586
    vertex 1452.6700720782922 1235.7392264404991 31.412453316595396
  endloop
endfacet
facet normal 1.0 6.870710271767136e-30 -9.381216420874821e-46
  outer loop
    vertex 1452.6700720782922 1235.8469152325392 35.094943451599875
    vertex 1452.6700720782922 1235.7392264404991 31.412453316595396
    vertex 1452.6700720782922 1235.8893514207662 31.774887080006874
  endloop
endfacet
facet normal 1.0 6.870710271767136e-30 -9.381216420874821e-46
  outer loop
    vertex 1452.6700720782922 1235.8469152325392 35.094943451599875
    vertex 1452.6700720782922 1235.8893514207662 31.774887080006874
    vertex 1452.6700720782922 1236.5717827593623 35.39519341213381
  endloop
endfacet
facet normal 1.0 6.870710271767136e-30 -9.381216420874821e-46
  outer loop
    vertex 1452.6700720782922 1236.5717827593623 35.39519341213381
    vertex 1452.6700720782922 1235.8893514207662 31.774887080006874
    vertex 1452.6700720782922 1236.0943252452998 32.1093739613892
  endloop
endfacet
facet normal 1.0 6.870710271767136e-30 -9.381216420874821e-46
  outer loop
    vertex 1452.6700720782922 1236.5717827593623 35.39519341213381
    vertex 1452.6700720782922 1236.0943252452998 32.1093739613892
    vertex 1452.6700720782922 1236.3491007782707 32.40767778362432
  endloop
endfacet
facet normal 1.0 6.870710271767136e-30 -9.381216420874821e-46
  outer loop
    vertex 1452.6700720782922 1236.5717827593623 35.39519341213381
    vertex 1452.6700720782922 1236.3491007782707 32.40767778362432
    vertex 1452.6700720782922 1236.647404600506 32.66245331659538
  endloop
endfacet
facet normal 1.0 6.870710271767136e-30 -9.381216420874821e-46
  outer loop
    vertex 1452.6700720782922 1236.5717827593623 35.39519341213381
    vertex 1452.6700720782922 1236.647404600506 32.66245331659538
    vertex 1452.6700720782922 1237.334695406036 35.578352533633776
  endloop
endfacet
facet normal 1.0 6.870710271767136e-30 -9.381216420874821e-46
  outer loop
    vertex 1452.6700720782922 1237.334695406036 35.578352533633776
    vertex 1452.6700720782922 1236.647404600506 32.66245331659538
    vertex 1452.6700720782922 1236.9818914818882 32.86742714112894
  endloop
endfacet
facet normal 1.0 6.870710271767136e-30 -9.381216420874821e-46
  outer loop
    vertex 1452.6700720782922 1237.334695406036 35.578352533633776
    vertex 1452.6700720782922 1236.9818914818882 32.86742714112894
    vertex 1452.6700720782922 1237.3443252452996 33.017552121395866
  endloop
endfacet
facet normal 1.0 6.870710271767136e-30 -9.381216420874821e-46
  outer loop
    vertex 1452.6700720782922 1237.334695406036 35.578352533633776
    vertex 1452.6700720782922 1237.3443252452996 33.017552121395866
    vertex 1452.6700720782922 1238.1168677312369 35.63991083065805
  endloop
endfacet
facet normal 1.0 6.870710271767136e-30 -9.381216420874821e-46
  outer loop
    vertex 1452.6700720782922 1238.1168677312369 35.63991083065805
    vertex 1452.6700720782922 1237.3443252452996 33.017552121395866
    vertex 1452.6700720782922 1237.7257815686366 33.1091316821458
  endloop
endfacet
facet normal 1.0 6.870710271767136e-30 -9.381216420874821e-46
  outer loop
    vertex 1452.6700720782922 1238.1168677312369 35.63991083065805
    vertex 1452.6700720782922 1237.7257815686366 33.1091316821458
    vertex 1452.6700720782922 1238.1168677312369 33.13991083065799
  endloop
endfacet
facet normal 1.0 6.870710271767136e-30 -9.381216420874821e-46
  outer loop
    vertex 1452.6700720782922 1238.1168677312369 35.63991083065805
    vertex 1452.6700720782922 1238.1168677312369 33.13991083065799
    vertex 1452.6700720782922 1238.5079538938376 33.1091316821458
  endloop
endfacet
facet normal 1.0 6.870710271767136e-30 -9.381216420874821e-46
  outer loop
    vertex 1452.6700720782922 1238.1168677312369 35.63991083065805
    vertex 1452.6700720782922 1238.5079538938376 33.1091316821458
    vertex 1452.6700720782922 1238.8990400564383 35.578352533633776
  endloop
endfacet
facet normal 1.0 6.870710271767136e-30 -9.381216420874821e-46
  outer loop
    vertex 1452.6700720782922 1238.8990400564383 35.578352533633776
    vertex 1452.6700720782922 1238.5079538938376 33.1091316821458
    vertex 1452.6700720782922 1238.8894102171744 33.017552121395866
  endloop
endfacet
facet normal 1.0 6.870710271767136e-30 -9.381216420874821e-46
  outer loop
    vertex 1452.6700720782922 1238.8990400564383 35.578352533633776
    vertex 1452.6700720782922 1238.8894102171744 33.017552121395866
    vertex 1452.6700720782922 1239.2518439805858 32.86742714112894
  endloop
endfacet
facet normal 1.0 6.870710271767136e-30 -9.381216420874821e-46
  outer loop
    vertex 1452.6700720782922 1238.8990400564383 35.578352533633776
    vertex 1452.6700720782922 1239.2518439805858 32.86742714112894
    vertex 1452.6700720782922 1239.6619527031116 35.39519341213381
  endloop
endfacet
facet normal 1.0 6.870710271767136e-30 -9.381216420874821e-46
  outer loop
    vertex 1452.6700720782922 1239.6619527031116 35.39519341213381
    vertex 1452.6700720782922 1239.2518439805858 32.86742714112894
    vertex 1452.6700720782922 1239.5863308619682 32.66245331659538
  endloop
endfacet
facet normal 1.0 6.870710271767136e-30 -9.381216420874821e-46
  outer loop
    vertex 1452.6700720782922 1239.6619527031116 35.39519341213381
    vertex 1452.6700720782922 1239.5863308619682 32.66245331659538
    vertex 1452.6700720782922 1239.8846346842033 32.40767778362432
  endloop
endfacet
facet normal 1.0 6.870710271767136e-30 -9.381216420874821e-46
  outer loop
    vertex 1452.6700720782922 1239.6619527031116 35.39519341213381
    vertex 1452.6700720782922 1239.8846346842033 32.40767778362432
    vertex 1452.6700720782922 1240.386820229935 35.094943451599875
  endloop
endfacet
facet normal 1.0 6.870710271767136e-30 -9.381216420874821e-46
  outer loop
    vertex 1452.6700720782922 1240.386820229935 35.094943451599875
    vertex 1452.6700720782922 1239.8846346842033 32.40767778362432
    vertex 1452.6700720782922 1240.1394102171744 32.1093739613892
  endloop
endfacet
facet normal 1.0 6.870710271767136e-30 -9.381216420874821e-46
  outer loop
    vertex 1452.6700720782922 1240.386820229935 35.094943451599875
    vertex 1452.6700720782922 1240.1394102171744 32.1093739613892
    vertex 1452.6700720782922 1240.3443840417078 31.774887080006874
  endloop
endfacet
facet normal 1.0 6.870710271767136e-30 -9.381216420874821e-46
  outer loop
    vertex 1452.6700720782922 1240.386820229935 35.094943451599875
    vertex 1452.6700720782922 1240.3443840417078 31.774887080006874
    vertex 1452.6700720782922 1240.494509021975 31.412453316595396
  endloop
endfacet
facet normal 1.0 6.870710271767136e-30 -9.381216420874821e-46
  outer loop
    vertex 1452.6700720782922 1240.386820229935 35.094943451599875
    vertex 1452.6700720782922 1240.494509021975 31.412453316595396
    vertex 1452.6700720782922 1241.0557939926996 34.684995802532754
  endloop
endfacet
facet normal 1.0 6.870710271767136e-30 -9.381216420874821e-46
  outer loop
    vertex 1452.6700720782922 1241.0557939926996 34.684995802532754
    vertex 1452.6700720782922 1240.494509021975 31.412453316595396
    vertex 1452.6700720782922 1240.5860885827249 31.0309969932586
  endloop
endfacet
facet normal 1.0 6.870710271767136e-30 -9.381216420874821e-46
  outer loop
    vertex 1452.6700720782922 1241.0557939926996 34.684995802532754
    vertex 1452.6700720782922 1240.5860885827249 31.0309969932586
    vertex 1452.6700720782922 1240.616867731237 30.639910830658014
  endloop
endfacet
facet normal 1.0 6.870710271767136e-30 -9.381216420874821e-46
  outer loop
    vertex 1452.6700720782922 1241.0557939926996 34.684995802532754
    vertex 1452.6700720782922 1240.616867731237 30.639910830658014
    vertex 1452.6700720782922 1241.0557939926996 26.594825858783278
  endloop
endfacet
facet normal 1.0 6.870710271767136e-30 -9.381216420874821e-46
  outer loop
    vertex 1452.6700720782922 1241.0557939926996 34.684995802532754
    vertex 1452.6700720782922 1241.0557939926996 26.594825858783278
    vertex 1452.6700720782922 1241.6524016371698 27.104376924725223
  endloop
endfacet
facet normal 1.0 6.870710271767136e-30 -9.381216420874821e-46
  outer loop
    vertex 1452.6700720782922 1241.0557939926996 34.684995802532754
    vertex 1452.6700720782922 1241.6524016371698 27.104376924725223
    vertex 1452.6700720782922 1241.6524016371698 34.175444736590805
  endloop
endfacet
facet normal 1.0 6.870710271767136e-30 -9.381216420874821e-46
  outer loop
    vertex 1452.6700720782922 1241.6524016371698 34.175444736590805
    vertex 1452.6700720782922 1241.6524016371698 27.104376924725223
    vertex 1452.6700720782922 1242.1619527031119 27.70098456919563
  endloop
endfacet
facet normal 1.0 6.870710271767136e-30 -9.381216420874821e-46
  outer loop
    vertex 1452.6700720782922 1241.6524016371698 34.175444736590805
    vertex 1452.6700720782922 1242.1619527031119 27.70098456919563
    vertex 1452.6700720782922 1242.1619527031119 33.578837092120395
  endloop
endfacet
facet normal 1.0 6.870710271767136e-30 -9.381216420874821e-46
  outer loop
    vertex 1452.6700720782922 1242.1619527031119 33.578837092120395
    vertex 1452.6700720782922 1242.1619527031119 27.70098456919563
    vertex 1452.6700720782922 1242.571900352179 28.369958331960294
  endloop
endfacet
facet normal 1.0 6.870710271767136e-30 -9.381216420874821e-46
  outer loop
    vertex 1452.6700720782922 1242.1619527031119 33.578837092120395
    vertex 1452.6700720782922 1242.571900352179 28.369958331960294
    vertex 1452.6700720782922 1242.571900352179 32.90986332935573
  endloop
endfacet
facet normal 1.0 6.870710271767136e-30 -9.381216420874821e-46
  outer loop
    vertex 1452.6700720782922 1242.571900352179 32.90986332935573
    vertex 1452.6700720782922 1242.571900352179 28.369958331960294
    vertex 1452.6700720782922 1242.8721503127128 29.09482585878325
  endloop
endfacet
facet normal 1.0 6.870710271767136e-30 -9.381216420874821e-46
  outer loop
    vertex 1452.6700720782922 1242.571900352179 32.90986332935573
    vertex 1452.6700720782922 1242.8721503127128 29.09482585878325
    vertex 1452.6700720782922 1242.8721503127128 32.184995802532775
  endloop
endfacet
facet normal 1.0 6.870710271767136e-30 -9.381216420874821e-46
  outer loop
    vertex 1452.6700720782922 1242.8721503127128 32.184995802532775
    vertex 1452.6700720782922 1242.8721503127128 29.09482585878325
    vertex 1452.6700720782922 1243.0553094342126 29.857738505456837
  endloop
endfacet
facet normal 1.0 6.870710271767136e-30 -9.381216420874821e-46
  outer loop
    vertex 1452.6700720782922 1242.8721503127128 32.184995802532775
    vertex 1452.6700720782922 1243.0553094342126 29.857738505456837
    vertex 1452.6700720782922 1243.0553094342126 31.42208315585919
  endloop
endfacet
facet normal 1.0 6.870710271767136e-30 -9.381216420874821e-46
  outer loop
    vertex 1452.6700720782922 1243.0553094342126 31.42208315585919
    vertex 1452.6700720782922 1243.0553094342126 29.857738505456837
    vertex 1452.6700720782922 1243.116867731237 30.639910830658014
  endloop
endfacet
facet normal -6.347708593900653e-30 0.9238795325112773 -0.38268343236511276
  outer loop
    vertex 1451.8700720782922 1242.8721503127128 29.09482585878325
    vertex 1452.6700720782922 1242.571900352179 28.369958331960294
    vertex 1451.8700720782922 1242.571900352179 28.369958331960294
  endloop
endfacet
facet normal -6.347708593900653e-30 0.9238795325112773 -0.38268343236511276
  outer loop
    vertex 1452.6700720782922 1242.571900352179 28.369958331960294
    vertex 1451.8700720782922 1242.8721503127128 29.09482585878325
    vertex 1452.6700720782922 1242.8721503127128 29.09482585878325
  endloop
endfacet
facet normal -5.224529078561259e-30 0.7604059656000481 -0.6494480483301637
  outer loop
    vertex 1451.8700720782922 1242.1619527031119 27.70098456919563
    vertex 1452.6700720782922 1241.6524016371698 27.104376924725223
    vertex 1451.8700720782922 1241.6524016371698 27.104376924725223
  endloop
endfacet
facet normal -5.224529078561259e-30 0.7604059656000481 -0.6494480483301637
  outer loop
    vertex 1452.6700720782922 1241.6524016371698 27.104376924725223
    vertex 1451.8700720782922 1242.1619527031119 27.70098456919563
    vertex 1452.6700720782922 1242.1619527031119 27.70098456919563
  endloop
endfacet
facet normal -4.462169376641024e-30 0.6494480483301416 -0.7604059656000668
  outer loop
    vertex 1452.6700720782922 1241.6524016371698 27.104376924725223
    vertex 1451.8700720782922 1241.0557939926996 26.594825858783278
    vertex 1451.8700720782922 1241.6524016371698 27.104376924725223
  endloop
endfacet
facet normal -4.462169376641024e-30 0.6494480483301416 -0.7604059656000668
  outer loop
    vertex 1451.8700720782922 1241.0557939926996 26.594825858783278
    vertex 1452.6700720782922 1241.6524016371698 27.104376924725223
    vertex 1452.6700720782922 1241.0557939926996 26.594825858783278
  endloop
endfacet
facet normal -6.680872000033709e-30 0.9723699203976763 -0.2334453638559068
  outer loop
    vertex 1451.8700720782922 1243.0553094342126 29.857738505456837
    vertex 1452.6700720782922 1242.8721503127128 29.09482585878325
    vertex 1451.8700720782922 1242.8721503127128 29.09482585878325
  endloop
endfacet
facet normal -6.680872000033709e-30 0.9723699203976763 -0.2334453638559068
  outer loop
    vertex 1452.6700720782922 1242.8721503127128 29.09482585878325
    vertex 1451.8700720782922 1243.0553094342126 29.857738505456837
    vertex 1452.6700720782922 1243.0553094342126 29.857738505456837
  endloop
endfacet
facet normal -2.6293069895858944e-30 0.382683432365085 -0.9238795325112887
  outer loop
    vertex 1452.6700720782922 1240.386820229935 26.18487820971615
    vertex 1451.8700720782922 1239.6619527031116 25.884628249182224
    vertex 1451.8700720782922 1240.386820229935 26.18487820971615
  endloop
endfacet
facet normal -2.6293069895858944e-30 0.382683432365085 -0.9238795325112887
  outer loop
    vertex 1451.8700720782922 1239.6619527031116 25.884628249182224
    vertex 1452.6700720782922 1240.386820229935 26.18487820971615
    vertex 1452.6700720782922 1239.6619527031116 25.884628249182224
  endloop
endfacet
facet normal -6.84953016498291e-30 0.9969173337331282 0.07845909572784288
  outer loop
    vertex 1451.8700720782922 1243.0553094342126 31.42208315585919
    vertex 1452.6700720782922 1243.116867731237 30.639910830658014
    vertex 1451.8700720782922 1243.116867731237 30.639910830658014
  endloop
endfacet
facet normal -6.84953016498291e-30 0.9969173337331282 0.07845909572784288
  outer loop
    vertex 1452.6700720782922 1243.116867731237 30.639910830658014
    vertex 1451.8700720782922 1243.0553094342126 31.42208315585919
    vertex 1452.6700720782922 1243.0553094342126 31.42208315585919
  endloop
endfacet
facet normal -6.680872000033709e-30 0.9723699203976763 0.2334453638559068
  outer loop
    vertex 1451.8700720782922 1242.8721503127128 32.184995802532775
    vertex 1452.6700720782922 1243.0553094342126 31.42208315585919
    vertex 1451.8700720782922 1243.0553094342126 31.42208315585919
  endloop
endfacet
facet normal -6.680872000033709e-30 0.9723699203976763 0.2334453638559068
  outer loop
    vertex 1452.6700720782922 1243.0553094342126 31.42208315585919
    vertex 1451.8700720782922 1242.8721503127128 32.184995802532775
    vertex 1452.6700720782922 1242.8721503127128 32.184995802532775
  endloop
endfacet
facet normal -5.858243535348945e-30 0.8526401643541017 0.5224985647159333
  outer loop
    vertex 1451.8700720782922 1242.1619527031119 33.578837092120395
    vertex 1452.6700720782922 1242.571900352179 32.90986332935573
    vertex 1451.8700720782922 1242.571900352179 32.90986332935573
  endloop
endfacet
facet normal -5.858243535348945e-30 0.8526401643541017 0.5224985647159333
  outer loop
    vertex 1452.6700720782922 1242.571900352179 32.90986332935573
    vertex 1451.8700720782922 1242.1619527031119 33.578837092120395
    vertex 1452.6700720782922 1242.1619527031119 33.578837092120395
  endloop
endfacet
facet normal -4.462169376641023e-30 0.6494480483301416 0.7604059656000668
  outer loop
    vertex 1452.6700720782922 1241.0557939926996 34.684995802532754
    vertex 1451.8700720782922 1241.6524016371698 34.175444736590805
    vertex 1451.8700720782922 1241.0557939926996 34.684995802532754
  endloop
endfacet
facet normal -4.462169376641023e-30 0.6494480483301416 0.7604059656000668
  outer loop
    vertex 1451.8700720782922 1241.6524016371698 34.175444736590805
    vertex 1452.6700720782922 1241.0557939926996 34.684995802532754
    vertex 1452.6700720782922 1241.6524016371698 34.175444736590805
  endloop
endfacet
facet normal -6.84953016498291e-30 0.9969173337331282 -0.07845909572784288
  outer loop
    vertex 1451.8700720782922 1243.116867731237 30.639910830658014
    vertex 1452.6700720782922 1243.0553094342126 29.857738505456837
    vertex 1451.8700720782922 1243.0553094342126 29.857738505456837
  endloop
endfacet
facet normal -6.84953016498291e-30 0.9969173337331282 -0.07845909572784288
  outer loop
    vertex 1452.6700720782922 1243.0553094342126 29.857738505456837
    vertex 1451.8700720782922 1243.116867731237 30.639910830658014
    vertex 1452.6700720782922 1243.116867731237 30.639910830658014
  endloop
endfacet
facet normal -6.34770859390066e-30 0.9238795325112785 0.38268343236510965
  outer loop
    vertex 1451.8700720782922 1242.571900352179 32.90986332935573
    vertex 1452.6700720782922 1242.8721503127128 32.184995802532775
    vertex 1451.8700720782922 1242.8721503127128 32.184995802532775
  endloop
endfacet
facet normal -6.34770859390066e-30 0.9238795325112785 0.38268343236510965
  outer loop
    vertex 1452.6700720782922 1242.8721503127128 32.184995802532775
    vertex 1451.8700720782922 1242.571900352179 32.90986332935573
    vertex 1452.6700720782922 1242.571900352179 32.90986332935573
  endloop
endfacet
facet normal -2.629306989585893e-30 0.382683432365085 0.9238795325112887
  outer loop
    vertex 1452.6700720782922 1239.6619527031116 35.39519341213381
    vertex 1451.8700720782922 1240.386820229935 35.094943451599875
    vertex 1451.8700720782922 1239.6619527031116 35.39519341213381
  endloop
endfacet
facet normal -2.629306989585893e-30 0.382683432365085 0.9238795325112887
  outer loop
    vertex 1451.8700720782922 1240.386820229935 35.094943451599875
    vertex 1452.6700720782922 1239.6619527031116 35.39519341213381
    vertex 1452.6700720782922 1240.386820229935 35.094943451599875
  endloop
endfacet
facet normal -1.6039354593415916e-30 0.2334453638559646 0.9723699203976626
  outer loop
    vertex 1452.6700720782922 1238.8990400564383 35.578352533633776
    vertex 1451.8700720782922 1239.6619527031116 35.39519341213381
    vertex 1451.8700720782922 1238.8990400564383 35.578352533633776
  endloop
endfacet
facet normal -1.6039354593415916e-30 0.2334453638559646 0.9723699203976626
  outer loop
    vertex 1451.8700720782922 1239.6619527031116 35.39519341213381
    vertex 1452.6700720782922 1238.8990400564383 35.578352533633776
    vertex 1452.6700720782922 1239.6619527031116 35.39519341213381
  endloop
endfacet
facet normal -5.224529078561258e-30 0.7604059656000481 0.6494480483301637
  outer loop
    vertex 1451.8700720782922 1241.6524016371698 34.175444736590805
    vertex 1452.6700720782922 1242.1619527031119 33.578837092120395
    vertex 1451.8700720782922 1242.1619527031119 33.578837092120395
  endloop
endfacet
facet normal -5.224529078561258e-30 0.7604059656000481 0.6494480483301637
  outer loop
    vertex 1452.6700720782922 1242.1619527031119 33.578837092120395
    vertex 1451.8700720782922 1241.6524016371698 34.175444736590805
    vertex 1452.6700720782922 1241.6524016371698 34.175444736590805
  endloop
endfacet
facet normal -3.5899362555775855e-30 0.5224985647159677 -0.8526401643540807
  outer loop
    vertex 1452.6700720782922 1241.0557939926996 26.594825858783278
    vertex 1451.8700720782922 1240.386820229935 26.18487820971615
    vertex 1451.8700720782922 1241.0557939926996 26.594825858783278
  endloop
endfacet
facet normal -3.5899362555775855e-30 0.5224985647159677 -0.8526401643540807
  outer loop
    vertex 1451.8700720782922 1240.386820229935 26.18487820971615
    vertex 1452.6700720782922 1241.0557939926996 26.594825858783278
    vertex 1452.6700720782922 1240.386820229935 26.18487820971615
  endloop
endfacet
facet normal -3.589936255577595e-30 0.5224985647159692 0.8526401643540797
  outer loop
    vertex 1452.6700720782922 1240.386820229935 35.094943451599875
    vertex 1451.8700720782922 1241.0557939926996 34.684995802532754
    vertex 1451.8700720782922 1240.386820229935 35.094943451599875
  endloop
endfacet
facet normal -3.589936255577595e-30 0.5224985647159692 0.8526401643540797
  outer loop
    vertex 1451.8700720782922 1241.0557939926996 34.684995802532754
    vertex 1452.6700720782922 1240.386820229935 35.094943451599875
    vertex 1452.6700720782922 1241.0557939926996 34.684995802532754
  endloop
endfacet
facet normal -1.6039354593415937e-30 0.2334453638559646 -0.9723699203976626
  outer loop
    vertex 1452.6700720782922 1239.6619527031116 25.884628249182224
    vertex 1451.8700720782922 1238.8990400564383 25.701469127682252
    vertex 1451.8700720782922 1239.6619527031116 25.884628249182224
  endloop
endfacet
facet normal -1.6039354593415937e-30 0.2334453638559646 -0.9723699203976626
  outer loop
    vertex 1451.8700720782922 1238.8990400564383 25.701469127682252
    vertex 1452.6700720782922 1239.6619527031116 25.884628249182224
    vertex 1452.6700720782922 1238.8990400564383 25.701469127682252
  endloop
endfacet
facet normal 6.84953016498291e-30 -0.9969173337331282 0.07845909572784288
  outer loop
    vertex 1452.6700720782922 1233.1784260282614 31.42208315585919
    vertex 1451.8700720782922 1233.116867731237 30.639910830658014
    vertex 1452.6700720782922 1233.116867731237 30.639910830658014
  endloop
endfacet
facet normal 6.84953016498291e-30 -0.9969173337331282 0.07845909572784288
  outer loop
    vertex 1451.8700720782922 1233.116867731237 30.639910830658014
    vertex 1452.6700720782922 1233.1784260282614 31.42208315585919
    vertex 1451.8700720782922 1233.1784260282614 31.42208315585919
  endloop
endfacet
facet normal -5.3906971493054464e-31 0.07845909572779813 -0.9969173337331317
  outer loop
    vertex 1452.6700720782922 1238.8990400564383 25.701469127682252
    vertex 1451.8700720782922 1238.1168677312369 25.63991083065798
    vertex 1451.8700720782922 1238.8990400564383 25.701469127682252
  endloop
endfacet
facet normal -5.3906971493054464e-31 0.07845909572779813 -0.9969173337331317
  outer loop
    vertex 1451.8700720782922 1238.1168677312369 25.63991083065798
    vertex 1452.6700720782922 1238.8990400564383 25.701469127682252
    vertex 1452.6700720782922 1238.1168677312369 25.63991083065798
  endloop
endfacet
facet normal 5.224529078561259e-30 -0.7604059656000481 0.6494480483301637
  outer loop
    vertex 1452.6700720782922 1234.5813338253045 34.175444736590805
    vertex 1451.8700720782922 1234.0717827593623 33.578837092120395
    vertex 1452.6700720782922 1234.0717827593623 33.578837092120395
  endloop
endfacet
facet normal 5.224529078561259e-30 -0.7604059656000481 0.6494480483301637
  outer loop
    vertex 1451.8700720782922 1234.0717827593623 33.578837092120395
    vertex 1452.6700720782922 1234.5813338253045 34.175444736590805
    vertex 1451.8700720782922 1234.5813338253045 34.175444736590805
  endloop
endfacet
facet normal 5.224529078560639e-30 -0.7604059655999581 -0.6494480483302689
  outer loop
    vertex 1452.6700720782922 1239.8846346842033 32.40767778362432
    vertex 1451.8700720782922 1240.1394102171744 32.1093739613892
    vertex 1452.6700720782922 1240.1394102171744 32.1093739613892
  endloop
endfacet
facet normal 5.224529078560639e-30 -0.7604059655999581 -0.6494480483302689
  outer loop
    vertex 1451.8700720782922 1240.1394102171744 32.1093739613892
    vertex 1452.6700720782922 1239.8846346842033 32.40767778362432
    vertex 1451.8700720782922 1239.8846346842033 32.40767778362432
  endloop
endfacet
facet normal 6.84953016498291e-30 -0.9969173337331282 -0.07845909572784288
  outer loop
    vertex 1452.6700720782922 1233.116867731237 30.639910830658014
    vertex 1451.8700720782922 1233.1784260282614 29.857738505456837
    vertex 1452.6700720782922 1233.1784260282614 29.857738505456837
  endloop
endfacet
facet normal 6.84953016498291e-30 -0.9969173337331282 -0.07845909572784288
  outer loop
    vertex 1451.8700720782922 1233.1784260282614 29.857738505456837
    vertex 1452.6700720782922 1233.116867731237 30.639910830658014
    vertex 1451.8700720782922 1233.116867731237 30.639910830658014
  endloop
endfacet
facet normal 6.347708593900657e-30 -0.923879532511278 0.3826834323651112
  outer loop
    vertex 1452.6700720782922 1233.6618351102952 32.90986332935573
    vertex 1451.8700720782922 1233.3615851497614 32.184995802532775
    vertex 1452.6700720782922 1233.3615851497614 32.184995802532775
  endloop
endfacet
facet normal 6.347708593900657e-30 -0.923879532511278 0.3826834323651112
  outer loop
    vertex 1451.8700720782922 1233.3615851497614 32.184995802532775
    vertex 1452.6700720782922 1233.6618351102952 32.90986332935573
    vertex 1451.8700720782922 1233.6618351102952 32.90986332935573
  endloop
endfacet
facet normal 6.680872000033711e-30 -0.9723699203976768 -0.2334453638559051
  outer loop
    vertex 1452.6700720782922 1233.1784260282614 29.857738505456837
    vertex 1451.8700720782922 1233.3615851497614 29.09482585878325
    vertex 1452.6700720782922 1233.3615851497614 29.09482585878325
  endloop
endfacet
facet normal 6.680872000033711e-30 -0.9723699203976768 -0.2334453638559051
  outer loop
    vertex 1451.8700720782922 1233.3615851497614 29.09482585878325
    vertex 1452.6700720782922 1233.1784260282614 29.857738505456837
    vertex 1451.8700720782922 1233.1784260282614 29.857738505456837
  endloop
endfacet
facet normal 5.858243535348945e-30 -0.8526401643541017 -0.5224985647159333
  outer loop
    vertex 1452.6700720782922 1233.6618351102952 28.369958331960294
    vertex 1451.8700720782922 1234.0717827593623 27.70098456919563
    vertex 1452.6700720782922 1234.0717827593623 27.70098456919563
  endloop
endfacet
facet normal 5.858243535348945e-30 -0.8526401643541017 -0.5224985647159333
  outer loop
    vertex 1451.8700720782922 1234.0717827593623 27.70098456919563
    vertex 1452.6700720782922 1233.6618351102952 28.369958331960294
    vertex 1451.8700720782922 1233.6618351102952 28.369958331960294
  endloop
endfacet
facet normal 5.224529078561258e-30 -0.7604059656000481 -0.6494480483301637
  outer loop
    vertex 1452.6700720782922 1234.0717827593623 27.70098456919563
    vertex 1451.8700720782922 1234.5813338253045 27.104376924725223
    vertex 1452.6700720782922 1234.5813338253045 27.104376924725223
  endloop
endfacet
facet normal 5.224529078561258e-30 -0.7604059656000481 -0.6494480483301637
  outer loop
    vertex 1451.8700720782922 1234.5813338253045 27.104376924725223
    vertex 1452.6700720782922 1234.0717827593623 27.70098456919563
    vertex 1451.8700720782922 1234.0717827593623 27.70098456919563
  endloop
endfacet
facet normal 5.8582435353489786e-30 -0.8526401643541066 -0.5224985647159255
  outer loop
    vertex 1452.6700720782922 1240.1394102171744 32.1093739613892
    vertex 1451.8700720782922 1240.3443840417078 31.774887080006874
    vertex 1452.6700720782922 1240.3443840417078 31.774887080006874
  endloop
endfacet
facet normal 5.8582435353489786e-30 -0.8526401643541066 -0.5224985647159255
  outer loop
    vertex 1451.8700720782922 1240.3443840417078 31.774887080006874
    vertex 1452.6700720782922 1240.1394102171744 32.1093739613892
    vertex 1451.8700720782922 1240.1394102171744 32.1093739613892
  endloop
endfacet
facet normal 5.3906971493054464e-31 -0.07845909572779813 0.9969173337331317
  outer loop
    vertex 1452.6700720782922 1237.334695406036 35.578352533633776
    vertex 1451.8700720782922 1238.1168677312369 35.63991083065805
    vertex 1451.8700720782922 1237.334695406036 35.578352533633776
  endloop
endfacet
facet normal 5.3906971493054464e-31 -0.07845909572779813 0.9969173337331317
  outer loop
    vertex 1451.8700720782922 1238.1168677312369 35.63991083065805
    vertex 1452.6700720782922 1237.334695406036 35.578352533633776
    vertex 1452.6700720782922 1238.1168677312369 35.63991083065805
  endloop
endfacet
facet normal 6.347708593900656e-30 -0.923879532511278 -0.3826834323651112
  outer loop
    vertex 1452.6700720782922 1233.3615851497614 29.09482585878325
    vertex 1451.8700720782922 1233.6618351102952 28.369958331960294
    vertex 1452.6700720782922 1233.6618351102952 28.369958331960294
  endloop
endfacet
facet normal 6.347708593900656e-30 -0.923879532511278 -0.3826834323651112
  outer loop
    vertex 1451.8700720782922 1233.6618351102952 28.369958331960294
    vertex 1452.6700720782922 1233.3615851497614 29.09482585878325
    vertex 1451.8700720782922 1233.3615851497614 29.09482585878325
  endloop
endfacet
facet normal 6.680872000033709e-30 -0.9723699203976763 0.2334453638559068
  outer loop
    vertex 1452.6700720782922 1233.3615851497614 32.184995802532775
    vertex 1451.8700720782922 1233.1784260282614 31.42208315585919
    vertex 1452.6700720782922 1233.1784260282614 31.42208315585919
  endloop
endfacet
facet normal 6.680872000033709e-30 -0.9723699203976763 0.2334453638559068
  outer loop
    vertex 1451.8700720782922 1233.1784260282614 31.42208315585919
    vertex 1452.6700720782922 1233.3615851497614 32.184995802532775
    vertex 1451.8700720782922 1233.3615851497614 32.184995802532775
  endloop
endfacet
facet normal 2.6293069895858944e-30 -0.382683432365085 0.9238795325112887
  outer loop
    vertex 1452.6700720782922 1235.8469152325392 35.094943451599875
    vertex 1451.8700720782922 1236.5717827593623 35.39519341213381
    vertex 1451.8700720782922 1235.8469152325392 35.094943451599875
  endloop
endfacet
facet normal 2.6293069895858944e-30 -0.382683432365085 0.9238795325112887
  outer loop
    vertex 1451.8700720782922 1236.5717827593623 35.39519341213381
    vertex 1452.6700720782922 1235.8469152325392 35.094943451599875
    vertex 1452.6700720782922 1236.5717827593623 35.39519341213381
  endloop
endfacet
facet normal 6.347708593900669e-30 -0.9238795325112797 -0.38268343236510655
  outer loop
    vertex 1452.6700720782922 1240.3443840417078 31.774887080006874
    vertex 1451.8700720782922 1240.494509021975 31.412453316595396
    vertex 1452.6700720782922 1240.494509021975 31.412453316595396
  endloop
endfacet
facet normal 6.347708593900669e-30 -0.9238795325112797 -0.38268343236510655
  outer loop
    vertex 1451.8700720782922 1240.494509021975 31.412453316595396
    vertex 1452.6700720782922 1240.3443840417078 31.774887080006874
    vertex 1451.8700720782922 1240.3443840417078 31.774887080006874
  endloop
endfacet
facet normal 6.680872000033714e-30 -0.9723699203976772 -0.23344536385590342
  outer loop
    vertex 1452.6700720782922 1240.494509021975 31.412453316595396
    vertex 1451.8700720782922 1240.5860885827249 31.0309969932586
    vertex 1452.6700720782922 1240.5860885827249 31.0309969932586
  endloop
endfacet
facet normal 6.680872000033714e-30 -0.9723699203976772 -0.23344536385590342
  outer loop
    vertex 1451.8700720782922 1240.5860885827249 31.0309969932586
    vertex 1452.6700720782922 1240.494509021975 31.412453316595396
    vertex 1451.8700720782922 1240.494509021975 31.412453316595396
  endloop
endfacet
facet normal 2.6293069895858842e-30 -0.38268343236508373 -0.9238795325112893
  outer loop
    vertex 1452.6700720782922 1236.5717827593623 25.884628249182224
    vertex 1451.8700720782922 1235.8469152325392 26.18487820971615
    vertex 1451.8700720782922 1236.5717827593623 25.884628249182224
  endloop
endfacet
facet normal 2.6293069895858842e-30 -0.38268343236508373 -0.9238795325112893
  outer loop
    vertex 1451.8700720782922 1235.8469152325392 26.18487820971615
    vertex 1452.6700720782922 1236.5717827593623 25.884628249182224
    vertex 1452.6700720782922 1235.8469152325392 26.18487820971615
  endloop
endfacet
facet normal 1.6039354593415916e-30 -0.2334453638559646 -0.9723699203976626
  outer loop
    vertex 1452.6700720782922 1237.334695406036 25.701469127682252
    vertex 1451.8700720782922 1236.5717827593623 25.884628249182224
    vertex 1451.8700720782922 1237.334695406036 25.701469127682252
  endloop
endfacet
facet normal 1.6039354593415916e-30 -0.2334453638559646 -0.9723699203976626
  outer loop
    vertex 1451.8700720782922 1236.5717827593623 25.884628249182224
    vertex 1452.6700720782922 1237.334695406036 25.701469127682252
    vertex 1452.6700720782922 1236.5717827593623 25.884628249182224
  endloop
endfacet
facet normal 5.858243535348953e-30 -0.8526401643541026 0.522498564715932
  outer loop
    vertex 1452.6700720782922 1234.0717827593623 33.578837092120395
    vertex 1451.8700720782922 1233.6618351102952 32.90986332935573
    vertex 1452.6700720782922 1233.6618351102952 32.90986332935573
  endloop
endfacet
facet normal 5.858243535348953e-30 -0.8526401643541026 0.522498564715932
  outer loop
    vertex 1451.8700720782922 1233.6618351102952 32.90986332935573
    vertex 1452.6700720782922 1234.0717827593623 33.578837092120395
    vertex 1451.8700720782922 1234.0717827593623 33.578837092120395
  endloop
endfacet
facet normal 1.6039354593415937e-30 -0.2334453638559646 0.9723699203976626
  outer loop
    vertex 1452.6700720782922 1236.5717827593623 35.39519341213381
    vertex 1451.8700720782922 1237.334695406036 35.578352533633776
    vertex 1451.8700720782922 1236.5717827593623 35.39519341213381
  endloop
endfacet
facet normal 1.6039354593415937e-30 -0.2334453638559646 0.9723699203976626
  outer loop
    vertex 1451.8700720782922 1237.334695406036 35.578352533633776
    vertex 1452.6700720782922 1236.5717827593623 35.39519341213381
    vertex 1452.6700720782922 1237.334695406036 35.578352533633776
  endloop
endfacet
facet normal 4.462169376641023e-30 -0.6494480483301416 -0.7604059656000668
  outer loop
    vertex 1452.6700720782922 1235.1779414697746 26.594825858783278
    vertex 1451.8700720782922 1234.5813338253045 27.104376924725223
    vertex 1451.8700720782922 1235.1779414697746 26.594825858783278
  endloop
endfacet
facet normal 4.462169376641023e-30 -0.6494480483301416 -0.7604059656000668
  outer loop
    vertex 1451.8700720782922 1234.5813338253045 27.104376924725223
    vertex 1452.6700720782922 1235.1779414697746 26.594825858783278
    vertex 1452.6700720782922 1234.5813338253045 27.104376924725223
  endloop
endfacet
facet normal 5.390697149305427e-31 -0.07845909572779813 -0.9969173337331317
  outer loop
    vertex 1452.6700720782922 1238.1168677312369 25.63991083065798
    vertex 1451.8700720782922 1237.334695406036 25.701469127682252
    vertex 1451.8700720782922 1238.1168677312369 25.63991083065798
  endloop
endfacet
facet normal 5.390697149305427e-31 -0.07845909572779813 -0.9969173337331317
  outer loop
    vertex 1451.8700720782922 1237.334695406036 25.701469127682252
    vertex 1452.6700720782922 1238.1168677312369 25.63991083065798
    vertex 1452.6700720782922 1237.334695406036 25.701469127682252
  endloop
endfacet
facet normal 3.589936255577595e-30 -0.5224985647159692 -0.8526401643540797
  outer loop
    vertex 1452.6700720782922 1235.8469152325392 26.18487820971615
    vertex 1451.8700720782922 1235.1779414697746 26.594825858783278
    vertex 1451.8700720782922 1235.8469152325392 26.18487820971615
  endloop
endfacet
facet normal 3.589936255577595e-30 -0.5224985647159692 -0.8526401643540797
  outer loop
    vertex 1451.8700720782922 1235.1779414697746 26.594825858783278
    vertex 1452.6700720782922 1235.8469152325392 26.18487820971615
    vertex 1452.6700720782922 1235.1779414697746 26.594825858783278
  endloop
endfacet
facet normal 3.5899362555775855e-30 -0.5224985647159677 0.8526401643540807
  outer loop
    vertex 1452.6700720782922 1235.1779414697746 34.684995802532754
    vertex 1451.8700720782922 1235.8469152325392 35.094943451599875
    vertex 1451.8700720782922 1235.1779414697746 34.684995802532754
  endloop
endfacet
facet normal 3.5899362555775855e-30 -0.5224985647159677 0.8526401643540807
  outer loop
    vertex 1451.8700720782922 1235.8469152325392 35.094943451599875
    vertex 1452.6700720782922 1235.1779414697746 34.684995802532754
    vertex 1452.6700720782922 1235.8469152325392 35.094943451599875
  endloop
endfacet
facet normal 4.462169376641024e-30 -0.6494480483301416 0.7604059656000668
  outer loop
    vertex 1452.6700720782922 1234.5813338253045 34.175444736590805
    vertex 1451.8700720782922 1235.1779414697746 34.684995802532754
    vertex 1451.8700720782922 1234.5813338253045 34.175444736590805
  endloop
endfacet
facet normal 4.462169376641024e-30 -0.6494480483301416 0.7604059656000668
  outer loop
    vertex 1451.8700720782922 1235.1779414697746 34.684995802532754
    vertex 1452.6700720782922 1234.5813338253045 34.175444736590805
    vertex 1452.6700720782922 1235.1779414697746 34.684995802532754
  endloop
endfacet
endsolid sumo
