solid sumo
facet normal 0.0 -0.9659258262890628 0.2588190451025412
  outer loop
    vertex 1381.852772078291 1235.9149243917718 18.239466531348167
    vertex 1406.8527720782909 1235.9149243917718 18.239466531348167
    vertex 1381.852772078291 1236.3239997667952 19.766156615061703
  endloop
endfacet
facet normal 0.0 -0.9659258262890628 0.2588190451025412
  outer loop
    vertex 1406.8527720782909 1236.3239997667952 19.766156615061703
    vertex 1381.852772078291 1236.3239997667952 19.766156615061703
    vertex 1406.8527720782909 1235.9149243917718 18.239466531348167
  endloop
endfacet
facet normal -0.0 -0.8386705679454218 -0.5446390350150307
  outer loop
    vertex 1381.852772078291 1238.4687965477904 6.224442690383653
    vertex 1406.8527720782909 1238.4687965477904 6.224442690383653
    vertex 1381.852772078291 1237.6079695657072 7.549999999999999
  endloop
endfacet
facet normal -0.0 -0.8386705679454218 -0.5446390350150307
  outer loop
    vertex 1406.8527720782909 1237.6079695657072 7.549999999999999
    vertex 1381.852772078291 1237.6079695657072 7.549999999999999
    vertex 1406.8527720782909 1238.4687965477904 6.224442690383653
  endloop
endfacet
facet normal 0.0 -0.8910065241883552 0.45399049973957195
  outer loop
    vertex 1381.852772078291 1236.8904167524488 21.241723310444588
    vertex 1406.8527720782909 1236.8904167524488 21.241723310444588
    vertex 1381.852772078291 1237.6079695657072 22.650000000000002
  endloop
endfacet
facet normal 0.0 -0.8910065241883552 0.45399049973957195
  outer loop
    vertex 1406.8527720782909 1237.6079695657072 22.650000000000002
    vertex 1381.852772078291 1237.6079695657072 22.650000000000002
    vertex 1406.8527720782909 1236.8904167524488 21.241723310444588
  endloop
endfacet
facet normal 0.0 -0.8386705679454204 0.5446390350150326
  outer loop
    vertex 1381.852772078291 1237.6079695657072 22.650000000000002
    vertex 1406.8527720782909 1237.6079695657072 22.650000000000002
    vertex 1381.852772078291 1238.4687965477904 23.975557309616338
  endloop
endfacet
facet normal 0.0 -0.8386705679454204 0.5446390350150326
  outer loop
    vertex 1406.8527720782909 1238.4687965477904 23.975557309616338
    vertex 1381.852772078291 1238.4687965477904 23.975557309616338
    vertex 1406.8527720782909 1237.6079695657072 22.650000000000002
  endloop
endfacet
facet normal 0.0 -0.9986295347545735 0.05233595624295382
  outer loop
    vertex 1381.852772078291 1235.5849531628521 15.099999999999994
    vertex 1406.8527720782909 1235.5849531628521 15.099999999999994
    vertex 1381.852772078291 1235.667672542791 16.678379795341574
  endloop
endfacet
facet normal 0.0 -0.9986295347545735 0.05233595624295382
  outer loop
    vertex 1406.8527720782909 1235.667672542791 16.678379795341574
    vertex 1381.852772078291 1235.667672542791 16.678379795341574
    vertex 1406.8527720782909 1235.5849531628521 15.099999999999994
  endloop
endfacet
facet normal 0.0 -0.7771459614569636 0.6293203910498467
  outer loop
    vertex 1381.852772078291 1238.4687965477904 23.975557309616338
    vertex 1406.8527720782909 1238.4687965477904 23.975557309616338
    vertex 1381.852772078291 1239.4634662981437 25.203872156018758
  endloop
endfacet
facet normal 0.0 -0.7771459614569636 0.6293203910498467
  outer loop
    vertex 1406.8527720782909 1239.4634662981437 25.203872156018758
    vertex 1381.852772078291 1239.4634662981437 25.203872156018758
    vertex 1406.8527720782909 1238.4687965477904 23.975557309616338
  endloop
endfacet
facet normal -0.0 -0.9659258262890631 -0.25881904510254067
  outer loop
    vertex 1381.852772078291 1236.3239997667952 10.43384338493829
    vertex 1406.8527720782909 1236.3239997667952 10.43384338493829
    vertex 1381.852772078291 1235.9149243917718 11.96053346865183
  endloop
endfacet
facet normal -0.0 -0.9659258262890631 -0.25881904510254067
  outer loop
    vertex 1406.8527720782909 1235.9149243917718 11.96053346865183
    vertex 1381.852772078291 1235.9149243917718 11.96053346865183
    vertex 1406.8527720782909 1236.3239997667952 10.43384338493829
  endloop
endfacet
facet normal -0.0 -0.8910065241883554 -0.45399049973957134
  outer loop
    vertex 1381.852772078291 1237.6079695657072 7.549999999999999
    vertex 1406.8527720782909 1237.6079695657072 7.549999999999999
    vertex 1381.852772078291 1236.8904167524488 8.958276689555413
  endloop
endfacet
facet normal -0.0 -0.8910065241883554 -0.45399049973957134
  outer loop
    vertex 1406.8527720782909 1236.8904167524488 8.958276689555413
    vertex 1381.852772078291 1236.8904167524488 8.958276689555413
    vertex 1406.8527720782909 1237.6079695657072 7.549999999999999
  endloop
endfacet
facet normal -0.0 -0.9335804264972142 -0.35836794954526824
  outer loop
    vertex 1381.852772078291 1236.8904167524488 8.958276689555413
    vertex 1406.8527720782909 1236.8904167524488 8.958276689555413
    vertex 1381.852772078291 1236.3239997667952 10.43384338493829
  endloop
endfacet
facet normal -0.0 -0.9335804264972142 -0.35836794954526824
  outer loop
    vertex 1406.8527720782909 1236.3239997667952 10.43384338493829
    vertex 1381.852772078291 1236.3239997667952 10.43384338493829
    vertex 1406.8527720782909 1236.8904167524488 8.958276689555413
  endloop
endfacet
facet normal 1.0 0.0 0.0
  outer loop
    vertex 1406.8527720782909 1235.5849531628521 15.099999999999994
    vertex 1406.8527720782909 1235.667672542791 13.521620204658428
    vertex 1406.8527720782909 1235.667672542791 16.678379795341574
  endloop
endfacet
facet normal 1.0 0.0 0.0
  outer loop
    vertex 1406.8527720782909 1235.9149243917718 18.239466531348167
    vertex 1406.8527720782909 1235.667672542791 16.678379795341574
    vertex 1406.8527720782909 1235.667672542791 13.521620204658428
  endloop
endfacet
facet normal 1.0 0.0 0.0
  outer loop
    vertex 1406.8527720782909 1235.9149243917718 11.96053346865183
    vertex 1406.8527720782909 1235.9149243917718 18.239466531348167
    vertex 1406.8527720782909 1235.667672542791 13.521620204658428
  endloop
endfacet
facet normal 1.0 0.0 0.0
  outer loop
    vertex 1406.8527720782909 1236.3239997667952 19.766156615061703
    vertex 1406.8527720782909 1235.9149243917718 18.239466531348167
    vertex 1406.8527720782909 1235.9149243917718 11.96053346865183
  endloop
endfacet
facet normal 1.0 0.0 0.0
  outer loop
    vertex 1406.8527720782909 1236.3239997667952 10.43384338493829
    vertex 1406.8527720782909 1236.3239997667952 19.766156615061703
    vertex 1406.8527720782909 1235.9149243917718 11.96053346865183
  endloop
endfacet
facet normal 1.0 0.0 0.0
  outer loop
    vertex 1406.8527720782909 1236.8904167524488 21.241723310444588
    vertex 1406.8527720782909 1236.3239997667952 19.766156615061703
    vertex 1406.8527720782909 1236.3239997667952 10.43384338493829
  endloop
endfacet
facet normal 1.0 0.0 0.0
  outer loop
    vertex 1406.8527720782909 1236.8904167524488 8.958276689555413
    vertex 1406.8527720782909 1236.8904167524488 21.241723310444588
    vertex 1406.8527720782909 1236.3239997667952 10.43384338493829
  endloop
endfacet
facet normal 1.0 0.0 0.0
  outer loop
    vertex 1406.8527720782909 1237.6079695657072 22.650000000000002
    vertex 1406.8527720782909 1236.8904167524488 21.241723310444588
    vertex 1406.8527720782909 1236.8904167524488 8.958276689555413
  endloop
endfacet
facet normal 1.0 0.0 0.0
  outer loop
    vertex 1406.8527720782909 1237.6079695657072 7.549999999999999
    vertex 1406.8527720782909 1237.6079695657072 22.650000000000002
    vertex 1406.8527720782909 1236.8904167524488 8.958276689555413
  endloop
endfacet
facet normal 1.0 0.0 0.0
  outer loop
    vertex 1406.8527720782909 1238.4687965477904 23.975557309616338
    vertex 1406.8527720782909 1237.6079695657072 22.650000000000002
    vertex 1406.8527720782909 1237.6079695657072 7.549999999999999
  endloop
endfacet
facet normal 1.0 0.0 0.0
  outer loop
    vertex 1406.8527720782909 1238.4687965477904 6.224442690383653
    vertex 1406.8527720782909 1238.4687965477904 23.975557309616338
    vertex 1406.8527720782909 1237.6079695657072 7.549999999999999
  endloop
endfacet
facet normal 1.0 0.0 0.0
  outer loop
    vertex 1406.8527720782909 1239.4634662981437 25.203872156018758
    vertex 1406.8527720782909 1238.4687965477904 23.975557309616338
    vertex 1406.8527720782909 1238.4687965477904 6.224442690383653
  endloop
endfacet
facet normal 1.0 0.0 0.0
  outer loop
    vertex 1406.8527720782909 1239.4634662981434 4.996127843981241
    vertex 1406.8527720782909 1239.4634662981437 25.203872156018758
    vertex 1406.8527720782909 1238.4687965477904 6.224442690383653
  endloop
endfacet
facet normal 1.0 0.0 0.0
  outer loop
    vertex 1406.8527720782909 1240.5810810068333 3.878513135291348
    vertex 1406.8527720782909 1239.4634662981437 25.203872156018758
    vertex 1406.8527720782909 1239.4634662981434 4.996127843981241
  endloop
endfacet
facet normal 1.0 0.0 0.0
  outer loop
    vertex 1406.8527720782909 1240.5810810068333 26.32148686470865
    vertex 1406.8527720782909 1239.4634662981437 25.203872156018758
    vertex 1406.8527720782909 1240.5810810068333 3.878513135291348
  endloop
endfacet
facet normal 1.0 0.0 0.0
  outer loop
    vertex 1406.8527720782909 1241.8093958532356 27.316156615061697
    vertex 1406.8527720782909 1240.5810810068333 26.32148686470865
    vertex 1406.8527720782909 1240.5810810068333 3.878513135291348
  endloop
endfacet
facet normal 1.0 0.0 0.0
  outer loop
    vertex 1406.8527720782909 1241.8093958532356 2.8838433849382925
    vertex 1406.8527720782909 1241.8093958532356 27.316156615061697
    vertex 1406.8527720782909 1240.5810810068333 3.878513135291348
  endloop
endfacet
facet normal 1.0 0.0 0.0
  outer loop
    vertex 1406.8527720782909 1243.1349531628523 28.17698359714502
    vertex 1406.8527720782909 1241.8093958532356 27.316156615061697
    vertex 1406.8527720782909 1241.8093958532356 2.8838433849382925
  endloop
endfacet
facet normal 1.0 0.0 0.0
  outer loop
    vertex 1406.8527720782909 1243.1349531628523 2.0230164028549757
    vertex 1406.8527720782909 1243.1349531628523 28.17698359714502
    vertex 1406.8527720782909 1241.8093958532356 2.8838433849382925
  endloop
endfacet
facet normal 1.0 0.0 0.0
  outer loop
    vertex 1406.8527720782909 1244.5432298524074 28.894536410403266
    vertex 1406.8527720782909 1243.1349531628523 28.17698359714502
    vertex 1406.8527720782909 1243.1349531628523 2.0230164028549757
  endloop
endfacet
facet normal 1.0 0.0 0.0
  outer loop
    vertex 1406.8527720782909 1244.5432298524074 1.3054635895967255
    vertex 1406.8527720782909 1244.5432298524074 28.894536410403266
    vertex 1406.8527720782909 1243.1349531628523 2.0230164028549757
  endloop
endfacet
facet normal 1.0 0.0 0.0
  outer loop
    vertex 1406.8527720782909 1246.0187965477905 29.46095339605681
    vertex 1406.8527720782909 1244.5432298524074 28.894536410403266
    vertex 1406.8527720782909 1244.5432298524074 1.3054635895967255
  endloop
endfacet
facet normal 1.0 0.0 0.0
  outer loop
    vertex 1406.8527720782909 1246.0187965477905 0.7390466039431822
    vertex 1406.8527720782909 1246.0187965477905 29.46095339605681
    vertex 1406.8527720782909 1244.5432298524074 1.3054635895967255
  endloop
endfacet
facet normal 1.0 0.0 0.0
  outer loop
    vertex 1406.8527720782909 1247.545486631504 29.870028771080452
    vertex 1406.8527720782909 1246.0187965477905 29.46095339605681
    vertex 1406.8527720782909 1246.0187965477905 0.7390466039431822
  endloop
endfacet
facet normal 1.0 0.0 0.0
  outer loop
    vertex 1406.8527720782909 1247.545486631504 0.3299712289195361
    vertex 1406.8527720782909 1247.545486631504 29.870028771080452
    vertex 1406.8527720782909 1246.0187965477905 0.7390466039431822
  endloop
endfacet
facet normal 1.0 0.0 0.0
  outer loop
    vertex 1406.8527720782909 1249.1065733675105 30.117280620060924
    vertex 1406.8527720782909 1247.545486631504 29.870028771080452
    vertex 1406.8527720782909 1247.545486631504 0.3299712289195361
  endloop
endfacet
facet normal 1.0 0.0 0.0
  outer loop
    vertex 1406.8527720782909 1249.1065733675105 0.08271937993907214
    vertex 1406.8527720782909 1249.1065733675105 30.117280620060924
    vertex 1406.8527720782909 1247.545486631504 0.3299712289195361
  endloop
endfacet
facet normal 1.0 0.0 0.0
  outer loop
    vertex 1406.8527720782909 1250.684953162852 30.19999999999999
    vertex 1406.8527720782909 1249.1065733675105 30.117280620060924
    vertex 1406.8527720782909 1249.1065733675105 0.08271937993907214
  endloop
endfacet
facet normal 1.0 0.0 0.0
  outer loop
    vertex 1406.8527720782909 1250.684953162852 0.0
    vertex 1406.8527720782909 1250.684953162852 30.19999999999999
    vertex 1406.8527720782909 1249.1065733675105 0.08271937993907214
  endloop
endfacet
facet normal 1.0 0.0 0.0
  outer loop
    vertex 1406.8527720782909 1252.2633329581936 30.117280620060924
    vertex 1406.8527720782909 1250.684953162852 30.19999999999999
    vertex 1406.8527720782909 1250.684953162852 0.0
  endloop
endfacet
facet normal 1.0 0.0 0.0
  outer loop
    vertex 1406.8527720782909 1252.2633329581936 0.08271937993907214
    vertex 1406.8527720782909 1252.2633329581936 30.117280620060924
    vertex 1406.8527720782909 1250.684953162852 0.0
  endloop
endfacet
facet normal 1.0 0.0 0.0
  outer loop
    vertex 1406.8527720782909 1253.8244196942003 29.870028771080452
    vertex 1406.8527720782909 1252.2633329581936 30.117280620060924
    vertex 1406.8527720782909 1252.2633329581936 0.08271937993907214
  endloop
endfacet
facet normal 1.0 0.0 0.0
  outer loop
    vertex 1406.8527720782909 1253.8244196942003 0.3299712289195333
    vertex 1406.8527720782909 1253.8244196942003 29.870028771080452
    vertex 1406.8527720782909 1252.2633329581936 0.08271937993907214
  endloop
endfacet
facet normal 1.0 0.0 0.0
  outer loop
    vertex 1406.8527720782909 1255.3511097779137 29.46095339605681
    vertex 1406.8527720782909 1253.8244196942003 29.870028771080452
    vertex 1406.8527720782909 1253.8244196942003 0.3299712289195333
  endloop
endfacet
facet normal 1.0 0.0 0.0
  outer loop
    vertex 1406.8527720782909 1255.3511097779137 0.7390466039431794
    vertex 1406.8527720782909 1255.3511097779137 29.46095339605681
    vertex 1406.8527720782909 1253.8244196942003 0.3299712289195333
  endloop
endfacet
facet normal 1.0 0.0 0.0
  outer loop
    vertex 1406.8527720782909 1256.8266764732966 28.89453641040326
    vertex 1406.8527720782909 1255.3511097779137 29.46095339605681
    vertex 1406.8527720782909 1255.3511097779137 0.7390466039431794
  endloop
endfacet
facet normal 1.0 0.0 0.0
  outer loop
    vertex 1406.8527720782909 1256.8266764732966 1.3054635895967255
    vertex 1406.8527720782909 1256.8266764732966 28.89453641040326
    vertex 1406.8527720782909 1255.3511097779137 0.7390466039431794
  endloop
endfacet
facet normal 1.0 0.0 0.0
  outer loop
    vertex 1406.8527720782909 1258.234953162852 28.17698359714501
    vertex 1406.8527720782909 1256.8266764732966 28.89453641040326
    vertex 1406.8527720782909 1256.8266764732966 1.3054635895967255
  endloop
endfacet
facet normal 1.0 0.0 0.0
  outer loop
    vertex 1406.8527720782909 1258.234953162852 2.0230164028549757
    vertex 1406.8527720782909 1258.234953162852 28.17698359714501
    vertex 1406.8527720782909 1256.8266764732966 1.3054635895967255
  endloop
endfacet
facet normal 1.0 0.0 0.0
  outer loop
    vertex 1406.8527720782909 1259.5605104724684 27.316156615061697
    vertex 1406.8527720782909 1258.234953162852 28.17698359714501
    vertex 1406.8527720782909 1258.234953162852 2.0230164028549757
  endloop
endfacet
facet normal 1.0 0.0 0.0
  outer loop
    vertex 1406.8527720782909 1259.5605104724684 2.8838433849382925
    vertex 1406.8527720782909 1259.5605104724684 27.316156615061697
    vertex 1406.8527720782909 1258.234953162852 2.0230164028549757
  endloop
endfacet
facet normal 1.0 0.0 0.0
  outer loop
    vertex 1406.8527720782909 1260.788825318871 26.32148686470864
    vertex 1406.8527720782909 1259.5605104724684 27.316156615061697
    vertex 1406.8527720782909 1259.5605104724684 2.8838433849382925
  endloop
endfacet
facet normal 1.0 0.0 0.0
  outer loop
    vertex 1406.8527720782909 1260.788825318871 3.878513135291342
    vertex 1406.8527720782909 1260.788825318871 26.32148686470864
    vertex 1406.8527720782909 1259.5605104724684 2.8838433849382925
  endloop
endfacet
facet normal 1.0 0.0 0.0
  outer loop
    vertex 1406.8527720782909 1261.9064400275608 25.203872156018747
    vertex 1406.8527720782909 1260.788825318871 26.32148686470864
    vertex 1406.8527720782909 1260.788825318871 3.878513135291342
  endloop
endfacet
facet normal 1.0 0.0 0.0
  outer loop
    vertex 1406.8527720782909 1261.9064400275608 4.996127843981237
    vertex 1406.8527720782909 1261.9064400275608 25.203872156018747
    vertex 1406.8527720782909 1260.788825318871 3.878513135291342
  endloop
endfacet
facet normal 1.0 0.0 0.0
  outer loop
    vertex 1406.8527720782909 1262.9011097779137 23.975557309616338
    vertex 1406.8527720782909 1261.9064400275608 25.203872156018747
    vertex 1406.8527720782909 1261.9064400275608 4.996127843981237
  endloop
endfacet
facet normal 1.0 0.0 0.0
  outer loop
    vertex 1406.8527720782909 1262.9011097779137 6.224442690383651
    vertex 1406.8527720782909 1262.9011097779137 23.975557309616338
    vertex 1406.8527720782909 1261.9064400275608 4.996127843981237
  endloop
endfacet
facet normal 1.0 0.0 0.0
  outer loop
    vertex 1406.8527720782909 1263.761936759997 22.649999999999988
    vertex 1406.8527720782909 1262.9011097779137 23.975557309616338
    vertex 1406.8527720782909 1262.9011097779137 6.224442690383651
  endloop
endfacet
facet normal 1.0 0.0 0.0
  outer loop
    vertex 1406.8527720782909 1263.761936759997 7.549999999999992
    vertex 1406.8527720782909 1263.761936759997 22.649999999999988
    vertex 1406.8527720782909 1262.9011097779137 6.224442690383651
  endloop
endfacet
facet normal 1.0 0.0 0.0
  outer loop
    vertex 1406.8527720782909 1264.4794895732555 21.24172331044457
    vertex 1406.8527720782909 1263.761936759997 22.649999999999988
    vertex 1406.8527720782909 1263.761936759997 7.549999999999992
  endloop
endfacet
facet normal 1.0 0.0 0.0
  outer loop
    vertex 1406.8527720782909 1264.4794895732555 8.958276689555412
    vertex 1406.8527720782909 1264.4794895732555 21.24172331044457
    vertex 1406.8527720782909 1263.761936759997 7.549999999999992
  endloop
endfacet
facet normal 1.0 0.0 0.0
  outer loop
    vertex 1406.8527720782909 1265.0459065589089 19.766156615061696
    vertex 1406.8527720782909 1264.4794895732555 21.24172331044457
    vertex 1406.8527720782909 1264.4794895732555 8.958276689555412
  endloop
endfacet
facet normal 1.0 0.0 0.0
  outer loop
    vertex 1406.8527720782909 1265.0459065589089 10.433843384938289
    vertex 1406.8527720782909 1265.0459065589089 19.766156615061696
    vertex 1406.8527720782909 1264.4794895732555 8.958276689555412
  endloop
endfacet
facet normal 1.0 0.0 0.0
  outer loop
    vertex 1406.8527720782909 1265.4549819339325 18.239466531348157
    vertex 1406.8527720782909 1265.0459065589089 19.766156615061696
    vertex 1406.8527720782909 1265.0459065589089 10.433843384938289
  endloop
endfacet
facet normal 1.0 0.0 0.0
  outer loop
    vertex 1406.8527720782909 1265.4549819339325 11.960533468651825
    vertex 1406.8527720782909 1265.4549819339325 18.239466531348157
    vertex 1406.8527720782909 1265.0459065589089 10.433843384938289
  endloop
endfacet
facet normal 1.0 0.0 0.0
  outer loop
    vertex 1406.8527720782909 1265.702233782913 16.678379795341556
    vertex 1406.8527720782909 1265.4549819339325 18.239466531348157
    vertex 1406.8527720782909 1265.4549819339325 11.960533468651825
  endloop
endfacet
facet normal 1.0 0.0 0.0
  outer loop
    vertex 1406.8527720782909 1265.702233782913 13.521620204658424
    vertex 1406.8527720782909 1265.702233782913 16.678379795341556
    vertex 1406.8527720782909 1265.4549819339325 11.960533468651825
  endloop
endfacet
facet normal 1.0 0.0 0.0
  outer loop
    vertex 1406.8527720782909 1265.7849531628522 15.099999999999994
    vertex 1406.8527720782909 1265.702233782913 16.678379795341556
    vertex 1406.8527720782909 1265.702233782913 13.521620204658424
  endloop
endfacet
facet normal -0.0 -0.9876883405951404 -0.1564344650402147
  outer loop
    vertex 1381.852772078291 1235.9149243917718 11.96053346865183
    vertex 1406.8527720782909 1235.9149243917718 11.96053346865183
    vertex 1381.852772078291 1235.667672542791 13.521620204658428
  endloop
endfacet
facet normal -0.0 -0.9876883405951404 -0.1564344650402147
  outer loop
    vertex 1406.8527720782909 1235.667672542791 13.521620204658428
    vertex 1381.852772078291 1235.667672542791 13.521620204658428
    vertex 1406.8527720782909 1235.9149243917718 11.96053346865183
  endloop
endfacet
facet normal -0.0 -0.7771459614569897 -0.6293203910498143
  outer loop
    vertex 1381.852772078291 1239.4634662981434 4.996127843981241
    vertex 1406.8527720782909 1239.4634662981434 4.996127843981241
    vertex 1381.852772078291 1238.4687965477904 6.224442690383653
  endloop
endfacet
facet normal -0.0 -0.7771459614569897 -0.6293203910498143
  outer loop
    vertex 1406.8527720782909 1238.4687965477904 6.224442690383653
    vertex 1381.852772078291 1238.4687965477904 6.224442690383653
    vertex 1406.8527720782909 1239.4634662981434 4.996127843981241
  endloop
endfacet
facet normal -0.0 -0.9986295347545734 -0.052335956242954236
  outer loop
    vertex 1381.852772078291 1235.667672542791 13.521620204658428
    vertex 1406.8527720782909 1235.667672542791 13.521620204658428
    vertex 1381.852772078291 1235.5849531628521 15.099999999999994
  endloop
endfacet
facet normal -0.0 -0.9986295347545734 -0.052335956242954236
  outer loop
    vertex 1406.8527720782909 1235.5849531628521 15.099999999999994
    vertex 1381.852772078291 1235.5849531628521 15.099999999999994
    vertex 1406.8527720782909 1235.667672542791 13.521620204658428
  endloop
endfacet
facet normal 0.0 -0.9876883405951403 0.1564344650402151
  outer loop
    vertex 1381.852772078291 1235.667672542791 16.678379795341574
    vertex 1406.8527720782909 1235.667672542791 16.678379795341574
    vertex 1381.852772078291 1235.9149243917718 18.239466531348167
  endloop
endfacet
facet normal 0.0 -0.9876883405951403 0.1564344650402151
  outer loop
    vertex 1406.8527720782909 1235.9149243917718 18.239466531348167
    vertex 1381.852772078291 1235.9149243917718 18.239466531348167
    vertex 1406.8527720782909 1235.667672542791 16.678379795341574
  endloop
endfacet
facet normal -0.0 -0.7071067811865458 -0.7071067811865493
  outer loop
    vertex 1406.8527720782909 1240.5810810068333 3.878513135291348
    vertex 1406.8527720782909 1239.4634662981434 4.996127843981241
    vertex 1381.852772078291 1240.5810810068333 3.878513135291348
  endloop
endfacet
facet normal -0.0 -0.7071067811865458 -0.7071067811865493
  outer loop
    vertex 1381.852772078291 1239.4634662981434 4.996127843981241
    vertex 1381.852772078291 1240.5810810068333 3.878513135291348
    vertex 1406.8527720782909 1239.4634662981434 4.996127843981241
  endloop
endfacet
facet normal 0.0 -0.9335804264972147 0.35836794954526674
  outer loop
    vertex 1381.852772078291 1236.3239997667952 19.766156615061703
    vertex 1406.8527720782909 1236.3239997667952 19.766156615061703
    vertex 1381.852772078291 1236.8904167524488 21.241723310444588
  endloop
endfacet
facet normal 0.0 -0.9335804264972147 0.35836794954526674
  outer loop
    vertex 1406.8527720782909 1236.8904167524488 21.241723310444588
    vertex 1381.852772078291 1236.8904167524488 21.241723310444588
    vertex 1406.8527720782909 1236.3239997667952 19.766156615061703
  endloop
endfacet
facet normal 0.0 0.6293203910498186 0.7771459614569862
  outer loop
    vertex 1406.8527720782909 1259.5605104724684 27.316156615061697
    vertex 1406.8527720782909 1260.788825318871 26.32148686470864
    vertex 1381.852772078291 1259.5605104724684 27.316156615061697
  endloop
endfacet
facet normal 0.0 0.6293203910498186 0.7771459614569862
  outer loop
    vertex 1381.852772078291 1260.788825318871 26.32148686470864
    vertex 1381.852772078291 1259.5605104724684 27.316156615061697
    vertex 1406.8527720782909 1260.788825318871 26.32148686470864
  endloop
endfacet
facet normal 0.0 0.933580426497214 0.3583679495452685
  outer loop
    vertex 1406.8527720782909 1265.0459065589089 19.766156615061696
    vertex 1381.852772078291 1265.0459065589089 19.766156615061696
    vertex 1406.8527720782909 1264.4794895732555 21.24172331044457
  endloop
endfacet
facet normal 0.0 0.933580426497214 0.3583679495452685
  outer loop
    vertex 1381.852772078291 1264.4794895732555 21.24172331044457
    vertex 1406.8527720782909 1264.4794895732555 21.24172331044457
    vertex 1381.852772078291 1265.0459065589089 19.766156615061696
  endloop
endfacet
facet normal 0.0 0.9986295347545734 0.052335956242954375
  outer loop
    vertex 1406.8527720782909 1265.7849531628522 15.099999999999994
    vertex 1381.852772078291 1265.7849531628522 15.099999999999994
    vertex 1406.8527720782909 1265.702233782913 16.678379795341556
  endloop
endfacet
facet normal 0.0 0.9986295347545734 0.052335956242954375
  outer loop
    vertex 1381.852772078291 1265.702233782913 16.678379795341556
    vertex 1406.8527720782909 1265.702233782913 16.678379795341556
    vertex 1381.852772078291 1265.7849531628522 15.099999999999994
  endloop
endfacet
facet normal 0.0 0.25881904510252884 0.9659258262890662
  outer loop
    vertex 1406.8527720782909 1253.8244196942003 29.870028771080452
    vertex 1406.8527720782909 1255.3511097779137 29.46095339605681
    vertex 1381.852772078291 1253.8244196942003 29.870028771080452
  endloop
endfacet
facet normal 0.0 0.25881904510252884 0.9659258262890662
  outer loop
    vertex 1381.852772078291 1255.3511097779137 29.46095339605681
    vertex 1381.852772078291 1253.8244196942003 29.870028771080452
    vertex 1406.8527720782909 1255.3511097779137 29.46095339605681
  endloop
endfacet
facet normal 0.0 -0.4539904997395493 0.8910065241883666
  outer loop
    vertex 1406.8527720782909 1243.1349531628523 28.17698359714502
    vertex 1406.8527720782909 1244.5432298524074 28.894536410403266
    vertex 1381.852772078291 1243.1349531628523 28.17698359714502
  endloop
endfacet
facet normal 0.0 -0.4539904997395493 0.8910065241883666
  outer loop
    vertex 1381.852772078291 1244.5432298524074 28.894536410403266
    vertex 1381.852772078291 1243.1349531628523 28.17698359714502
    vertex 1406.8527720782909 1244.5432298524074 28.894536410403266
  endloop
endfacet
facet normal 0.0 0.1564344650402279 0.9876883405951383
  outer loop
    vertex 1406.8527720782909 1252.2633329581936 30.117280620060924
    vertex 1406.8527720782909 1253.8244196942003 29.870028771080452
    vertex 1381.852772078291 1252.2633329581936 30.117280620060924
  endloop
endfacet
facet normal 0.0 0.1564344650402279 0.9876883405951383
  outer loop
    vertex 1381.852772078291 1253.8244196942003 29.870028771080452
    vertex 1381.852772078291 1252.2633329581936 30.117280620060924
    vertex 1406.8527720782909 1253.8244196942003 29.870028771080452
  endloop
endfacet
facet normal 0.0 0.6293203910498165 -0.777145961456988
  outer loop
    vertex 1406.8527720782909 1260.788825318871 3.878513135291342
    vertex 1406.8527720782909 1259.5605104724684 2.8838433849382925
    vertex 1381.852772078291 1260.788825318871 3.878513135291342
  endloop
endfacet
facet normal 0.0 0.6293203910498165 -0.777145961456988
  outer loop
    vertex 1381.852772078291 1259.5605104724684 2.8838433849382925
    vertex 1381.852772078291 1260.788825318871 3.878513135291342
    vertex 1406.8527720782909 1259.5605104724684 2.8838433849382925
  endloop
endfacet
facet normal 0.0 -0.05233595624294107 0.998629534754574
  outer loop
    vertex 1406.8527720782909 1249.1065733675105 30.117280620060924
    vertex 1406.8527720782909 1250.684953162852 30.19999999999999
    vertex 1381.852772078291 1249.1065733675105 30.117280620060924
  endloop
endfacet
facet normal 0.0 -0.05233595624294107 0.998629534754574
  outer loop
    vertex 1381.852772078291 1250.684953162852 30.19999999999999
    vertex 1381.852772078291 1249.1065733675105 30.117280620060924
    vertex 1406.8527720782909 1250.684953162852 30.19999999999999
  endloop
endfacet
facet normal 0.0 0.9986295347545734 -0.052335956242954146
  outer loop
    vertex 1406.8527720782909 1265.702233782913 13.521620204658424
    vertex 1381.852772078291 1265.702233782913 13.521620204658424
    vertex 1406.8527720782909 1265.7849531628522 15.099999999999994
  endloop
endfacet
facet normal 0.0 0.9986295347545734 -0.052335956242954146
  outer loop
    vertex 1381.852772078291 1265.7849531628522 15.099999999999994
    vertex 1406.8527720782909 1265.7849531628522 15.099999999999994
    vertex 1381.852772078291 1265.702233782913 13.521620204658424
  endloop
endfacet
facet normal 0.0 0.9876883405951404 -0.1564344650402144
  outer loop
    vertex 1406.8527720782909 1265.4549819339325 11.960533468651825
    vertex 1381.852772078291 1265.4549819339325 11.960533468651825
    vertex 1406.8527720782909 1265.702233782913 13.521620204658424
  endloop
endfacet
facet normal 0.0 0.9876883405951404 -0.1564344650402144
  outer loop
    vertex 1381.852772078291 1265.702233782913 13.521620204658424
    vertex 1406.8527720782909 1265.702233782913 13.521620204658424
    vertex 1381.852772078291 1265.4549819339325 11.960533468651825
  endloop
endfacet
facet normal 0.0 0.3583679495452944 0.9335804264972041
  outer loop
    vertex 1406.8527720782909 1255.3511097779137 29.46095339605681
    vertex 1406.8527720782909 1256.8266764732966 28.89453641040326
    vertex 1381.852772078291 1255.3511097779137 29.46095339605681
  endloop
endfacet
facet normal 0.0 0.3583679495452944 0.9335804264972041
  outer loop
    vertex 1381.852772078291 1256.8266764732966 28.89453641040326
    vertex 1381.852772078291 1255.3511097779137 29.46095339605681
    vertex 1406.8527720782909 1256.8266764732966 28.89453641040326
  endloop
endfacet
facet normal 0.0 -0.25881904510252884 0.9659258262890662
  outer loop
    vertex 1406.8527720782909 1246.0187965477905 29.46095339605681
    vertex 1406.8527720782909 1247.545486631504 29.870028771080452
    vertex 1381.852772078291 1246.0187965477905 29.46095339605681
  endloop
endfacet
facet normal 0.0 -0.25881904510252884 0.9659258262890662
  outer loop
    vertex 1381.852772078291 1247.545486631504 29.870028771080452
    vertex 1381.852772078291 1246.0187965477905 29.46095339605681
    vertex 1406.8527720782909 1247.545486631504 29.870028771080452
  endloop
endfacet
facet normal 0.0 0.05233595624294107 0.998629534754574
  outer loop
    vertex 1406.8527720782909 1250.684953162852 30.19999999999999
    vertex 1406.8527720782909 1252.2633329581936 30.117280620060924
    vertex 1381.852772078291 1250.684953162852 30.19999999999999
  endloop
endfacet
facet normal 0.0 0.05233595624294107 0.998629534754574
  outer loop
    vertex 1381.852772078291 1252.2633329581936 30.117280620060924
    vertex 1381.852772078291 1250.684953162852 30.19999999999999
    vertex 1406.8527720782909 1252.2633329581936 30.117280620060924
  endloop
endfacet
facet normal 0.0 0.9876883405951404 0.1564344650402144
  outer loop
    vertex 1406.8527720782909 1265.702233782913 16.678379795341556
    vertex 1381.852772078291 1265.702233782913 16.678379795341556
    vertex 1406.8527720782909 1265.4549819339325 18.239466531348157
  endloop
endfacet
facet normal 0.0 0.9876883405951404 0.1564344650402144
  outer loop
    vertex 1381.852772078291 1265.4549819339325 18.239466531348157
    vertex 1406.8527720782909 1265.4549819339325 18.239466531348157
    vertex 1381.852772078291 1265.702233782913 16.678379795341556
  endloop
endfacet
facet normal 0.0 -0.3583679495452913 0.9335804264972053
  outer loop
    vertex 1406.8527720782909 1244.5432298524074 28.894536410403266
    vertex 1406.8527720782909 1246.0187965477905 29.46095339605681
    vertex 1381.852772078291 1244.5432298524074 28.894536410403266
  endloop
endfacet
facet normal 0.0 -0.3583679495452913 0.9335804264972053
  outer loop
    vertex 1381.852772078291 1246.0187965477905 29.46095339605681
    vertex 1381.852772078291 1244.5432298524074 28.894536410403266
    vertex 1406.8527720782909 1246.0187965477905 29.46095339605681
  endloop
endfacet
facet normal 0.0 0.7071067811865458 0.7071067811865493
  outer loop
    vertex 1406.8527720782909 1260.788825318871 26.32148686470864
    vertex 1406.8527720782909 1261.9064400275608 25.203872156018747
    vertex 1381.852772078291 1260.788825318871 26.32148686470864
  endloop
endfacet
facet normal 0.0 0.7071067811865458 0.7071067811865493
  outer loop
    vertex 1381.852772078291 1261.9064400275608 25.203872156018747
    vertex 1381.852772078291 1260.788825318871 26.32148686470864
    vertex 1406.8527720782909 1261.9064400275608 25.203872156018747
  endloop
endfacet
facet normal 0.0 0.965925826289063 0.2588190451025408
  outer loop
    vertex 1406.8527720782909 1265.4549819339325 18.239466531348157
    vertex 1381.852772078291 1265.4549819339325 18.239466531348157
    vertex 1406.8527720782909 1265.0459065589089 19.766156615061696
  endloop
endfacet
facet normal 0.0 0.965925826289063 0.2588190451025408
  outer loop
    vertex 1381.852772078291 1265.0459065589089 19.766156615061696
    vertex 1406.8527720782909 1265.0459065589089 19.766156615061696
    vertex 1381.852772078291 1265.4549819339325 18.239466531348157
  endloop
endfacet
facet normal 0.0 0.4539904997395493 0.8910065241883666
  outer loop
    vertex 1406.8527720782909 1256.8266764732966 28.89453641040326
    vertex 1406.8527720782909 1258.234953162852 28.17698359714501
    vertex 1381.852772078291 1256.8266764732966 28.89453641040326
  endloop
endfacet
facet normal 0.0 0.4539904997395493 0.8910065241883666
  outer loop
    vertex 1381.852772078291 1258.234953162852 28.17698359714501
    vertex 1381.852772078291 1256.8266764732966 28.89453641040326
    vertex 1406.8527720782909 1258.234953162852 28.17698359714501
  endloop
endfacet
facet normal 0.0 -0.5446390350150375 0.8386705679454173
  outer loop
    vertex 1406.8527720782909 1241.8093958532356 27.316156615061697
    vertex 1406.8527720782909 1243.1349531628523 28.17698359714502
    vertex 1381.852772078291 1241.8093958532356 27.316156615061697
  endloop
endfacet
facet normal 0.0 -0.5446390350150375 0.8386705679454173
  outer loop
    vertex 1381.852772078291 1243.1349531628523 28.17698359714502
    vertex 1381.852772078291 1241.8093958532356 27.316156615061697
    vertex 1406.8527720782909 1243.1349531628523 28.17698359714502
  endloop
endfacet
facet normal 0.0 -0.15643446504022618 0.9876883405951385
  outer loop
    vertex 1406.8527720782909 1247.545486631504 29.870028771080452
    vertex 1406.8527720782909 1249.1065733675105 30.117280620060924
    vertex 1381.852772078291 1247.545486631504 29.870028771080452
  endloop
endfacet
facet normal 0.0 -0.15643446504022618 0.9876883405951385
  outer loop
    vertex 1381.852772078291 1249.1065733675105 30.117280620060924
    vertex 1381.852772078291 1247.545486631504 29.870028771080452
    vertex 1406.8527720782909 1249.1065733675105 30.117280620060924
  endloop
endfacet
facet normal 0.0 0.9335804264972143 -0.35836794954526763
  outer loop
    vertex 1406.8527720782909 1264.4794895732555 8.958276689555412
    vertex 1381.852772078291 1264.4794895732555 8.958276689555412
    vertex 1406.8527720782909 1265.0459065589089 10.433843384938289
  endloop
endfacet
facet normal 0.0 0.9335804264972143 -0.35836794954526763
  outer loop
    vertex 1381.852772078291 1265.0459065589089 10.433843384938289
    vertex 1406.8527720782909 1265.0459065589089 10.433843384938289
    vertex 1381.852772078291 1264.4794895732555 8.958276689555412
  endloop
endfacet
facet normal 0.0 0.8910065241883558 -0.4539904997395707
  outer loop
    vertex 1406.8527720782909 1263.761936759997 7.549999999999992
    vertex 1381.852772078291 1263.761936759997 7.549999999999992
    vertex 1406.8527720782909 1264.4794895732555 8.958276689555412
  endloop
endfacet
facet normal 0.0 0.8910065241883558 -0.4539904997395707
  outer loop
    vertex 1381.852772078291 1264.4794895732555 8.958276689555412
    vertex 1406.8527720782909 1264.4794895732555 8.958276689555412
    vertex 1381.852772078291 1263.761936759997 7.549999999999992
  endloop
endfacet
facet normal 0.0 0.7771459614569893 0.6293203910498147
  outer loop
    vertex 1406.8527720782909 1262.9011097779137 23.975557309616338
    vertex 1381.852772078291 1262.9011097779137 23.975557309616338
    vertex 1406.8527720782909 1261.9064400275608 25.203872156018747
  endloop
endfacet
facet normal 0.0 0.7771459614569893 0.6293203910498147
  outer loop
    vertex 1381.852772078291 1261.9064400275608 25.203872156018747
    vertex 1406.8527720782909 1261.9064400275608 25.203872156018747
    vertex 1381.852772078291 1262.9011097779137 23.975557309616338
  endloop
endfacet
facet normal 0.0 0.8386705679454219 0.5446390350150303
  outer loop
    vertex 1406.8527720782909 1263.761936759997 22.649999999999988
    vertex 1381.852772078291 1263.761936759997 22.649999999999988
    vertex 1406.8527720782909 1262.9011097779137 23.975557309616338
  endloop
endfacet
facet normal 0.0 0.8386705679454219 0.5446390350150303
  outer loop
    vertex 1381.852772078291 1262.9011097779137 23.975557309616338
    vertex 1406.8527720782909 1262.9011097779137 23.975557309616338
    vertex 1381.852772078291 1263.761936759997 22.649999999999988
  endloop
endfacet
facet normal 0.0 0.5446390350150351 0.8386705679454189
  outer loop
    vertex 1406.8527720782909 1258.234953162852 28.17698359714501
    vertex 1406.8527720782909 1259.5605104724684 27.316156615061697
    vertex 1381.852772078291 1258.234953162852 28.17698359714501
  endloop
endfacet
facet normal 0.0 0.5446390350150351 0.8386705679454189
  outer loop
    vertex 1381.852772078291 1259.5605104724684 27.316156615061697
    vertex 1381.852772078291 1258.234953162852 28.17698359714501
    vertex 1406.8527720782909 1259.5605104724684 27.316156615061697
  endloop
endfacet
facet normal 0.0 0.7771459614569904 -0.6293203910498135
  outer loop
    vertex 1406.8527720782909 1261.9064400275608 4.996127843981237
    vertex 1381.852772078291 1261.9064400275608 4.996127843981237
    vertex 1406.8527720782909 1262.9011097779137 6.224442690383651
  endloop
endfacet
facet normal 0.0 0.7771459614569904 -0.6293203910498135
  outer loop
    vertex 1381.852772078291 1262.9011097779137 6.224442690383651
    vertex 1406.8527720782909 1262.9011097779137 6.224442690383651
    vertex 1381.852772078291 1261.9064400275608 4.996127843981237
  endloop
endfacet
facet normal 0.0 0.7071067811865462 -0.7071067811865489
  outer loop
    vertex 1406.8527720782909 1261.9064400275608 4.996127843981237
    vertex 1406.8527720782909 1260.788825318871 3.878513135291342
    vertex 1381.852772078291 1261.9064400275608 4.996127843981237
  endloop
endfacet
facet normal 0.0 0.7071067811865462 -0.7071067811865489
  outer loop
    vertex 1381.852772078291 1260.788825318871 3.878513135291342
    vertex 1381.852772078291 1261.9064400275608 4.996127843981237
    vertex 1406.8527720782909 1260.788825318871 3.878513135291342
  endloop
endfacet
facet normal 0.0 0.9659258262890627 -0.25881904510254156
  outer loop
    vertex 1406.8527720782909 1265.0459065589089 10.433843384938289
    vertex 1381.852772078291 1265.0459065589089 10.433843384938289
    vertex 1406.8527720782909 1265.4549819339325 11.960533468651825
  endloop
endfacet
facet normal 0.0 0.9659258262890627 -0.25881904510254156
  outer loop
    vertex 1381.852772078291 1265.4549819339325 11.960533468651825
    vertex 1406.8527720782909 1265.4549819339325 11.960533468651825
    vertex 1381.852772078291 1265.0459065589089 10.433843384938289
  endloop
endfacet
facet normal 0.0 0.8910065241883558 0.45399049973957045
  outer loop
    vertex 1406.8527720782909 1264.4794895732555 21.24172331044457
    vertex 1381.852772078291 1264.4794895732555 21.24172331044457
    vertex 1406.8527720782909 1263.761936759997 22.649999999999988
  endloop
endfacet
facet normal 0.0 0.8910065241883558 0.45399049973957045
  outer loop
    vertex 1381.852772078291 1263.761936759997 22.649999999999988
    vertex 1406.8527720782909 1263.761936759997 22.649999999999988
    vertex 1381.852772078291 1264.4794895732555 21.24172331044457
  endloop
endfacet
facet normal 0.0 -0.7071067811865734 0.7071067811865217
  outer loop
    vertex 1381.852772078291 1239.4634662981437 25.203872156018758
    vertex 1406.8527720782909 1239.4634662981437 25.203872156018758
    vertex 1381.852772078291 1240.5810810068333 26.32148686470865
  endloop
endfacet
facet normal 0.0 -0.7071067811865734 0.7071067811865217
  outer loop
    vertex 1406.8527720782909 1240.5810810068333 26.32148686470865
    vertex 1381.852772078291 1240.5810810068333 26.32148686470865
    vertex 1406.8527720782909 1239.4634662981437 25.203872156018758
  endloop
endfacet
facet normal 0.0 0.8386705679454207 -0.5446390350150323
  outer loop
    vertex 1406.8527720782909 1262.9011097779137 6.224442690383651
    vertex 1381.852772078291 1262.9011097779137 6.224442690383651
    vertex 1406.8527720782909 1263.761936759997 7.549999999999992
  endloop
endfacet
facet normal 0.0 0.8386705679454207 -0.5446390350150323
  outer loop
    vertex 1381.852772078291 1263.761936759997 7.549999999999992
    vertex 1406.8527720782909 1263.761936759997 7.549999999999992
    vertex 1381.852772078291 1262.9011097779137 6.224442690383651
  endloop
endfacet
facet normal 0.0 -0.6293203910498165 0.777145961456988
  outer loop
    vertex 1406.8527720782909 1240.5810810068333 26.32148686470865
    vertex 1406.8527720782909 1241.8093958532356 27.316156615061697
    vertex 1381.852772078291 1240.5810810068333 26.32148686470865
  endloop
endfacet
facet normal 0.0 -0.6293203910498165 0.777145961456988
  outer loop
    vertex 1381.852772078291 1241.8093958532356 27.316156615061697
    vertex 1381.852772078291 1240.5810810068333 26.32148686470865
    vertex 1406.8527720782909 1241.8093958532356 27.316156615061697
  endloop
endfacet
facet normal -0.0 -0.4539904997395508 -0.891006524188366
  outer loop
    vertex 1406.8527720782909 1244.5432298524074 1.3054635895967255
    vertex 1406.8527720782909 1243.1349531628523 2.0230164028549757
    vertex 1381.852772078291 1244.5432298524074 1.3054635895967255
  endloop
endfacet
facet normal -0.0 -0.4539904997395508 -0.891006524188366
  outer loop
    vertex 1381.852772078291 1243.1349531628523 2.0230164028549757
    vertex 1381.852772078291 1244.5432298524074 1.3054635895967255
    vertex 1406.8527720782909 1243.1349531628523 2.0230164028549757
  endloop
endfacet
facet normal 0.0 0.4539904997395508 -0.891006524188366
  outer loop
    vertex 1406.8527720782909 1258.234953162852 2.0230164028549757
    vertex 1406.8527720782909 1256.8266764732966 1.3054635895967255
    vertex 1381.852772078291 1258.234953162852 2.0230164028549757
  endloop
endfacet
facet normal 0.0 0.4539904997395508 -0.891006524188366
  outer loop
    vertex 1381.852772078291 1256.8266764732966 1.3054635895967255
    vertex 1381.852772078291 1258.234953162852 2.0230164028549757
    vertex 1406.8527720782909 1256.8266764732966 1.3054635895967255
  endloop
endfacet
facet normal 0.0 0.5446390350150357 -0.8386705679454185
  outer loop
    vertex 1406.8527720782909 1259.5605104724684 2.8838433849382925
    vertex 1406.8527720782909 1258.234953162852 2.0230164028549757
    vertex 1381.852772078291 1259.5605104724684 2.8838433849382925
  endloop
endfacet
facet normal 0.0 0.5446390350150357 -0.8386705679454185
  outer loop
    vertex 1381.852772078291 1258.234953162852 2.0230164028549757
    vertex 1381.852772078291 1259.5605104724684 2.8838433849382925
    vertex 1406.8527720782909 1258.234953162852 2.0230164028549757
  endloop
endfacet
facet normal 0.0 0.15643446504022443 -0.9876883405951388
  outer loop
    vertex 1406.8527720782909 1253.8244196942003 0.3299712289195333
    vertex 1406.8527720782909 1252.2633329581936 0.08271937993907214
    vertex 1381.852772078291 1253.8244196942003 0.3299712289195333
  endloop
endfacet
facet normal 0.0 0.15643446504022443 -0.9876883405951388
  outer loop
    vertex 1381.852772078291 1252.2633329581936 0.08271937993907214
    vertex 1381.852772078291 1253.8244196942003 0.3299712289195333
    vertex 1406.8527720782909 1252.2633329581936 0.08271937993907214
  endloop
endfacet
facet normal 0.0 0.052335956242944626 -0.9986295347545738
  outer loop
    vertex 1406.8527720782909 1252.2633329581936 0.08271937993907214
    vertex 1406.8527720782909 1250.684953162852 0.0
    vertex 1381.852772078291 1252.2633329581936 0.08271937993907214
  endloop
endfacet
facet normal 0.0 0.052335956242944626 -0.9986295347545738
  outer loop
    vertex 1381.852772078291 1250.684953162852 0.0
    vertex 1381.852772078291 1252.2633329581936 0.08271937993907214
    vertex 1406.8527720782909 1250.684953162852 0.0
  endloop
endfacet
facet normal -0.0 -0.052335956242944626 -0.9986295347545738
  outer loop
    vertex 1406.8527720782909 1250.684953162852 0.0
    vertex 1406.8527720782909 1249.1065733675105 0.08271937993907214
    vertex 1381.852772078291 1250.684953162852 0.0
  endloop
endfacet
facet normal -0.0 -0.052335956242944626 -0.9986295347545738
  outer loop
    vertex 1381.852772078291 1249.1065733675105 0.08271937993907214
    vertex 1381.852772078291 1250.684953162852 0.0
    vertex 1406.8527720782909 1249.1065733675105 0.08271937993907214
  endloop
endfacet
facet normal 0.0 0.25881904510252884 -0.9659258262890662
  outer loop
    vertex 1406.8527720782909 1255.3511097779137 0.7390466039431794
    vertex 1406.8527720782909 1253.8244196942003 0.3299712289195333
    vertex 1381.852772078291 1255.3511097779137 0.7390466039431794
  endloop
endfacet
facet normal 0.0 0.25881904510252884 -0.9659258262890662
  outer loop
    vertex 1381.852772078291 1253.8244196942003 0.3299712289195333
    vertex 1381.852772078291 1255.3511097779137 0.7390466039431794
    vertex 1406.8527720782909 1253.8244196942003 0.3299712289195333
  endloop
endfacet
facet normal -0.0 -0.25881904510252884 -0.9659258262890662
  outer loop
    vertex 1406.8527720782909 1247.545486631504 0.3299712289195361
    vertex 1406.8527720782909 1246.0187965477905 0.7390466039431822
    vertex 1381.852772078291 1247.545486631504 0.3299712289195361
  endloop
endfacet
facet normal -0.0 -0.25881904510252884 -0.9659258262890662
  outer loop
    vertex 1381.852772078291 1246.0187965477905 0.7390466039431822
    vertex 1381.852772078291 1247.545486631504 0.3299712289195361
    vertex 1406.8527720782909 1246.0187965477905 0.7390466039431822
  endloop
endfacet
facet normal -0.0 -0.6293203910498186 -0.7771459614569862
  outer loop
    vertex 1406.8527720782909 1241.8093958532356 2.8838433849382925
    vertex 1406.8527720782909 1240.5810810068333 3.878513135291348
    vertex 1381.852772078291 1241.8093958532356 2.8838433849382925
  endloop
endfacet
facet normal -0.0 -0.6293203910498186 -0.7771459614569862
  outer loop
    vertex 1381.852772078291 1240.5810810068333 3.878513135291348
    vertex 1381.852772078291 1241.8093958532356 2.8838433849382925
    vertex 1406.8527720782909 1240.5810810068333 3.878513135291348
  endloop
endfacet
facet normal -0.0 -0.5446390350150357 -0.8386705679454185
  outer loop
    vertex 1406.8527720782909 1243.1349531628523 2.0230164028549757
    vertex 1406.8527720782909 1241.8093958532356 2.8838433849382925
    vertex 1381.852772078291 1243.1349531628523 2.0230164028549757
  endloop
endfacet
facet normal -0.0 -0.5446390350150357 -0.8386705679454185
  outer loop
    vertex 1381.852772078291 1241.8093958532356 2.8838433849382925
    vertex 1381.852772078291 1243.1349531628523 2.0230164028549757
    vertex 1406.8527720782909 1241.8093958532356 2.8838433849382925
  endloop
endfacet
facet normal -0.0 -0.3583679495452913 -0.9335804264972053
  outer loop
    vertex 1406.8527720782909 1246.0187965477905 0.7390466039431822
    vertex 1406.8527720782909 1244.5432298524074 1.3054635895967255
    vertex 1381.852772078291 1246.0187965477905 0.7390466039431822
  endloop
endfacet
facet normal -0.0 -0.3583679495452913 -0.9335804264972053
  outer loop
    vertex 1381.852772078291 1244.5432298524074 1.3054635895967255
    vertex 1381.852772078291 1246.0187965477905 0.7390466039431822
    vertex 1406.8527720782909 1244.5432298524074 1.3054635895967255
  endloop
endfacet
facet normal 0.0 0.35836794954529283 -0.9335804264972046
  outer loop
    vertex 1406.8527720782909 1256.8266764732966 1.3054635895967255
    vertex 1406.8527720782909 1255.3511097779137 0.7390466039431794
    vertex 1381.852772078291 1256.8266764732966 1.3054635895967255
  endloop
endfacet
facet normal 0.0 0.35836794954529283 -0.9335804264972046
  outer loop
    vertex 1381.852772078291 1255.3511097779137 0.7390466039431794
    vertex 1381.852772078291 1256.8266764732966 1.3054635895967255
    vertex 1406.8527720782909 1255.3511097779137 0.7390466039431794
  endloop
endfacet
facet normal -0.0 -0.15643446504022618 -0.9876883405951385
  outer loop
    vertex 1406.8527720782909 1249.1065733675105 0.08271937993907214
    vertex 1406.8527720782909 1247.545486631504 0.3299712289195361
    vertex 1381.852772078291 1249.1065733675105 0.08271937993907214
  endloop
endfacet
facet normal -0.0 -0.15643446504022618 -0.9876883405951385
  outer loop
    vertex 1381.852772078291 1247.545486631504 0.3299712289195361
    vertex 1381.852772078291 1249.1065733675105 0.08271937993907214
    vertex 1406.8527720782909 1247.545486631504 0.3299712289195361
  endloop
endfacet
facet normal -1.0 0.0 0.0
  outer loop
    vertex 1381.852772078291 1235.5849531628521 15.099999999999994
    vertex 1381.852772078291 1235.667672542791 16.678379795341574
    vertex 1381.852772078291 1235.667672542791 13.521620204658428
  endloop
endfacet
facet normal -1.0 0.0 0.0
  outer loop
    vertex 1381.852772078291 1235.9149243917718 11.96053346865183
    vertex 1381.852772078291 1235.667672542791 13.521620204658428
    vertex 1381.852772078291 1235.667672542791 16.678379795341574
  endloop
endfacet
facet normal -1.0 0.0 0.0
  outer loop
    vertex 1381.852772078291 1235.9149243917718 18.239466531348167
    vertex 1381.852772078291 1235.9149243917718 11.96053346865183
    vertex 1381.852772078291 1235.667672542791 16.678379795341574
  endloop
endfacet
facet normal -1.0 0.0 0.0
  outer loop
    vertex 1381.852772078291 1236.3239997667952 10.43384338493829
    vertex 1381.852772078291 1235.9149243917718 11.96053346865183
    vertex 1381.852772078291 1235.9149243917718 18.239466531348167
  endloop
endfacet
facet normal -1.0 0.0 0.0
  outer loop
    vertex 1381.852772078291 1236.3239997667952 19.766156615061703
    vertex 1381.852772078291 1236.3239997667952 10.43384338493829
    vertex 1381.852772078291 1235.9149243917718 18.239466531348167
  endloop
endfacet
facet normal -1.0 0.0 0.0
  outer loop
    vertex 1381.852772078291 1236.8904167524488 8.958276689555413
    vertex 1381.852772078291 1236.3239997667952 10.43384338493829
    vertex 1381.852772078291 1236.3239997667952 19.766156615061703
  endloop
endfacet
facet normal -1.0 0.0 0.0
  outer loop
    vertex 1381.852772078291 1236.8904167524488 21.241723310444588
    vertex 1381.852772078291 1236.8904167524488 8.958276689555413
    vertex 1381.852772078291 1236.3239997667952 19.766156615061703
  endloop
endfacet
facet normal -1.0 0.0 0.0
  outer loop
    vertex 1381.852772078291 1237.6079695657072 7.549999999999999
    vertex 1381.852772078291 1236.8904167524488 8.958276689555413
    vertex 1381.852772078291 1236.8904167524488 21.241723310444588
  endloop
endfacet
facet normal -1.0 0.0 0.0
  outer loop
    vertex 1381.852772078291 1237.6079695657072 22.650000000000002
    vertex 1381.852772078291 1237.6079695657072 7.549999999999999
    vertex 1381.852772078291 1236.8904167524488 21.241723310444588
  endloop
endfacet
facet normal -1.0 0.0 0.0
  outer loop
    vertex 1381.852772078291 1238.4687965477904 6.224442690383653
    vertex 1381.852772078291 1237.6079695657072 7.549999999999999
    vertex 1381.852772078291 1237.6079695657072 22.650000000000002
  endloop
endfacet
facet normal -1.0 0.0 0.0
  outer loop
    vertex 1381.852772078291 1238.4687965477904 23.975557309616338
    vertex 1381.852772078291 1238.4687965477904 6.224442690383653
    vertex 1381.852772078291 1237.6079695657072 22.650000000000002
  endloop
endfacet
facet normal -1.0 0.0 0.0
  outer loop
    vertex 1381.852772078291 1239.4634662981434 4.996127843981241
    vertex 1381.852772078291 1238.4687965477904 6.224442690383653
    vertex 1381.852772078291 1238.4687965477904 23.975557309616338
  endloop
endfacet
facet normal -1.0 0.0 0.0
  outer loop
    vertex 1381.852772078291 1239.4634662981437 25.203872156018758
    vertex 1381.852772078291 1239.4634662981434 4.996127843981241
    vertex 1381.852772078291 1238.4687965477904 23.975557309616338
  endloop
endfacet
facet normal -1.0 0.0 0.0
  outer loop
    vertex 1381.852772078291 1240.5810810068333 3.878513135291348
    vertex 1381.852772078291 1239.4634662981434 4.996127843981241
    vertex 1381.852772078291 1239.4634662981437 25.203872156018758
  endloop
endfacet
facet normal -1.0 0.0 0.0
  outer loop
    vertex 1381.852772078291 1240.5810810068333 26.32148686470865
    vertex 1381.852772078291 1240.5810810068333 3.878513135291348
    vertex 1381.852772078291 1239.4634662981437 25.203872156018758
  endloop
endfacet
facet normal -1.0 0.0 0.0
  outer loop
    vertex 1381.852772078291 1241.8093958532356 2.8838433849382925
    vertex 1381.852772078291 1240.5810810068333 3.878513135291348
    vertex 1381.852772078291 1240.5810810068333 26.32148686470865
  endloop
endfacet
facet normal -1.0 0.0 0.0
  outer loop
    vertex 1381.852772078291 1241.8093958532356 27.316156615061697
    vertex 1381.852772078291 1241.8093958532356 2.8838433849382925
    vertex 1381.852772078291 1240.5810810068333 26.32148686470865
  endloop
endfacet
facet normal -1.0 0.0 0.0
  outer loop
    vertex 1381.852772078291 1243.1349531628523 2.0230164028549757
    vertex 1381.852772078291 1241.8093958532356 2.8838433849382925
    vertex 1381.852772078291 1241.8093958532356 27.316156615061697
  endloop
endfacet
facet normal -1.0 0.0 0.0
  outer loop
    vertex 1381.852772078291 1243.1349531628523 28.17698359714502
    vertex 1381.852772078291 1243.1349531628523 2.0230164028549757
    vertex 1381.852772078291 1241.8093958532356 27.316156615061697
  endloop
endfacet
facet normal -1.0 0.0 0.0
  outer loop
    vertex 1381.852772078291 1244.5432298524074 1.3054635895967255
    vertex 1381.852772078291 1243.1349531628523 2.0230164028549757
    vertex 1381.852772078291 1243.1349531628523 28.17698359714502
  endloop
endfacet
facet normal -1.0 0.0 0.0
  outer loop
    vertex 1381.852772078291 1244.5432298524074 28.894536410403266
    vertex 1381.852772078291 1244.5432298524074 1.3054635895967255
    vertex 1381.852772078291 1243.1349531628523 28.17698359714502
  endloop
endfacet
facet normal -1.0 0.0 0.0
  outer loop
    vertex 1381.852772078291 1246.0187965477905 0.7390466039431822
    vertex 1381.852772078291 1244.5432298524074 1.3054635895967255
    vertex 1381.852772078291 1244.5432298524074 28.894536410403266
  endloop
endfacet
facet normal -1.0 0.0 0.0
  outer loop
    vertex 1381.852772078291 1246.0187965477905 29.46095339605681
    vertex 1381.852772078291 1246.0187965477905 0.7390466039431822
    vertex 1381.852772078291 1244.5432298524074 28.894536410403266
  endloop
endfacet
facet normal -1.0 0.0 0.0
  outer loop
    vertex 1381.852772078291 1247.545486631504 0.3299712289195361
    vertex 1381.852772078291 1246.0187965477905 0.7390466039431822
    vertex 1381.852772078291 1246.0187965477905 29.46095339605681
  endloop
endfacet
facet normal -1.0 0.0 0.0
  outer loop
    vertex 1381.852772078291 1247.545486631504 29.870028771080452
    vertex 1381.852772078291 1247.545486631504 0.3299712289195361
    vertex 1381.852772078291 1246.0187965477905 29.46095339605681
  endloop
endfacet
facet normal -1.0 0.0 0.0
  outer loop
    vertex 1381.852772078291 1249.1065733675105 0.08271937993907214
    vertex 1381.852772078291 1247.545486631504 0.3299712289195361
    vertex 1381.852772078291 1247.545486631504 29.870028771080452
  endloop
endfacet
facet normal -1.0 0.0 0.0
  outer loop
    vertex 1381.852772078291 1249.1065733675105 30.117280620060924
    vertex 1381.852772078291 1249.1065733675105 0.08271937993907214
    vertex 1381.852772078291 1247.545486631504 29.870028771080452
  endloop
endfacet
facet normal -1.0 0.0 0.0
  outer loop
    vertex 1381.852772078291 1250.684953162852 0.0
    vertex 1381.852772078291 1249.1065733675105 0.08271937993907214
    vertex 1381.852772078291 1249.1065733675105 30.117280620060924
  endloop
endfacet
facet normal -1.0 0.0 0.0
  outer loop
    vertex 1381.852772078291 1250.684953162852 30.19999999999999
    vertex 1381.852772078291 1250.684953162852 0.0
    vertex 1381.852772078291 1249.1065733675105 30.117280620060924
  endloop
endfacet
facet normal -1.0 0.0 0.0
  outer loop
    vertex 1381.852772078291 1252.2633329581936 0.08271937993907214
    vertex 1381.852772078291 1250.684953162852 0.0
    vertex 1381.852772078291 1250.684953162852 30.19999999999999
  endloop
endfacet
facet normal -1.0 0.0 0.0
  outer loop
    vertex 1381.852772078291 1252.2633329581936 30.117280620060924
    vertex 1381.852772078291 1252.2633329581936 0.08271937993907214
    vertex 1381.852772078291 1250.684953162852 30.19999999999999
  endloop
endfacet
facet normal -1.0 0.0 0.0
  outer loop
    vertex 1381.852772078291 1253.8244196942003 0.3299712289195333
    vertex 1381.852772078291 1252.2633329581936 0.08271937993907214
    vertex 1381.852772078291 1252.2633329581936 30.117280620060924
  endloop
endfacet
facet normal -1.0 0.0 0.0
  outer loop
    vertex 1381.852772078291 1253.8244196942003 29.870028771080452
    vertex 1381.852772078291 1253.8244196942003 0.3299712289195333
    vertex 1381.852772078291 1252.2633329581936 30.117280620060924
  endloop
endfacet
facet normal -1.0 0.0 0.0
  outer loop
    vertex 1381.852772078291 1255.3511097779137 0.7390466039431794
    vertex 1381.852772078291 1253.8244196942003 0.3299712289195333
    vertex 1381.852772078291 1253.8244196942003 29.870028771080452
  endloop
endfacet
facet normal -1.0 0.0 0.0
  outer loop
    vertex 1381.852772078291 1255.3511097779137 29.46095339605681
    vertex 1381.852772078291 1255.3511097779137 0.7390466039431794
    vertex 1381.852772078291 1253.8244196942003 29.870028771080452
  endloop
endfacet
facet normal -1.0 0.0 0.0
  outer loop
    vertex 1381.852772078291 1256.8266764732966 1.3054635895967255
    vertex 1381.852772078291 1255.3511097779137 0.7390466039431794
    vertex 1381.852772078291 1255.3511097779137 29.46095339605681
  endloop
endfacet
facet normal -1.0 0.0 0.0
  outer loop
    vertex 1381.852772078291 1256.8266764732966 28.89453641040326
    vertex 1381.852772078291 1256.8266764732966 1.3054635895967255
    vertex 1381.852772078291 1255.3511097779137 29.46095339605681
  endloop
endfacet
facet normal -1.0 0.0 0.0
  outer loop
    vertex 1381.852772078291 1258.234953162852 2.0230164028549757
    vertex 1381.852772078291 1256.8266764732966 1.3054635895967255
    vertex 1381.852772078291 1256.8266764732966 28.89453641040326
  endloop
endfacet
facet normal -1.0 0.0 0.0
  outer loop
    vertex 1381.852772078291 1258.234953162852 28.17698359714501
    vertex 1381.852772078291 1258.234953162852 2.0230164028549757
    vertex 1381.852772078291 1256.8266764732966 28.89453641040326
  endloop
endfacet
facet normal -1.0 0.0 0.0
  outer loop
    vertex 1381.852772078291 1259.5605104724684 2.8838433849382925
    vertex 1381.852772078291 1258.234953162852 2.0230164028549757
    vertex 1381.852772078291 1258.234953162852 28.17698359714501
  endloop
endfacet
facet normal -1.0 0.0 0.0
  outer loop
    vertex 1381.852772078291 1259.5605104724684 27.316156615061697
    vertex 1381.852772078291 1259.5605104724684 2.8838433849382925
    vertex 1381.852772078291 1258.234953162852 28.17698359714501
  endloop
endfacet
facet normal -1.0 0.0 0.0
  outer loop
    vertex 1381.852772078291 1260.788825318871 3.878513135291342
    vertex 1381.852772078291 1259.5605104724684 2.8838433849382925
    vertex 1381.852772078291 1259.5605104724684 27.316156615061697
  endloop
endfacet
facet normal -1.0 0.0 0.0
  outer loop
    vertex 1381.852772078291 1260.788825318871 26.32148686470864
    vertex 1381.852772078291 1260.788825318871 3.878513135291342
    vertex 1381.852772078291 1259.5605104724684 27.316156615061697
  endloop
endfacet
facet normal -1.0 0.0 0.0
  outer loop
    vertex 1381.852772078291 1261.9064400275608 4.996127843981237
    vertex 1381.852772078291 1260.788825318871 3.878513135291342
    vertex 1381.852772078291 1260.788825318871 26.32148686470864
  endloop
endfacet
facet normal -1.0 0.0 0.0
  outer loop
    vertex 1381.852772078291 1261.9064400275608 25.203872156018747
    vertex 1381.852772078291 1261.9064400275608 4.996127843981237
    vertex 1381.852772078291 1260.788825318871 26.32148686470864
  endloop
endfacet
facet normal -1.0 0.0 0.0
  outer loop
    vertex 1381.852772078291 1262.9011097779137 6.224442690383651
    vertex 1381.852772078291 1261.9064400275608 4.996127843981237
    vertex 1381.852772078291 1261.9064400275608 25.203872156018747
  endloop
endfacet
facet normal -1.0 0.0 0.0
  outer loop
    vertex 1381.852772078291 1262.9011097779137 23.975557309616338
    vertex 1381.852772078291 1262.9011097779137 6.224442690383651
    vertex 1381.852772078291 1261.9064400275608 25.203872156018747
  endloop
endfacet
facet normal -1.0 0.0 0.0
  outer loop
    vertex 1381.852772078291 1263.761936759997 7.549999999999992
    vertex 1381.852772078291 1262.9011097779137 6.224442690383651
    vertex 1381.852772078291 1262.9011097779137 23.975557309616338
  endloop
endfacet
facet normal -1.0 0.0 0.0
  outer loop
    vertex 1381.852772078291 1263.761936759997 22.649999999999988
    vertex 1381.852772078291 1263.761936759997 7.549999999999992
    vertex 1381.852772078291 1262.9011097779137 23.975557309616338
  endloop
endfacet
facet normal -1.0 0.0 0.0
  outer loop
    vertex 1381.852772078291 1264.4794895732555 8.958276689555412
    vertex 1381.852772078291 1263.761936759997 7.549999999999992
    vertex 1381.852772078291 1263.761936759997 22.649999999999988
  endloop
endfacet
facet normal -1.0 0.0 0.0
  outer loop
    vertex 1381.852772078291 1264.4794895732555 21.24172331044457
    vertex 1381.852772078291 1264.4794895732555 8.958276689555412
    vertex 1381.852772078291 1263.761936759997 22.649999999999988
  endloop
endfacet
facet normal -1.0 0.0 0.0
  outer loop
    vertex 1381.852772078291 1265.0459065589089 10.433843384938289
    vertex 1381.852772078291 1264.4794895732555 8.958276689555412
    vertex 1381.852772078291 1264.4794895732555 21.24172331044457
  endloop
endfacet
facet normal -1.0 0.0 0.0
  outer loop
    vertex 1381.852772078291 1265.0459065589089 19.766156615061696
    vertex 1381.852772078291 1265.0459065589089 10.433843384938289
    vertex 1381.852772078291 1264.4794895732555 21.24172331044457
  endloop
endfacet
facet normal -1.0 0.0 0.0
  outer loop
    vertex 1381.852772078291 1265.4549819339325 11.960533468651825
    vertex 1381.852772078291 1265.0459065589089 10.433843384938289
    vertex 1381.852772078291 1265.0459065589089 19.766156615061696
  endloop
endfacet
facet normal -1.0 0.0 0.0
  outer loop
    vertex 1381.852772078291 1265.4549819339325 18.239466531348157
    vertex 1381.852772078291 1265.4549819339325 11.960533468651825
    vertex 1381.852772078291 1265.0459065589089 19.766156615061696
  endloop
endfacet
facet normal -1.0 0.0 0.0
  outer loop
    vertex 1381.852772078291 1265.702233782913 13.521620204658424
    vertex 1381.852772078291 1265.4549819339325 11.960533468651825
    vertex 1381.852772078291 1265.4549819339325 18.239466531348157
  endloop
endfacet
facet normal -1.0 0.0 0.0
  outer loop
    vertex 1381.852772078291 1265.702233782913 16.678379795341556
    vertex 1381.852772078291 1265.702233782913 13.521620204658424
    vertex 1381.852772078291 1265.4549819339325 18.239466531348157
  endloop
endfacet
facet normal -1.0 0.0 0.0
  outer loop
    vertex 1381.852772078291 1265.7849531628522 15.099999999999994
    vertex 1381.852772078291 1265.702233782913 13.521620204658424
    vertex 1381.852772078291 1265.702233782913 16.678379795341556
  endloop
endfacet
endsolid sumo
