solid sumo
facet normal 0.0 0.0 1.0
  outer loop
    vertex 1427.5662720782918 1203.6153451314144 160.5753341053537
    vertex 1424.203272078292 1221.5513451314143 160.5753341053537
    vertex 1424.203272078292 1206.9783451314145 160.5753341053537
  endloop
endfacet
facet normal 0.0 0.0 1.0
  outer loop
    vertex 1424.203272078292 1221.5513451314143 160.5753341053537
    vertex 1427.5662720782918 1203.6153451314144 160.5753341053537
    vertex 1427.5662720782918 1224.9143451314146 160.5753341053537
  endloop
endfacet
facet normal 0.0 0.0 1.0
  outer loop
    vertex 1427.5662720782918 1224.9143451314146 160.5753341053537
    vertex 1427.5662720782918 1203.6153451314144 160.5753341053537
    vertex 1429.8643220782928 1210.7336951314148 160.5753341053537
  endloop
endfacet
facet normal 0.0 0.0 1.0
  outer loop
    vertex 1429.8643220782928 1210.7336951314148 160.5753341053537
    vertex 1427.5662720782918 1203.6153451314144 160.5753341053537
    vertex 1431.3216220782929 1209.2763951314148 160.5753341053537
  endloop
endfacet
facet normal 0.0 0.0 1.0
  outer loop
    vertex 1431.3216220782929 1209.2763951314148 160.5753341053537
    vertex 1427.5662720782918 1203.6153451314144 160.5753341053537
    vertex 1442.1392720782922 1203.6153451314144 160.5753341053537
  endloop
endfacet
facet normal 0.0 0.0 1.0
  outer loop
    vertex 1431.3216220782929 1209.2763951314148 160.5753341053537
    vertex 1442.1392720782922 1203.6153451314144 160.5753341053537
    vertex 1438.3839220782922 1209.2763951314148 160.5753341053537
  endloop
endfacet
facet normal 0.0 0.0 1.0
  outer loop
    vertex 1438.3839220782922 1209.2763951314148 160.5753341053537
    vertex 1442.1392720782922 1203.6153451314144 160.5753341053537
    vertex 1439.8412220782923 1210.7336951314148 160.5753341053537
  endloop
endfacet
facet normal 0.0 0.0 1.0
  outer loop
    vertex 1439.8412220782923 1210.7336951314148 160.5753341053537
    vertex 1442.1392720782922 1203.6153451314144 160.5753341053537
    vertex 1439.8412220782923 1217.7959951314153 160.5753341053537
  endloop
endfacet
facet normal 0.0 0.0 1.0
  outer loop
    vertex 1427.5662720782918 1224.9143451314146 160.5753341053537
    vertex 1431.3216220782929 1219.2532951314145 160.5753341053537
    vertex 1442.1392720782922 1224.9143451314146 160.5753341053537
  endloop
endfacet
facet normal 0.0 0.0 1.0
  outer loop
    vertex 1431.3216220782929 1219.2532951314145 160.5753341053537
    vertex 1427.5662720782918 1224.9143451314146 160.5753341053537
    vertex 1429.8643220782928 1217.7959951314153 160.5753341053537
  endloop
endfacet
facet normal 0.0 0.0 1.0
  outer loop
    vertex 1429.8643220782928 1217.7959951314153 160.5753341053537
    vertex 1427.5662720782918 1224.9143451314146 160.5753341053537
    vertex 1429.8643220782928 1210.7336951314148 160.5753341053537
  endloop
endfacet
facet normal 0.0 0.0 1.0
  outer loop
    vertex 1442.1392720782922 1224.9143451314146 160.5753341053537
    vertex 1431.3216220782929 1219.2532951314145 160.5753341053537
    vertex 1438.3839220782922 1219.2532951314145 160.5753341053537
  endloop
endfacet
facet normal 0.0 0.0 1.0
  outer loop
    vertex 1442.1392720782922 1224.9143451314146 160.5753341053537
    vertex 1438.3839220782922 1219.2532951314145 160.5753341053537
    vertex 1439.8412220782923 1217.7959951314153 160.5753341053537
  endloop
endfacet
facet normal 0.0 0.0 1.0
  outer loop
    vertex 1442.1392720782922 1224.9143451314146 160.5753341053537
    vertex 1439.8412220782923 1217.7959951314153 160.5753341053537
    vertex 1442.1392720782922 1203.6153451314144 160.5753341053537
  endloop
endfacet
facet normal 0.0 0.0 1.0
  outer loop
    vertex 1442.1392720782922 1224.9143451314146 160.5753341053537
    vertex 1442.1392720782922 1203.6153451314144 160.5753341053537
    vertex 1445.5022720782913 1206.9783451314145 160.5753341053537
  endloop
endfacet
facet normal 0.0 0.0 1.0
  outer loop
    vertex 1442.1392720782922 1224.9143451314146 160.5753341053537
    vertex 1445.5022720782913 1206.9783451314145 160.5753341053537
    vertex 1445.5022720782913 1221.5513451314143 160.5753341053537
  endloop
endfacet
facet normal 0.17881220500143968 0.1788122050014344 -0.9674980055199328
  outer loop
    vertex 1429.8643220782928 1210.7336951314148 160.5753341053537
    vertex 1397.6827720782915 1161.754845131414 145.5753341053537
    vertex 1382.342772078292 1177.0948451314139 145.5753341053537
  endloop
endfacet
facet normal 0.17881220500143968 0.1788122050014344 -0.9674980055199328
  outer loop
    vertex 1397.6827720782915 1161.754845131414 145.5753341053537
    vertex 1429.8643220782928 1210.7336951314148 160.5753341053537
    vertex 1431.3216220782929 1209.2763951314148 160.5753341053537
  endloop
endfacet
facet normal 1.473420576777891e-17 -0.30100718665071535 -0.9536218713854153
  outer loop
    vertex 1472.0227720782914 1266.7748451314142 145.5753341053537
    vertex 1431.3216220782929 1219.2532951314145 160.5753341053537
    vertex 1397.6827720782915 1266.7748451314142 145.5753341053537
  endloop
endfacet
facet normal 1.473420576777891e-17 -0.30100718665071535 -0.9536218713854153
  outer loop
    vertex 1431.3216220782929 1219.2532951314145 160.5753341053537
    vertex 1472.0227720782914 1266.7748451314142 145.5753341053537
    vertex 1438.3839220782922 1219.2532951314145 160.5753341053537
  endloop
endfacet
facet normal -0.17881220500143336 0.1788122050014471 -0.9674980055199318
  outer loop
    vertex 1439.8412220782923 1210.7336951314148 160.5753341053537
    vertex 1472.0227720782914 1161.754845131414 145.5753341053537
    vertex 1438.3839220782922 1209.2763951314148 160.5753341053537
  endloop
endfacet
facet normal -0.17881220500143336 0.1788122050014471 -0.9674980055199318
  outer loop
    vertex 1472.0227720782914 1161.754845131414 145.5753341053537
    vertex 1439.8412220782923 1210.7336951314148 160.5753341053537
    vertex 1487.3627720782924 1177.0948451314139 145.5753341053537
  endloop
endfacet
facet normal 0.30100718665070864 -1.9498879719977867e-17 -0.9536218713854173
  outer loop
    vertex 1429.8643220782928 1217.7959951314153 160.5753341053537
    vertex 1382.342772078292 1177.0948451314139 145.5753341053537
    vertex 1382.342772078292 1251.4348451314142 145.5753341053537
  endloop
endfacet
facet normal 0.30100718665070864 -1.9498879719977867e-17 -0.9536218713854173
  outer loop
    vertex 1382.342772078292 1177.0948451314139 145.5753341053537
    vertex 1429.8643220782928 1217.7959951314153 160.5753341053537
    vertex 1429.8643220782928 1210.7336951314148 160.5753341053537
  endloop
endfacet
facet normal -0.3010071866507128 6.761851617316188e-18 -0.9536218713854161
  outer loop
    vertex 1487.3627720782924 1251.4348451314142 145.5753341053537
    vertex 1439.8412220782923 1210.7336951314148 160.5753341053537
    vertex 1439.8412220782923 1217.7959951314153 160.5753341053537
  endloop
endfacet
facet normal -0.3010071866507128 6.761851617316188e-18 -0.9536218713854161
  outer loop
    vertex 1439.8412220782923 1210.7336951314148 160.5753341053537
    vertex 1487.3627720782924 1251.4348451314142 145.5753341053537
    vertex 1487.3627720782924 1177.0948451314139 145.5753341053537
  endloop
endfacet
facet normal -0.17881220500143563 -0.17881220500145117 -0.9674980055199306
  outer loop
    vertex 1472.0227720782914 1266.7748451314142 145.5753341053537
    vertex 1439.8412220782923 1217.7959951314153 160.5753341053537
    vertex 1438.3839220782922 1219.2532951314145 160.5753341053537
  endloop
endfacet
facet normal -0.17881220500143563 -0.17881220500145117 -0.9674980055199306
  outer loop
    vertex 1439.8412220782923 1217.7959951314153 160.5753341053537
    vertex 1472.0227720782914 1266.7748451314142 145.5753341053537
    vertex 1487.3627720782924 1251.4348451314142 145.5753341053537
  endloop
endfacet
facet normal -4.999881945226833e-18 0.30100718665070963 -0.953621871385417
  outer loop
    vertex 1431.3216220782929 1209.2763951314148 160.5753341053537
    vertex 1472.0227720782914 1161.754845131414 145.5753341053537
    vertex 1397.6827720782915 1161.754845131414 145.5753341053537
  endloop
endfacet
facet normal -4.999881945226833e-18 0.30100718665070963 -0.953621871385417
  outer loop
    vertex 1472.0227720782914 1161.754845131414 145.5753341053537
    vertex 1431.3216220782929 1209.2763951314148 160.5753341053537
    vertex 1438.3839220782922 1209.2763951314148 160.5753341053537
  endloop
endfacet
facet normal 0.0 0.0 -1.0
  outer loop
    vertex 1378.8027720782916 1252.614845131414 145.5753341053537
    vertex 1382.342772078292 1251.4348451314142 145.5753341053537
    vertex 1378.8027720782916 1175.9148451314138 145.5753341053537
  endloop
endfacet
facet normal 0.0 0.0 -1.0
  outer loop
    vertex 1382.342772078292 1251.4348451314142 145.5753341053537
    vertex 1378.8027720782916 1252.614845131414 145.5753341053537
    vertex 1396.5027720782923 1270.3148451314137 145.5753341053537
  endloop
endfacet
facet normal 0.0 0.0 -1.0
  outer loop
    vertex 1382.342772078292 1251.4348451314142 145.5753341053537
    vertex 1396.5027720782923 1270.3148451314137 145.5753341053537
    vertex 1397.6827720782915 1266.7748451314142 145.5753341053537
  endloop
endfacet
facet normal 0.0 0.0 -1.0
  outer loop
    vertex 1397.6827720782915 1266.7748451314142 145.5753341053537
    vertex 1396.5027720782923 1270.3148451314137 145.5753341053537
    vertex 1473.2027720782926 1270.3148451314137 145.5753341053537
  endloop
endfacet
facet normal 0.0 0.0 -1.0
  outer loop
    vertex 1397.6827720782915 1266.7748451314142 145.5753341053537
    vertex 1473.2027720782926 1270.3148451314137 145.5753341053537
    vertex 1472.0227720782914 1266.7748451314142 145.5753341053537
  endloop
endfacet
facet normal 0.0 0.0 -1.0
  outer loop
    vertex 1472.0227720782914 1266.7748451314142 145.5753341053537
    vertex 1473.2027720782926 1270.3148451314137 145.5753341053537
    vertex 1487.3627720782924 1251.4348451314142 145.5753341053537
  endloop
endfacet
facet normal 0.0 0.0 -1.0
  outer loop
    vertex 1487.3627720782924 1251.4348451314142 145.5753341053537
    vertex 1473.2027720782926 1270.3148451314137 145.5753341053537
    vertex 1490.9027720782924 1252.614845131414 145.5753341053537
  endloop
endfacet
facet normal 0.0 0.0 -1.0
  outer loop
    vertex 1487.3627720782924 1251.4348451314142 145.5753341053537
    vertex 1490.9027720782924 1252.614845131414 145.5753341053537
    vertex 1487.3627720782924 1177.0948451314139 145.5753341053537
  endloop
endfacet
facet normal 0.0 0.0 -1.0
  outer loop
    vertex 1378.8027720782916 1175.9148451314138 145.5753341053537
    vertex 1382.342772078292 1177.0948451314139 145.5753341053537
    vertex 1396.5027720782923 1158.214845131414 145.5753341053537
  endloop
endfacet
facet normal 0.0 0.0 -1.0
  outer loop
    vertex 1382.342772078292 1177.0948451314139 145.5753341053537
    vertex 1378.8027720782916 1175.9148451314138 145.5753341053537
    vertex 1382.342772078292 1251.4348451314142 145.5753341053537
  endloop
endfacet
facet normal 0.0 0.0 -1.0
  outer loop
    vertex 1396.5027720782923 1158.214845131414 145.5753341053537
    vertex 1382.342772078292 1177.0948451314139 145.5753341053537
    vertex 1397.6827720782915 1161.754845131414 145.5753341053537
  endloop
endfacet
facet normal 0.0 0.0 -1.0
  outer loop
    vertex 1396.5027720782923 1158.214845131414 145.5753341053537
    vertex 1397.6827720782915 1161.754845131414 145.5753341053537
    vertex 1473.2027720782926 1158.214845131414 145.5753341053537
  endloop
endfacet
facet normal 0.0 0.0 -1.0
  outer loop
    vertex 1473.2027720782926 1158.214845131414 145.5753341053537
    vertex 1397.6827720782915 1161.754845131414 145.5753341053537
    vertex 1472.0227720782914 1161.754845131414 145.5753341053537
  endloop
endfacet
facet normal 0.0 0.0 -1.0
  outer loop
    vertex 1473.2027720782926 1158.214845131414 145.5753341053537
    vertex 1472.0227720782914 1161.754845131414 145.5753341053537
    vertex 1487.3627720782924 1177.0948451314139 145.5753341053537
  endloop
endfacet
facet normal 0.0 0.0 -1.0
  outer loop
    vertex 1473.2027720782926 1158.214845131414 145.5753341053537
    vertex 1487.3627720782924 1177.0948451314139 145.5753341053537
    vertex 1490.9027720782924 1175.9148451314138 145.5753341053537
  endloop
endfacet
facet normal 0.0 0.0 -1.0
  outer loop
    vertex 1490.9027720782924 1175.9148451314138 145.5753341053537
    vertex 1487.3627720782924 1177.0948451314139 145.5753341053537
    vertex 1490.9027720782924 1252.614845131414 145.5753341053537
  endloop
endfacet
facet normal -1.462007854412337e-17 0.31371380907664276 0.9495175859322585
  outer loop
    vertex 1427.5662720782918 1224.9143451314146 160.5753341053537
    vertex 1473.2027720782926 1270.3148451314137 145.5753341053537
    vertex 1396.5027720782923 1270.3148451314137 145.5753341053537
  endloop
endfacet
facet normal -1.462007854412337e-17 0.31371380907664276 0.9495175859322585
  outer loop
    vertex 1473.2027720782926 1270.3148451314137 145.5753341053537
    vertex 1427.5662720782918 1224.9143451314146 160.5753341053537
    vertex 1442.1392720782922 1224.9143451314146 160.5753341053537
  endloop
endfacet
facet normal 0.18903110141919058 -0.18903110141918675 0.9636049425944726
  outer loop
    vertex 1473.2027720782926 1158.214845131414 145.5753341053537
    vertex 1445.5022720782913 1206.9783451314145 160.5753341053537
    vertex 1442.1392720782922 1203.6153451314144 160.5753341053537
  endloop
endfacet
facet normal 0.18903110141919058 -0.18903110141918675 0.9636049425944726
  outer loop
    vertex 1445.5022720782913 1206.9783451314145 160.5753341053537
    vertex 1473.2027720782926 1158.214845131414 145.5753341053537
    vertex 1490.9027720782924 1175.9148451314138 145.5753341053537
  endloop
endfacet
facet normal 0.1890311014191911 0.18903110141919036 0.9636049425944719
  outer loop
    vertex 1445.5022720782913 1221.5513451314143 160.5753341053537
    vertex 1473.2027720782926 1270.3148451314137 145.5753341053537
    vertex 1442.1392720782922 1224.9143451314146 160.5753341053537
  endloop
endfacet
facet normal 0.1890311014191911 0.18903110141919036 0.9636049425944719
  outer loop
    vertex 1473.2027720782926 1270.3148451314137 145.5753341053537
    vertex 1445.5022720782913 1221.5513451314143 160.5753341053537
    vertex 1490.9027720782924 1252.614845131414 145.5753341053537
  endloop
endfacet
facet normal -0.3137138090766349 7.310039272024588e-18 0.9495175859322611
  outer loop
    vertex 1424.203272078292 1206.9783451314145 160.5753341053537
    vertex 1378.8027720782916 1252.614845131414 145.5753341053537
    vertex 1378.8027720782916 1175.9148451314138 145.5753341053537
  endloop
endfacet
facet normal -0.3137138090766349 7.310039272024588e-18 0.9495175859322611
  outer loop
    vertex 1378.8027720782916 1252.614845131414 145.5753341053537
    vertex 1424.203272078292 1206.9783451314145 160.5753341053537
    vertex 1424.203272078292 1221.5513451314143 160.5753341053537
  endloop
endfacet
facet normal 0.17881220500144143 -0.1788122050014387 -0.9674980055199318
  outer loop
    vertex 1397.6827720782915 1266.7748451314142 145.5753341053537
    vertex 1429.8643220782928 1217.7959951314153 160.5753341053537
    vertex 1382.342772078292 1251.4348451314142 145.5753341053537
  endloop
endfacet
facet normal 0.17881220500144143 -0.1788122050014387 -0.9674980055199318
  outer loop
    vertex 1429.8643220782928 1217.7959951314153 160.5753341053537
    vertex 1397.6827720782915 1266.7748451314142 145.5753341053537
    vertex 1431.3216220782929 1219.2532951314145 160.5753341053537
  endloop
endfacet
facet normal -0.18903110141918608 -0.18903110141919535 0.9636049425944719
  outer loop
    vertex 1396.5027720782923 1158.214845131414 145.5753341053537
    vertex 1424.203272078292 1206.9783451314145 160.5753341053537
    vertex 1378.8027720782916 1175.9148451314138 145.5753341053537
  endloop
endfacet
facet normal -0.18903110141918608 -0.18903110141919535 0.9636049425944719
  outer loop
    vertex 1424.203272078292 1206.9783451314145 160.5753341053537
    vertex 1396.5027720782923 1158.214845131414 145.5753341053537
    vertex 1427.5662720782918 1203.6153451314144 160.5753341053537
  endloop
endfacet
facet normal 0.3137138090766303 2.7264724870419058e-18 0.9495175859322625
  outer loop
    vertex 1490.9027720782924 1175.9148451314138 145.5753341053537
    vertex 1445.5022720782913 1221.5513451314143 160.5753341053537
    vertex 1445.5022720782913 1206.9783451314145 160.5753341053537
  endloop
endfacet
facet normal 0.3137138090766303 2.7264724870419058e-18 0.9495175859322625
  outer loop
    vertex 1445.5022720782913 1221.5513451314143 160.5753341053537
    vertex 1490.9027720782924 1175.9148451314138 145.5753341053537
    vertex 1490.9027720782924 1252.614845131414 145.5753341053537
  endloop
endfacet
facet normal -0.18903110141918686 0.1890311014191986 0.9636049425944712
  outer loop
    vertex 1424.203272078292 1221.5513451314143 160.5753341053537
    vertex 1396.5027720782923 1270.3148451314137 145.5753341053537
    vertex 1378.8027720782916 1252.614845131414 145.5753341053537
  endloop
endfacet
facet normal -0.18903110141918686 0.1890311014191986 0.9636049425944712
  outer loop
    vertex 1396.5027720782923 1270.3148451314137 145.5753341053537
    vertex 1424.203272078292 1221.5513451314143 160.5753341053537
    vertex 1427.5662720782918 1224.9143451314146 160.5753341053537
  endloop
endfacet
facet normal -3.4620292905904963e-18 -0.3137138090766348 0.9495175859322611
  outer loop
    vertex 1473.2027720782926 1158.214845131414 145.5753341053537
    vertex 1427.5662720782918 1203.6153451314144 160.5753341053537
    vertex 1396.5027720782923 1158.214845131414 145.5753341053537
  endloop
endfacet
facet normal -3.4620292905904963e-18 -0.3137138090766348 0.9495175859322611
  outer loop
    vertex 1427.5662720782918 1203.6153451314144 160.5753341053537
    vertex 1473.2027720782926 1158.214845131414 145.5753341053537
    vertex 1442.1392720782922 1203.6153451314144 160.5753341053537
  endloop
endfacet
endsolid sumo
